<svg width="48" height="48" viewBox="0 0 48 48" fill="none" xmlns="http://www.w3.org/2000/svg">
<path d="M8.33345 15.3334L16.0001 17.5468L24.4268 11.4268L12.3335 11.7734C12.215 11.7799 12.1003 11.8166 12.0001 11.8801L8.17345 14.0801C8.05442 14.146 7.95791 14.2462 7.89641 14.3676C7.83491 14.489 7.81124 14.626 7.82847 14.761C7.84571 14.896 7.90304 15.0227 7.99307 15.1248C8.08309 15.2268 8.20167 15.2995 8.33345 15.3334Z" fill="#3182CE"/>
<path d="M46.0266 8.48006L37.6266 6.66673C36.9201 6.51336 36.1889 6.51376 35.4827 6.6679C34.7764 6.82204 34.1115 7.12631 33.5332 7.56006L8.15989 26.0001L2.06656 25.7334C1.71754 25.7215 1.37361 25.8196 1.08333 26.0138C0.793057 26.2079 0.5711 26.4883 0.448803 26.8154C0.326506 27.1425 0.310049 27.4998 0.401754 27.8368C0.49346 28.1737 0.688695 28.4734 0.959892 28.6934L6.89323 33.4001C6.9909 33.4789 7.10717 33.5313 7.2309 33.5523C7.35463 33.5733 7.48168 33.5622 7.59989 33.5201C9.29323 32.8667 15.5999 29.5201 23.0532 25.4267L24.5466 40.7734C24.5592 40.9063 24.608 41.0332 24.6875 41.1405C24.767 41.2478 24.8743 41.3313 24.9977 41.382C25.1212 41.4328 25.2562 41.4489 25.3882 41.4286C25.5202 41.4083 25.6441 41.3523 25.7466 41.2667L29.0799 38.4934C29.2624 38.3404 29.3851 38.1279 29.4266 37.8934L32.5866 20.1734C37.9199 17.2134 43.0132 14.3467 46.5999 12.3201C46.9721 12.1175 47.2731 11.8055 47.462 11.4262C47.6509 11.0469 47.7187 10.6187 47.6561 10.1996C47.5935 9.78046 47.4036 9.39072 47.1122 9.08315C46.8207 8.77558 46.4417 8.56504 46.0266 8.48006Z" fill="#3182CE"/>
</svg>
