<svg width="48" height="48" viewBox="0 0 48 48" fill="none" xmlns="http://www.w3.org/2000/svg">
<path d="M10.299 38.598C12.6733 38.598 14.598 36.6733 14.598 34.299C14.598 31.9247 12.6733 30 10.299 30C7.92473 30 6 31.9247 6 34.299C6 36.6733 7.92473 38.598 10.299 38.598Z" fill="#3182CE"/>
<path d="M34.353 38.844C36.7571 38.844 38.706 36.8642 38.706 34.422C38.706 31.9798 36.7571 30 34.353 30C31.9489 30 30 31.9798 30 34.422C30 36.8642 31.9489 38.844 34.353 38.844Z" fill="#3182CE"/>
<path fill-rule="evenodd" clip-rule="evenodd" d="M32.8592 12.1409C32.8592 8.77485 33.1592 6.04785 30.0272 6.04785C26.8922 6.04785 27.0482 8.77485 27.0482 12.1409H32.8592Z" fill="#3182CE"/>
<path fill-rule="evenodd" clip-rule="evenodd" d="M46.0139 23.205C46.0139 23.205 38.1869 12 35.9819 12H4.17589C1.97689 12 0.191895 13.797 0.191895 16.008V31.953C0.191895 34.161 1.17589 35.961 1.17589 35.961H2.83489C2.75676 35.5342 2.71362 35.1018 2.70589 34.668C2.70589 33.6437 2.90765 32.6294 3.29963 31.6831C3.69162 30.7367 4.26616 29.8769 4.99046 29.1526C5.71476 28.4283 6.57462 27.8537 7.52096 27.4617C8.4673 27.0698 9.48158 26.868 10.5059 26.868C11.5302 26.868 12.5445 27.0698 13.4908 27.4617C14.4372 27.8537 15.297 28.4283 16.0213 29.1526C16.7456 29.8769 17.3202 30.7367 17.7122 31.6831C18.1041 32.6294 18.3059 33.6437 18.3059 34.668C18.3059 35.109 18.2459 35.538 18.1769 35.961H26.8379C26.7598 35.5342 26.7166 35.1018 26.7089 34.668C26.7089 32.5993 27.5307 30.6154 28.9935 29.1526C30.4562 27.6898 32.4402 26.868 34.5089 26.868C36.5776 26.868 38.5615 27.6898 40.0243 29.1526C41.4871 30.6154 42.3089 32.5993 42.3089 34.668C42.3089 35.109 42.2489 35.538 42.1799 35.961H43.9619C46.1639 35.961 47.9489 34.161 47.9489 31.953V27.963C47.9429 25.461 46.0139 23.205 46.0139 23.205ZM24.1409 21.141H21.1289V24.156H17.8739V21.141H14.8589V17.889H17.8739V14.874H21.1289V17.889H24.1409V21.141ZM29.7539 24.126V14.712H33.8549C35.7629 14.712 37.9799 17.805 37.9799 17.805L42.3719 24.123H29.7539V24.126Z" fill="#3182CE"/>
</svg>
