<svg width="48" height="48" viewBox="0 0 48 48" fill="none" xmlns="http://www.w3.org/2000/svg">
<path d="M40.4062 21.8109H36.6094C36.3937 21.8109 36.1875 21.9047 36.0422 22.0687L25.7812 33.8953V7.5C25.7812 7.29375 25.6125 7.125 25.4062 7.125H22.5937C22.3875 7.125 22.2187 7.29375 22.2187 7.5V33.8953L11.9578 22.0687C11.8172 21.9047 11.6109 21.8109 11.3906 21.8109H7.59375C7.275 21.8109 7.10156 22.1906 7.3125 22.4297L22.8703 40.3594C23.0109 40.5216 23.1848 40.6517 23.3801 40.7409C23.5754 40.8301 23.7876 40.8762 24.0023 40.8762C24.217 40.8762 24.4292 40.8301 24.6246 40.7409C24.8199 40.6517 24.9937 40.5216 25.1344 40.3594L40.6875 22.4297C40.8984 22.1859 40.725 21.8109 40.4062 21.8109Z" fill="#3E721D"/>
</svg>
