<svg width="48" height="48" viewBox="0 0 48 48" fill="none" xmlns="http://www.w3.org/2000/svg">
<path d="M40.5 21.6281C39.5544 21.213 38.5327 20.9991 37.5 21H10.5C9.46735 20.999 8.44576 21.2126 7.5 21.6272C6.16332 22.2117 5.02588 23.173 4.22671 24.3936C3.42755 25.6142 3.00128 27.0411 3 28.5V39C3 39.3978 3.15804 39.7794 3.43934 40.0607C3.72064 40.342 4.10218 40.5 4.5 40.5C4.89782 40.5 5.27936 40.342 5.56066 40.0607C5.84196 39.7794 6 39.3978 6 39V38.25C6.00243 38.0518 6.08223 37.8625 6.22236 37.7224C6.36249 37.5822 6.55184 37.5024 6.75 37.5H41.25C41.4482 37.5024 41.6375 37.5822 41.7776 37.7224C41.9178 37.8625 41.9976 38.0518 42 38.25V39C42 39.3978 42.158 39.7794 42.4393 40.0607C42.7206 40.342 43.1022 40.5 43.5 40.5C43.8978 40.5 44.2794 40.342 44.5607 40.0607C44.842 39.7794 45 39.3978 45 39V28.5C44.9985 27.0413 44.5722 25.6145 43.773 24.3941C42.9739 23.1738 41.8365 22.2126 40.5 21.6281Z" fill="#3182CE"/>
<path d="M35.25 7.5H12.75C11.3576 7.5 10.0223 8.05312 9.03769 9.03769C8.05312 10.0223 7.5 11.3576 7.5 12.75V19.5C7.50004 19.5581 7.51359 19.6154 7.53957 19.6674C7.56555 19.7194 7.60326 19.7646 7.64972 19.7995C7.69617 19.8344 7.75011 19.8581 7.80726 19.8686C7.86442 19.8791 7.92323 19.8761 7.97906 19.86C8.79793 19.6205 9.64683 19.4993 10.5 19.5H10.8966C10.9891 19.5006 11.0786 19.4669 11.1479 19.4055C11.2171 19.344 11.2612 19.2592 11.2716 19.1672C11.3534 18.4342 11.7023 17.7571 12.2517 17.2651C12.8011 16.7731 13.5125 16.5007 14.25 16.5H19.5C20.238 16.5001 20.9501 16.7721 21.5 17.2642C22.05 17.7562 22.3994 18.4338 22.4813 19.1672C22.4917 19.2592 22.5357 19.344 22.605 19.4055C22.6742 19.4669 22.7637 19.5006 22.8563 19.5H25.1494C25.2419 19.5006 25.3314 19.4669 25.4007 19.4055C25.4699 19.344 25.514 19.2592 25.5244 19.1672C25.6061 18.4347 25.9547 17.758 26.5035 17.2661C27.0523 16.7741 27.763 16.5014 28.5 16.5H33.75C34.488 16.5001 35.2001 16.7721 35.75 17.2642C36.3 17.7562 36.6494 18.4338 36.7312 19.1672C36.7417 19.2592 36.7857 19.344 36.8549 19.4055C36.9242 19.4669 37.0137 19.5006 37.1062 19.5H37.5C38.3532 19.4996 39.2021 19.6211 40.0209 19.8609C40.0768 19.8771 40.1357 19.88 40.193 19.8695C40.2502 19.8589 40.3042 19.8352 40.3507 19.8002C40.3971 19.7652 40.4348 19.7198 40.4607 19.6677C40.4867 19.6156 40.5001 19.5582 40.5 19.5V12.75C40.5 11.3576 39.9469 10.0223 38.9623 9.03769C37.9777 8.05312 36.6424 7.5 35.25 7.5Z" fill="#3182CE"/>
</svg>
