<svg width="80" height="80" viewBox="0 0 80 80" fill="none" xmlns="http://www.w3.org/2000/svg">
<path d="M51.6667 18.3333C55.3333 18.3333 58.3333 15.3333 58.3333 11.6667C58.3333 8 55.3333 5 51.6667 5C48 5 45 8 45 11.6667C45 15.3333 48 18.3333 51.6667 18.3333ZM16.6667 40C7.33333 40 0 47.3333 0 56.6667C0 66 7.33333 73.3333 16.6667 73.3333C26 73.3333 33.3333 66 33.3333 56.6667C33.3333 47.3333 26 40 16.6667 40ZM16.6667 68.3333C10.3333 68.3333 5 63 5 56.6667C5 50.3333 10.3333 45 16.6667 45C23 45 28.3333 50.3333 28.3333 56.6667C28.3333 63 23 68.3333 16.6667 68.3333ZM36 35L44 27L46.6667 29.6667C51 34 56.6667 36.6667 63.6667 36.6667V30C58.6667 30 54.6667 28 51.6667 25L45.3333 18.6667C43.6667 17.3333 42 16.6667 40 16.6667C38 16.6667 36.3333 17.3333 35.3333 18.6667L26 28C24.6667 29.3333 24 31 24 32.6667C24 34.6667 24.6667 36.3333 26 37.3333L36.6667 46.6667V63.3333H43.3333V42.6667L36 35ZM63.3333 40C54 40 46.6667 47.3333 46.6667 56.6667C46.6667 66 54 73.3333 63.3333 73.3333C72.6667 73.3333 80 66 80 56.6667C80 47.3333 72.6667 40 63.3333 40ZM63.3333 68.3333C57 68.3333 51.6667 63 51.6667 56.6667C51.6667 50.3333 57 45 63.3333 45C69.6667 45 75 50.3333 75 56.6667C75 63 69.6667 68.3333 63.3333 68.3333Z" fill="white"/>
</svg>
