<svg width="40" height="44" viewBox="0 0 40 44" fill="none" xmlns="http://www.w3.org/2000/svg">
<path d="M7.9998 38.8004H39.1998V43.6004H7.9998C4.0158 43.6004 0.799805 40.3844 0.799805 36.4004V7.60039C0.799805 3.61639 4.0158 0.400391 7.9998 0.400391H39.1998V34.0004H7.9998C6.6798 34.0004 5.5998 35.0804 5.5998 36.4004C5.5998 37.7204 6.6798 38.8004 7.9998 38.8004ZM12.7998 30.4004V4.00039C12.7998 3.32839 12.2718 2.80039 11.5998 2.80039C10.9278 2.80039 10.3998 3.32839 10.3998 4.00039V30.4004C10.3998 31.0724 10.9278 31.6004 11.5998 31.6004C12.2718 31.6004 12.7998 31.0724 12.7998 30.4004Z" fill="#3182CE"/>
</svg>
