<svg width="46" height="43" viewBox="0 0 46 43" fill="none" xmlns="http://www.w3.org/2000/svg">
<path fill-rule="evenodd" clip-rule="evenodd" d="M36.5423 23.9457C37.5959 23.2339 38.7032 22.6052 39.8543 22.0652C38.5089 20.1136 37.0365 18.2527 35.4468 16.4944C32.9702 16.6657 30.5317 17.1955 28.2072 18.0671C23.4835 19.8826 21.5607 17.4261 26.0303 14.3654C27.5167 13.3599 29.1129 12.5272 30.7879 11.8835C28.7915 10.0929 26.6756 8.44013 24.4548 6.93671C22.1408 7.14296 19.8658 7.66351 17.6924 8.484C12.9743 10.2967 11.0458 7.84024 15.5211 4.78236C16.3428 4.22047 17.2096 3.73483 18.0934 3.28024C10.8962 -0.113644 4.51783 -0.545644 1.47689 2.79177C-3.37676 8.1113 5.331 17.4628 16.947 28.0454C28.5545 38.628 38.6628 46.4379 43.5221 41.1155C46.2694 38.1 45.6877 32.6421 42.5649 26.5518C41.2463 26.8341 39.9531 27.1701 38.7192 27.6473C33.9927 29.4628 32.067 27.0092 36.5423 23.9457Z" fill="#3182CE"/>
</svg>
