<svg width="32" height="32" viewBox="0 0 32 32" fill="none" xmlns="http://www.w3.org/2000/svg">
<path d="M16.0002 18.1431C7.67046 18.1431 0.918457 17.9431 0.918457 23.856C0.918457 29.7662 7.67046 31.1111 16.0002 31.1111C24.33 31.1111 31.082 29.7662 31.082 23.856C31.082 17.944 24.33 18.1431 16.0002 18.1431Z" fill="#D99E82"/>
<path d="M30.6401 18.592C30.6401 18.592 23.3343 17.7173 16.0001 17.68C8.66584 17.7173 1.36007 18.592 1.36007 18.592C0.637399 24.3467 6.6374 26.7173 16.0001 26.7173C25.3627 26.7173 31.3627 24.3467 30.6401 18.592Z" fill="#662113"/>
<path d="M30.1207 16.2916L1.80515 16.8658C0.827377 16.8658 0.00871032 18.8471 1.04604 19.3653C8.78649 21.7724 15.0087 24.208 15.0087 24.208C15.8638 24.6809 16.1527 24.6827 17.0087 24.2107C17.0087 24.2107 25.6007 20.7724 31.1198 19.328C31.9029 19.1236 31.0976 16.2916 30.1207 16.2916Z" fill="#FFCC4D"/>
<path d="M30.8666 16.3662C29.1777 14.8098 29.2754 15.6382 27.9812 15.2729C27.4897 15.1342 23.9723 10.5876 15.9554 10.5876H15.9377C7.92078 10.5876 4.40345 15.1342 3.91189 15.2729C2.61767 15.6382 2.71545 14.8098 1.02656 16.3662C0.251447 17.0809 0.0416692 17.4524 0.859447 17.6373C2.09145 17.9156 1.97945 18.6613 2.86211 18.9209C3.93056 19.2347 4.36967 18.6613 6.09234 18.896C7.56167 19.096 7.65767 21.0018 9.14034 21.0018C10.623 21.0018 10.623 20.2907 12.1048 20.2907C13.5866 20.2907 14.463 22.1982 15.9457 22.1982C17.4283 22.1982 18.3039 20.2907 19.7866 20.2907C21.2692 20.2907 21.2692 21.0018 22.751 21.0018C24.2337 21.0018 24.3297 19.096 25.799 18.896C27.5217 18.6622 27.9617 19.2347 29.0292 18.9209C29.9119 18.6613 29.7999 17.9164 31.0319 17.6373C31.8514 17.4533 31.6426 17.0809 30.8666 16.3662Z" fill="#77B255"/>
<path d="M30.2908 14.6844C30.2908 17.3369 23.8926 18.5893 16.0001 18.5893C8.10769 18.5893 1.70947 17.3369 1.70947 14.6844C1.70947 9.88178 2.56814 9.88177 16.0001 9.88177C29.4321 9.88177 30.2908 9.88266 30.2908 14.6844Z" fill="#DD2E44"/>
<path d="M16.0002 0.465775C7.67046 0.465775 0.918457 4.36889 0.918457 10.2809C0.918457 15.7253 7.67046 15.9476 16.0002 15.9476C24.33 15.9476 31.082 15.7253 31.082 10.2809C31.082 4.368 24.33 0.465775 16.0002 0.465775Z" fill="#D99E82"/>
<path d="M9.58556 3.28445C9.48038 3.21721 9.363 3.17135 9.2401 3.14948C9.1172 3.12761 8.99119 3.13016 8.86928 3.15698C8.74737 3.18381 8.63193 3.23438 8.52957 3.30582C8.4272 3.37726 8.33991 3.46816 8.27267 3.57334C8.20543 3.67851 8.15957 3.7959 8.1377 3.9188C8.11583 4.04169 8.11838 4.1677 8.1452 4.28961C8.17203 4.41152 8.22261 4.52696 8.29404 4.62933C8.36548 4.73169 8.45638 4.81899 8.56156 4.88622C9.00422 5.16978 10.126 5.38134 10.4096 4.93867C10.6922 4.496 10.0282 3.56711 9.58556 3.28445ZM18.238 2.36445C17.7384 2.52622 16.8611 3.25867 17.0238 3.75822C17.1864 4.25778 18.3251 4.33422 18.8247 4.17245C18.9434 4.13393 19.0533 4.0724 19.1483 3.99138C19.2432 3.91036 19.3213 3.81144 19.378 3.70025C19.4347 3.58907 19.4689 3.46781 19.4788 3.34339C19.4886 3.21897 19.4739 3.09383 19.4353 2.97511C19.3968 2.8564 19.3353 2.74643 19.2543 2.6515C19.1732 2.55656 19.0743 2.47851 18.9631 2.4218C18.852 2.3651 18.7307 2.33085 18.6063 2.32101C18.4819 2.31116 18.3567 2.32593 18.238 2.36445ZM27.9349 8.61778C27.5331 8.28 26.526 8.81778 26.1873 9.21956C26.0329 9.41351 25.9604 9.66009 25.9851 9.90677C26.0098 10.1534 26.1299 10.3807 26.3197 10.5402C26.5095 10.6996 26.7541 10.7787 27.0013 10.7605C27.2486 10.7423 27.4789 10.6282 27.6433 10.4427C27.982 10.04 28.3376 8.95556 27.9349 8.61778ZM24.6967 4.17334C24.4842 4.04328 24.2292 4.00174 23.9865 4.05767C23.7438 4.11359 23.5327 4.2625 23.3986 4.4724C23.2645 4.68231 23.218 4.93644 23.2693 5.1802C23.3205 5.42396 23.4654 5.63788 23.6727 5.776C24.1153 6.05956 25.2371 6.27111 25.5198 5.82845C25.8033 5.38489 25.1393 4.456 24.6967 4.17334ZM11.3633 10.3956C11.2581 10.3283 11.1405 10.2824 11.0175 10.2606C10.8945 10.2388 10.7684 10.2414 10.6464 10.2683C10.5244 10.2952 10.4089 10.3459 10.3065 10.4174C10.2041 10.489 10.1168 10.58 10.0496 10.6853C9.98234 10.7905 9.93651 10.9078 9.9147 11.0307C9.89288 11.1536 9.8955 11.2796 9.92242 11.4014C9.94933 11.5233 10 11.6386 10.0715 11.7409C10.1431 11.8431 10.2341 11.9303 10.3393 11.9973C10.782 12.2809 11.9038 12.4933 12.1864 12.0498C12.47 11.6071 11.806 10.6782 11.3633 10.3956ZM14.0709 6.12178C13.7722 6.55378 13.5198 7.66756 13.9527 7.96622C14.3847 8.26489 15.3367 7.63378 15.6353 7.20178C15.768 6.99416 15.815 6.74314 15.7663 6.5016C15.7176 6.26006 15.577 6.04684 15.3743 5.90686C15.1715 5.76687 14.9223 5.71105 14.6792 5.75114C14.4361 5.79123 14.218 5.9241 14.0709 6.12178ZM21.1411 10.3956C21.0358 10.3283 20.9183 10.2824 20.7953 10.2606C20.6723 10.2388 20.5462 10.2414 20.4242 10.2683C20.3022 10.2952 20.1867 10.3459 20.0843 10.4174C19.9819 10.489 19.8946 10.58 19.8273 10.6853C19.7601 10.7905 19.7143 10.9078 19.6925 11.0307C19.6707 11.1536 19.6733 11.2796 19.7002 11.4014C19.7271 11.5233 19.7778 11.6386 19.8493 11.7409C19.9209 11.8431 20.0119 11.9303 20.1171 11.9973C20.5598 12.2809 21.6816 12.4933 21.9642 12.0498C22.2478 11.6071 21.5838 10.6782 21.1411 10.3956ZM4.398 6.94045C4.04778 7.33245 3.65756 8.40534 4.04956 8.75556C4.43978 9.10578 5.46378 8.60089 5.814 8.20889C5.90249 8.11681 5.97153 8.00786 6.01701 7.88852C6.06248 7.76918 6.08346 7.64191 6.07868 7.51429C6.07391 7.38668 6.04348 7.26133 5.98922 7.14572C5.93496 7.03012 5.85797 6.92662 5.76285 6.84141C5.66773 6.7562 5.55642 6.69102 5.43556 6.64976C5.31471 6.60849 5.18678 6.59199 5.0594 6.60123C4.93203 6.61047 4.80783 6.64527 4.69419 6.70355C4.58056 6.76183 4.47983 6.8424 4.398 6.94045Z" fill="#FFE8B6"/>
</svg>
