<svg width="41" height="39" viewBox="0 0 41 39" fill="none" xmlns="http://www.w3.org/2000/svg">
<path d="M35.9215 24.9C35.9415 24.6 36.0015 24.3 36.0015 24V25L35.9215 24.9ZM16.0015 24C16.0015 25.42 16.3015 26.78 16.8415 28H6.00146V30C6.00146 31.1 5.10146 32 4.00146 32H2.00146C0.901465 32 0.00146484 31.1 0.00146484 30V14L4.16146 2C4.56146 0.84 5.68146 0 7.00146 0H29.0015C30.3215 0 31.4415 0.84 31.8415 2L36.0015 14V24C36.0015 18.48 31.5215 14 26.0015 14C20.4815 14 16.0015 18.48 16.0015 24ZM10.0015 19C10.0015 17.34 8.66146 16 7.00146 16C5.34146 16 4.00146 17.34 4.00146 19C4.00146 20.66 5.34146 22 7.00146 22C8.66146 22 10.0015 20.66 10.0015 19ZM32.0015 12L29.0015 3H7.00146L4.00146 12H32.0015ZM39.7415 34.38L31.5215 26.16C32.3415 24.08 31.8815 21.64 30.1615 19.94C28.3615 18.12 25.6615 17.76 23.4815 18.76L27.3615 22.64L24.6615 25.36L20.6815 21.46C19.6015 23.64 20.1015 26.34 21.8615 28.16C22.6558 28.9703 23.6696 29.5307 24.7783 29.7724C25.8869 30.014 27.042 29.9263 28.1015 29.52L36.3215 37.72C36.6815 38.1 37.2215 38.1 37.5815 37.72L39.6615 35.66C40.1015 35.3 40.1015 34.66 39.7415 34.38Z" fill="#3182CE"/>
</svg>
