<svg width="48" height="48" viewBox="0 0 48 48" fill="none" xmlns="http://www.w3.org/2000/svg">
<path d="M44.953 19.3781L43.8421 17.4375C43.7921 17.3519 43.7104 17.2896 43.6146 17.2641C43.5189 17.2387 43.417 17.2521 43.3311 17.3015L40.9546 18.689L37.2843 8.55464C37.0905 7.94993 36.7095 7.42244 36.1964 7.04835C35.6833 6.67426 35.0646 6.47291 34.4296 6.47339H14.1186C12.4921 6.47339 11.0483 7.52339 10.5468 9.07495L7.04989 18.6937L4.66864 17.3062C4.58278 17.2568 4.48087 17.2433 4.38514 17.2688C4.28941 17.2943 4.20764 17.3566 4.1577 17.4421L3.04676 19.3781C2.94364 19.5562 3.00457 19.7812 3.1827 19.8843L6.01395 21.5343L5.33426 23.4093C5.27801 23.5593 5.24989 23.7187 5.24989 23.8781V40.2C5.24989 40.9359 5.80301 41.5312 6.4827 41.5312H9.65145C10.228 41.5312 10.7296 41.0953 10.8514 40.4859L11.2124 38.7187H36.7874L37.1483 40.4859C37.2749 41.0953 37.7718 41.5312 38.3483 41.5312H41.5171C42.1968 41.5312 42.7499 40.9359 42.7499 40.2V23.8781C42.7499 23.7187 42.7218 23.5593 42.6655 23.4093L41.9858 21.5343L44.8124 19.8843C44.8975 19.8352 44.9599 19.7546 44.9862 19.66C45.0125 19.5653 45.0006 19.4641 44.953 19.3781V19.3781ZM12.3749 29.1093C11.3389 29.1093 10.4999 28.2703 10.4999 27.2343C10.4999 26.1984 11.3389 25.3593 12.3749 25.3593C13.4108 25.3593 14.2499 26.1984 14.2499 27.2343C14.2499 28.2703 13.4108 29.1093 12.3749 29.1093ZM30.5624 32.625C30.5624 32.8312 30.3936 33 30.1874 33H17.8124C17.6061 33 17.4374 32.8312 17.4374 32.625V28.6875C17.4374 28.4812 17.6061 28.3125 17.8124 28.3125H19.6874C19.8936 28.3125 20.0624 28.4812 20.0624 28.6875V30.375H27.9374V28.6875C27.9374 28.4812 28.1061 28.3125 28.3124 28.3125H30.1874C30.3936 28.3125 30.5624 28.4812 30.5624 28.6875V32.625ZM35.6249 29.1093C34.589 29.1093 33.7499 28.2703 33.7499 27.2343C33.7499 26.1984 34.589 25.3593 35.6249 25.3593C36.6608 25.3593 37.4999 26.1984 37.4999 27.2343C37.4999 28.2703 36.6608 29.1093 35.6249 29.1093ZM10.3124 19.5937L13.7202 10.2234L13.7436 10.1625L13.7624 10.1015C13.814 9.94683 13.9546 9.8437 14.1186 9.8437H34.1624L37.6968 19.5937H10.3124Z" fill="#3182CE"/>
</svg>
