<svg width="48" height="48" viewBox="0 0 48 48" fill="none" xmlns="http://www.w3.org/2000/svg">
<path d="M7.20005 10.8002C7.20005 9.84542 7.57933 8.92974 8.25446 8.25461C8.9296 7.57948 9.84527 7.2002 10.8 7.2002H37.2C38.1548 7.2002 39.0705 7.57948 39.7456 8.25461C40.4208 8.92974 40.8 9.84542 40.8 10.8002V27.6002C40.8 28.555 40.4208 29.4706 39.7456 30.1458C39.0705 30.8209 38.1548 31.2002 37.2 31.2002H24V19.2002C24 17.9272 23.4943 16.7063 22.5942 15.8061C21.694 14.9059 20.4731 14.4002 19.2 14.4002H7.20005V10.8002ZM24 36.0002H42C42.3183 36.0002 42.6235 35.8738 42.8486 35.6487C43.0736 35.4237 43.2 35.1185 43.2 34.8002C43.2 34.4819 43.0736 34.1767 42.8486 33.9517C42.6235 33.7266 42.3183 33.6002 42 33.6002H24V36.0002ZM4.80005 20.4002C4.80005 19.4454 5.17933 18.5297 5.85446 17.8546C6.5296 17.1795 7.44527 16.8002 8.40005 16.8002H18C18.9548 16.8002 19.8705 17.1795 20.5456 17.8546C21.2208 18.5297 21.6 19.4454 21.6 20.4002V39.6002C21.6 40.555 21.2208 41.4706 20.5456 42.1458C19.8705 42.8209 18.9548 43.2002 18 43.2002H8.40005C7.44527 43.2002 6.5296 42.8209 5.85446 42.1458C5.17933 41.4706 4.80005 40.555 4.80005 39.6002V20.4002ZM12 36.0002C11.6818 36.0002 11.3766 36.1266 11.1515 36.3517C10.9265 36.5767 10.8 36.8819 10.8 37.2002C10.8 37.5185 10.9265 37.8237 11.1515 38.0487C11.3766 38.2738 11.6818 38.4002 12 38.4002H14.4C14.7183 38.4002 15.0235 38.2738 15.2486 38.0487C15.4736 37.8237 15.6 37.5185 15.6 37.2002C15.6 36.8819 15.4736 36.5767 15.2486 36.3517C15.0235 36.1266 14.7183 36.0002 14.4 36.0002H12Z" fill="#3182CE"/>
</svg>
