<svg width="55" height="48" viewBox="0 0 55 48" fill="none" xmlns="http://www.w3.org/2000/svg">
<path d="M52.6071 8.30357C52.0714 8.30357 51.3304 8.52679 50.3839 8.97321C49.4375 9.41964 47.8214 10.2679 45.5357 11.5179L43.6607 13.5536C44.2679 13.9464 44.5714 14.375 44.5714 14.8393C44.5714 16.1964 44.4018 17.3929 44.0625 18.4286C43.7232 19.4643 43.2321 20.5982 42.5893 21.8304C41.9464 23.0625 41.4643 24.1607 41.1429 25.125C40 28.625 38.7054 31.0268 37.2589 32.3304C35.8125 33.6339 33.6786 34.2857 30.8571 34.2857C28 34.2857 25.5714 33.2857 23.5714 31.2857C21.5714 29.2857 20.5714 26.8571 20.5714 24C20.5714 21.1786 21.2232 19.0446 22.5268 17.5982C23.8304 16.1518 26.2321 14.8571 29.7321 13.7143C30.6607 13.3929 31.7411 12.9196 32.9732 12.2946C34.2054 11.6696 35.3482 11.1786 36.4018 10.8214C37.4554 10.4643 38.6607 10.2857 40.0179 10.2857L42.0536 8.03571C43.4107 4.92857 44.0893 3 44.0893 2.25C44.0893 1.64286 44.2768 1.11607 44.6518 0.669643C45.0268 0.223214 45.4911 0 46.0446 0C46.5982 0 47.0625 0.223214 47.4375 0.669643C47.8125 1.11607 48 1.64286 48 2.25C48 2.5 47.7321 2.98214 47.1964 3.69643C47.5179 4.44643 47.7857 4.92857 48 5.14286C48.3214 5.46429 49.1071 5.46429 50.3571 5.14286C51.5357 4 52.2679 3.42857 52.5536 3.42857C53.1964 3.42857 53.7411 3.66964 54.1875 4.15179C54.6339 4.63393 54.8571 5.21429 54.8571 5.89286C54.8571 6.57143 54.6339 7.14286 54.1875 7.60714C53.7411 8.07143 53.2143 8.30357 52.6071 8.30357ZM17.1429 24.4821C17.1429 28.125 18.4375 31.2411 21.0268 33.8304C23.6161 36.4196 26.7321 37.7143 30.375 37.7143C33.9821 37.7143 36.7143 36.875 38.5714 35.1964C40.4286 33.5179 42.1071 30.4464 43.6071 25.9821C44 24.6964 44.7321 23 45.8036 20.8929C48.625 23.3929 50.8393 26.0982 52.4464 29.0089C54.0536 31.9196 54.8571 34.8214 54.8571 37.7143C54.8571 39.9286 53.6071 41.8214 51.1071 43.3929C48.6071 44.9643 45.3304 46.125 41.2768 46.875C37.2232 47.625 32.6071 48 27.4286 48C24.1786 48 21.2768 47.8929 18.7232 47.6786C16.1696 47.4643 13.6875 47.0536 11.2768 46.4464C8.86607 45.8393 6.86607 45.0357 5.27679 44.0357C3.6875 43.0357 2.41071 41.7143 1.44643 40.0714C0.482143 38.4286 0 36.5 0 34.2857C0 31.6786 0.491071 29.1071 1.47321 26.5714C2.45536 24.0357 3.72321 21.8125 5.27679 19.9018C6.83036 17.9911 8.52679 16.2946 10.3661 14.8125C12.2054 13.3304 14.0179 12.2054 15.8036 11.4375C17.5893 10.6696 19.1786 10.2857 20.5714 10.2857C22.8571 10.2857 25.3571 10.625 28.0714 11.3036C24.3929 12.8036 21.6518 14.5893 19.8482 16.6607C18.0446 18.7321 17.1429 21.3393 17.1429 24.4821Z" fill="#3182CE"/>
</svg>
