<svg width="64" height="64" viewBox="0 0 64 64" fill="none" xmlns="http://www.w3.org/2000/svg">
<g clip-path="url(#clip0_315_1071)">
<path d="M23.1111 8.88892H7.11111C5.22513 8.88892 3.41639 9.63812 2.0828 10.9717C0.749204 12.3053 0 14.114 0 16L0 32H23.1111V8.88892ZM14.8213 25.408L11.4756 22.9778L8.12978 25.408L9.408 21.4756L6.06222 19.0436H10.1973L11.4756 15.1111L12.7538 19.0436H16.8889L13.5431 21.4756L14.8213 25.408Z" fill="#1F429B"/>
<path d="M56.8889 8.88892H23.1111V32H64V16C64 14.114 63.2508 12.3053 61.9172 10.9717C60.5836 9.63812 58.7748 8.88892 56.8889 8.88892Z" fill="#EEEEEE"/>
<path d="M0 32V48C0 49.886 0.749204 51.6947 2.0828 53.0283C3.41639 54.3619 5.22513 55.1111 7.11111 55.1111H56.8889C58.7749 55.1111 60.5836 54.3619 61.9172 53.0283C63.2508 51.6947 64 49.886 64 48V32H0Z" fill="#D42D27"/>
<path d="M12.7538 19.0435L11.4756 15.1111L10.1974 19.0435H6.06226L9.40803 21.4755L8.12981 25.408L11.4756 22.9778L14.8214 25.408L13.5431 21.4755L16.8889 19.0435H12.7538Z" fill="white"/>
</g>
<defs>
<clipPath id="clip0_315_1071">
<rect width="64" height="64" fill="white"/>
</clipPath>
</defs>
</svg>
