<svg width="49" height="48" viewBox="0 0 49 48" fill="none" xmlns="http://www.w3.org/2000/svg">
<path d="M18.2517 36.5568C18.181 36.5568 18.111 36.5433 18.0453 36.5172C16.4803 36.515 14.9153 36.4926 13.3509 36.45C12.2193 36.4224 11.1693 36.3972 9.95368 36.3972C8.04524 36.3953 6.21548 35.6364 4.86589 34.287C3.5163 32.9377 2.75711 31.108 2.75488 29.1996C2.75488 26.7948 3.91888 24.6012 5.88808 23.2584C5.72683 22.473 5.64561 21.6733 5.64568 20.8716C5.64568 14.3496 10.9521 9.042 17.4765 9.042C19.613 9.0441 21.7093 9.62351 23.5436 10.719C25.378 11.8144 26.8822 13.3852 27.8973 15.2652C28.5652 14.5804 29.3639 14.0368 30.246 13.6668C31.1281 13.2968 32.0755 13.1078 33.0321 13.1112C34.1257 13.1121 35.2047 13.3619 36.1874 13.8417C37.1701 14.3215 38.0308 15.0186 38.7041 15.8803C39.3774 16.742 39.8458 17.7457 40.0738 18.8153C40.3017 19.8848 40.2832 20.9922 40.0197 22.0536C41.5296 22.4797 42.8591 23.3871 43.8061 24.638C44.7531 25.8888 45.2657 27.4147 45.2661 28.9836C45.2661 32.9532 42.0369 36.1836 38.0673 36.1836C36.2169 36.1836 32.0157 36.2796 27.9537 36.3732C23.8533 36.4692 19.9809 36.5568 18.2517 36.5568ZM17.4765 10.1592C11.5689 10.1592 6.76288 14.964 6.76288 20.8716C6.76288 21.72 6.86368 22.566 7.06168 23.3856C7.08942 23.5009 7.07972 23.622 7.03397 23.7314C6.98823 23.8408 6.90883 23.9328 6.80728 23.994C5.9083 24.5324 5.16486 25.2954 4.65003 26.2081C4.1352 27.1208 3.86669 28.1517 3.87088 29.1996C3.87279 30.8118 4.51418 32.3575 5.65432 33.4974C6.79446 34.6373 8.34024 35.2784 9.95248 35.28C11.1777 35.28 12.2361 35.3052 13.3773 35.3328C14.7033 35.364 16.1421 35.3988 18.0933 35.3988C18.164 35.399 18.234 35.4124 18.2997 35.4384C20.0433 35.436 24.0501 35.3448 27.9261 35.256C31.9953 35.1624 36.2025 35.0664 38.0661 35.0664C39.6786 35.0645 41.2246 34.423 42.3647 33.2826C43.5049 32.1422 44.1461 30.5962 44.1477 28.9836C44.148 27.5693 43.6552 26.1991 42.7541 25.1089C41.853 24.0188 40.6 23.277 39.2109 23.0112C39.1324 22.9963 39.0581 22.9647 38.9929 22.9185C38.9278 22.8723 38.8733 22.8126 38.8332 22.7435C38.7932 22.6744 38.7684 22.5975 38.7607 22.518C38.753 22.4385 38.7625 22.3583 38.7885 22.2828C39.101 21.3669 39.1906 20.3896 39.0499 19.4321C38.9092 18.4746 38.5422 17.5645 37.9794 16.7772C37.4167 15.9899 36.6743 15.3481 35.8139 14.905C34.9535 14.462 33.9999 14.2304 33.0321 14.2296C32.0995 14.2269 31.1789 14.4401 30.3424 14.8525C29.5059 15.265 28.7762 15.8654 28.2105 16.6068C28.152 16.684 28.0743 16.7445 27.9852 16.7824C27.896 16.8203 27.7986 16.8342 27.7024 16.8228C27.6062 16.8114 27.5147 16.7751 27.4369 16.7174C27.3591 16.6597 27.2977 16.5827 27.2589 16.494C26.4111 14.6085 25.037 13.0078 23.3018 11.8841C21.5665 10.7604 19.5438 10.1615 17.4765 10.1592Z" fill="black"/>
<path d="M21.4404 25.8168C21.4672 25.8166 21.4937 25.8225 21.518 25.8339C21.5423 25.8453 21.5638 25.862 21.5808 25.8828L21.9684 26.3004C21.6733 26.6416 21.3072 26.914 20.8956 27.0984C20.4756 27.2892 19.968 27.384 19.3716 27.384C18.8556 27.384 18.3876 27.294 17.9652 27.1152C17.5549 26.9451 17.1864 26.688 16.8852 26.3616C16.5778 26.0244 16.3418 25.6284 16.1916 25.1976C16.0234 24.7185 15.9401 24.2137 15.9456 23.706C15.9456 23.1636 16.032 22.6656 16.2024 22.2132C16.3553 21.7815 16.5978 21.387 16.914 21.0556C17.2302 20.7243 17.613 20.4636 18.0372 20.2908C18.492 20.108 18.9786 20.017 19.4688 20.0232C19.9812 20.0232 20.4336 20.106 20.826 20.2692C21.2172 20.4324 21.5616 20.6556 21.8604 20.9364L21.5388 21.384C21.5192 21.4171 21.4926 21.4453 21.4608 21.4668C21.4221 21.4901 21.3774 21.5013 21.3324 21.4992C21.2724 21.4992 21.198 21.4668 21.1116 21.4008C20.851 21.2031 20.5566 21.0547 20.2428 20.9628C19.9895 20.8914 19.727 20.8582 19.464 20.8644C19.092 20.8644 18.7524 20.9304 18.4428 21.0588C18.1393 21.1843 17.8675 21.3757 17.6472 21.6192C17.4252 21.8628 17.2512 22.1616 17.1276 22.5132C16.999 22.8967 16.9365 23.2992 16.9428 23.7036C16.9428 24.1524 17.0076 24.552 17.136 24.9036C17.2644 25.2552 17.4408 25.5528 17.664 25.7952C17.8872 26.0376 18.1488 26.2236 18.4524 26.3508C18.756 26.478 19.0836 26.5416 19.4352 26.5416C19.65 26.5416 19.8432 26.5296 20.0148 26.5032C20.1777 26.4813 20.3379 26.4419 20.4924 26.3856C20.6353 26.3338 20.7718 26.2658 20.8992 26.1828C21.0252 26.1 21.15 26.0016 21.2748 25.8888C21.3192 25.8452 21.3782 25.8195 21.4404 25.8168Z" fill="black"/>
<path d="M29.6112 23.7072C29.6112 24.246 29.526 24.7404 29.3544 25.1928C29.194 25.6252 28.9479 26.0207 28.6308 26.3556C28.3145 26.6844 27.9321 26.9425 27.5088 27.1128C27.0477 27.2959 26.5552 27.3868 26.0592 27.3804C25.53 27.3804 25.0476 27.2916 24.612 27.1128C24.1894 26.9424 23.8078 26.6843 23.4924 26.3556C23.1747 26.0212 22.9284 25.6256 22.7688 25.1928C22.5932 24.7174 22.5061 24.2139 22.512 23.7072C22.512 23.1672 22.5972 22.6728 22.7688 22.2216C22.9404 21.7716 23.1816 21.3816 23.4924 21.0564C23.8079 20.7268 24.1894 20.4675 24.612 20.2956C25.0716 20.1099 25.5636 20.0177 26.0592 20.0244C26.5896 20.0244 27.072 20.1144 27.5088 20.2956C27.9444 20.4756 28.32 20.7312 28.6308 21.0564C28.9428 21.3828 29.184 21.7716 29.3544 22.2216C29.526 22.6728 29.6112 23.1672 29.6112 23.7072ZM28.6104 23.7072C28.6104 23.2644 28.5504 22.8672 28.4292 22.5168C28.3218 22.1874 28.1474 21.8838 27.9168 21.6252C27.6939 21.3808 27.4192 21.1894 27.1128 21.0648C26.7773 20.93 26.4184 20.8631 26.0568 20.868C25.6716 20.868 25.3224 20.934 25.0068 21.0648C24.7 21.1893 24.4249 21.3808 24.2016 21.6252C23.9784 21.8676 23.8068 22.1652 23.6856 22.5168C23.5656 22.8684 23.5044 23.2644 23.5044 23.7072C23.5044 24.1488 23.5656 24.5448 23.6856 24.8952C23.8068 25.2444 23.9772 25.5408 24.2016 25.7844C24.4236 26.028 24.6924 26.2128 25.0068 26.3412C25.3224 26.4708 25.6716 26.5356 26.0568 26.5356C26.4444 26.5356 26.7972 26.4708 27.1128 26.3412C27.4272 26.2128 27.6948 26.0268 27.9168 25.7844C28.1388 25.5408 28.308 25.2444 28.4292 24.8952C28.5516 24.5448 28.6104 24.1488 28.6104 23.7072Z" fill="black"/>
<path d="M32.9732 30.156C33.0296 30.156 33.0752 30.1728 33.1088 30.2064C33.1253 30.2234 33.1383 30.2435 33.147 30.2655C33.1556 30.2876 33.1598 30.3111 33.1592 30.3348V30.6516H30.3584V30.4728C30.3602 30.3888 30.3947 30.3087 30.4544 30.2496L31.7984 28.8996C31.91 28.7856 32.0108 28.6776 32.1032 28.572C32.1944 28.4676 32.2724 28.3632 32.3372 28.2564C32.402 28.1508 32.45 28.044 32.486 27.936C32.5218 27.8235 32.5396 27.7061 32.5388 27.588C32.5413 27.4775 32.5213 27.3677 32.48 27.2652C32.4458 27.1778 32.3921 27.0993 32.3231 27.0357C32.2541 26.9721 32.1715 26.925 32.0816 26.898C31.8892 26.8357 31.6819 26.8365 31.49 26.9004C31.3185 26.9582 31.1725 27.0741 31.0772 27.228C31.0303 27.3059 30.9967 27.3911 30.9776 27.48C30.9548 27.5484 30.9224 27.594 30.8828 27.6168C30.842 27.6396 30.7868 27.6456 30.7136 27.636L30.4412 27.588C30.4688 27.3972 30.5216 27.228 30.602 27.0804C30.68 26.934 30.7808 26.8104 30.9008 26.7096C31.0208 26.6112 31.1576 26.5356 31.3112 26.4828C31.466 26.4312 31.6328 26.406 31.8128 26.406C31.9904 26.406 32.156 26.4324 32.3096 26.484C32.4572 26.5301 32.5932 26.6074 32.7085 26.7104C32.8238 26.8135 32.9157 26.9401 32.978 27.0816C33.0446 27.2369 33.0774 27.4046 33.074 27.5736C33.074 27.7296 33.0512 27.876 33.0044 28.008C32.9573 28.1426 32.8936 28.2708 32.8148 28.3896C32.7344 28.512 32.642 28.6296 32.5376 28.7448C32.4332 28.86 32.3216 28.9764 32.2052 29.094L31.0976 30.2232C31.1756 30.2028 31.2548 30.1848 31.3352 30.1728C31.4144 30.1596 31.4924 30.1536 31.5668 30.1536H32.9732V30.156Z" fill="black"/>
</svg>
