<svg width="38" height="38" viewBox="0 0 38 38" fill="none" xmlns="http://www.w3.org/2000/svg">
<path d="M33.6344 27.8078C32.4611 26.6336 31.0901 25.6752 29.5844 24.9765C31.7078 23.2562 33.0625 20.6312 33.0625 17.6875C33.0625 12.4937 28.7312 8.23281 23.5375 8.3125C18.4234 8.39218 14.3031 12.5594 14.3031 17.6875C14.3031 20.6312 15.6625 23.2562 17.7812 24.9765C16.2752 25.6747 14.9042 26.6331 13.7312 27.8078C11.1719 30.3719 9.71875 33.7562 9.625 37.3656C9.62374 37.4156 9.63252 37.4654 9.65081 37.512C9.66909 37.5586 9.69651 37.601 9.73146 37.6368C9.76641 37.6727 9.80817 37.7011 9.85429 37.7206C9.90041 37.74 9.94995 37.75 10 37.75H12.625C12.8266 37.75 12.9953 37.5906 13 37.389C13.0891 34.6703 14.1906 32.125 16.1266 30.1937C17.1172 29.1978 18.2956 28.4083 19.5934 27.8708C20.8912 27.3333 22.2828 27.0586 23.6875 27.0625C26.5422 27.0625 29.2281 28.1734 31.2484 30.1937C33.1797 32.125 34.2812 34.6703 34.375 37.389C34.3797 37.5906 34.5484 37.75 34.75 37.75H37.375C37.425 37.75 37.4746 37.74 37.5207 37.7206C37.5668 37.7011 37.6086 37.6727 37.6435 37.6368C37.6785 37.601 37.7059 37.5586 37.7242 37.512C37.7425 37.4654 37.7513 37.4156 37.75 37.3656C37.6562 33.7562 36.2031 30.3719 33.6344 27.8078ZM23.6875 23.6875C22.0844 23.6875 20.575 23.064 19.4453 21.9297C18.8784 21.3672 18.4305 20.6963 18.1285 19.957C17.8265 19.2177 17.6765 18.4251 17.6875 17.6266C17.7016 16.0891 18.3156 14.6031 19.3891 13.5016C20.5141 12.3484 22.0187 11.7062 23.6266 11.6875C25.2156 11.6734 26.7578 12.2922 27.8922 13.4031C29.0547 14.5422 29.6922 16.0656 29.6922 17.6875C29.6922 19.2906 29.0687 20.7953 27.9344 21.9297C27.3778 22.4889 26.7159 22.9322 25.987 23.2339C25.258 23.5356 24.4764 23.6898 23.6875 23.6875ZM11.9453 18.925C11.9031 18.5172 11.8797 18.1047 11.8797 17.6875C11.8797 16.9422 11.95 16.2156 12.0812 15.5078C12.1141 15.3391 12.025 15.1656 11.8703 15.0953C11.2328 14.8094 10.6469 14.4156 10.1406 13.9187C9.54409 13.3403 9.07468 12.6439 8.76233 11.874C8.44999 11.104 8.30157 10.2774 8.32656 9.44687C8.36874 7.94218 8.97343 6.5125 10.0281 5.43437C11.1859 4.24844 12.7422 3.60156 14.3969 3.62031C15.8922 3.63437 17.3359 4.21094 18.4281 5.23281C18.7984 5.57969 19.1172 5.96406 19.3844 6.37656C19.4781 6.52187 19.6609 6.58281 19.8203 6.52656C20.6453 6.24062 21.5172 6.03906 22.4125 5.94531C22.675 5.91718 22.825 5.63593 22.7078 5.40156C21.1844 2.3875 18.0719 0.306251 14.4719 0.250001C9.27343 0.170314 4.94218 4.43125 4.94218 9.62031C4.94218 12.5641 6.29687 15.1891 8.42031 16.9094C6.92968 17.5984 5.55625 18.55 4.36562 19.7406C1.79687 22.3047 0.343745 25.689 0.249995 29.3031C0.248744 29.3531 0.257519 29.4029 0.275804 29.4495C0.294088 29.4961 0.321512 29.5385 0.35646 29.5744C0.391407 29.6102 0.433171 29.6386 0.47929 29.6581C0.525409 29.6775 0.574951 29.6875 0.624995 29.6875H3.25468C3.45625 29.6875 3.625 29.5281 3.62968 29.3265C3.71875 26.6078 4.82031 24.0625 6.75625 22.1312C8.13437 20.7531 9.82187 19.7969 11.6641 19.3328C11.8469 19.2859 11.9687 19.1125 11.9453 18.925Z" fill="#38A169"/>
</svg>
