<svg width="49" height="48" viewBox="0 0 49 48" fill="none" xmlns="http://www.w3.org/2000/svg">
<g clip-path="url(#clip0_33_1175)">
<path d="M48.0107 20C48.0101 17.3513 47.024 14.7976 45.2444 12.8358C43.4647 10.8741 41.0189 9.64458 38.3827 9.38667C37.1894 4.01733 32.4067 0 26.6774 0C20.0494 0 14.6774 4.74667 14.6774 11.3747C14.6774 12.916 15.0107 15.2493 16.1721 16.4213C11.8227 16.6667 5.46941 16.8 0.0107422 16.02C0.0107422 16.02 6.43208 21.128 20.4867 21.3333C20.2854 21.7507 20.1481 23.24 20.0787 23.7147C19.7467 23.7187 19.2854 23.7267 18.6774 23.7267C8.01074 23.7267 0.0107422 22.6667 0.0107422 22.6667C0.0107422 22.6667 4.01074 26.9787 20.5521 28.1413C20.0107 28.312 20.0107 30.6667 20.0107 30.6667C9.34408 30.6667 0.0107422 29.3333 0.0107422 29.3333C4.49341 33.0693 8.97608 34.7107 12.0507 35.432C12.0361 35.6213 12.0107 35.8067 12.0107 36C12.0107 40.4173 15.5921 42.6667 20.0107 42.6667C20.6453 42.6645 21.2773 42.5866 21.8934 42.4347C22.9741 44.1398 24.4683 45.5441 26.2371 46.517C28.0059 47.49 29.992 48.0001 32.0107 48C35.1933 48 38.2456 46.7357 40.496 44.4853C42.7465 42.2348 44.0107 39.1826 44.0107 36C44.0118 33.7059 43.3512 31.4601 42.1081 29.532C43.8807 28.6489 45.3721 27.2891 46.4148 25.6053C47.4574 23.9215 48.0101 21.9805 48.0107 20Z" fill="#DEE7ED"/>
</g>
<defs>
<clipPath id="clip0_33_1175">
<rect width="48" height="48" fill="white" transform="translate(0.0107422)"/>
</clipPath>
</defs>
</svg>
