<svg width="39" height="40" viewBox="0 0 39 40" fill="none" xmlns="http://www.w3.org/2000/svg">
<path d="M10.8 6.7998C10.08 6.7998 9.6 7.5198 9.6 7.9998V13.9998H7.2V7.9998C7.2 7.2798 6.72 6.7998 6 6.7998C5.28 6.7998 4.8 7.5198 4.8 7.9998V13.9998H2.4V7.9998C2.4 7.2798 1.92 6.7998 1.2 6.7998C0.48 6.7998 0 7.5198 0 7.9998V15.9198C0 18.0798 1.68 19.7598 3.6 19.9998V36.7998C3.6 38.2398 4.56 39.1998 6 39.1998C7.44 39.1998 8.4 38.2398 8.4 36.7998V19.9998C10.32 19.7598 12 18.0798 12 15.9198V7.9998C12 7.5198 11.52 6.7998 10.8 6.7998ZM15.6 7.9998V22.3998H18V36.7998C18 38.2398 18.96 39.1998 20.4 39.1998C21.84 39.1998 22.8 38.2398 22.8 36.7998V0.799805C18.72 0.799805 15.6 3.9198 15.6 7.9998ZM32.4 5.5998C29.04 5.5998 26.4 9.1998 26.4 13.5198C26.16 16.3998 27.6 19.0398 30 20.7198V36.7998C30 38.2398 30.96 39.1998 32.4 39.1998C33.84 39.1998 34.8 38.2398 34.8 36.7998V20.7198C37.2 19.0398 38.64 16.3998 38.4 13.5198C38.4 9.1998 35.76 5.5998 32.4 5.5998Z" fill="#3182CE"/>
</svg>
