<svg width="34" height="42" viewBox="0 0 34 42" fill="none" xmlns="http://www.w3.org/2000/svg">
<path d="M33.0594 10.5281L22.9719 0.440625C22.6906 0.159375 22.3109 0 21.9125 0H2C1.17031 0 0.5 0.670312 0.5 1.5V40.5C0.5 41.3297 1.17031 42 2 42H32C32.8297 42 33.5 41.3297 33.5 40.5V11.5922C33.5 11.1937 33.3406 10.8094 33.0594 10.5281ZM30.0406 12.2812H21.2188V3.45938L30.0406 12.2812ZM30.125 38.625H3.875V3.375H18.0312V13.5C18.0312 14.0221 18.2387 14.5229 18.6079 14.8921C18.9771 15.2613 19.4779 15.4688 20 15.4688H30.125V38.625Z" fill="#38A169"/>
</svg>
