<svg width="33" height="42" viewBox="0 0 33 42" fill="none" xmlns="http://www.w3.org/2000/svg">
<path d="M31.761 2.97576C32.1401 2.89364 32.4726 2.66787 32.6888 2.34583C32.905 2.02379 32.988 1.63053 32.9205 1.24858C32.853 0.866631 32.6401 0.525693 32.3266 0.297323C32.0131 0.0689536 31.6233 -0.0290925 31.239 0.0237634L18.489 2.27376C18.1971 2.32542 17.927 2.46241 17.7129 2.66744C17.4988 2.87248 17.3502 3.13636 17.286 3.42576L16.716 5.99976H1.5C1.10218 5.99976 0.720645 6.1578 0.43934 6.4391C0.158036 6.72041 0 7.10194 0 7.49976V16.4998C0 18.0911 0.632141 19.6172 1.75736 20.7424C2.88258 21.8676 4.4087 22.4998 6 22.4998C5.99956 24.628 6.75334 26.6876 8.1275 28.3127C9.50166 29.9379 11.4073 31.0235 13.506 31.3768C13.5023 31.4177 13.5003 31.4587 13.5 31.4998V38.9998H7.5C7.10218 38.9998 6.72064 39.1578 6.43934 39.4391C6.15804 39.7204 6 40.1019 6 40.4998C6 40.8976 6.15804 41.2791 6.43934 41.5604C6.72064 41.8417 7.10218 41.9998 7.5 41.9998H22.5C22.8978 41.9998 23.2794 41.8417 23.5607 41.5604C23.842 41.2791 24 40.8976 24 40.4998C24 40.1019 23.842 39.7204 23.5607 39.4391C23.2794 39.1578 22.8978 38.9998 22.5 38.9998H16.5V31.4998C16.4997 31.4587 16.4977 31.4177 16.494 31.3768C18.5927 31.0235 20.4983 29.9379 21.8725 28.3127C23.2467 26.6876 24.0004 24.628 24 22.4998C25.5913 22.4998 27.1174 21.8676 28.2426 20.7424C29.3679 19.6172 30 18.0911 30 16.4998V7.49976C30 7.10194 29.842 6.72041 29.5607 6.4391C29.2794 6.1578 28.8978 5.99976 28.5 5.99976H19.788L19.998 5.05176L31.761 2.97576ZM16.047 8.99976L15.381 11.9998H3V8.99976H16.047ZM27 11.9998H18.453L19.119 8.99976H27V11.9998Z" fill="#3182CE"/>
</svg>
