<svg width="80" height="80" viewBox="0 0 80 80" fill="none" xmlns="http://www.w3.org/2000/svg">
<path d="M61.2499 75.0001C58.8364 75.1388 56.4319 74.6019 54.3066 73.4499C52.1812 72.2978 50.419 70.5761 49.2179 68.4781C48.0167 66.3801 47.4241 63.9888 47.5066 61.5727C47.5891 59.1566 48.3434 56.8113 49.6849 54.8001L58.7249 41.3451C59.0032 40.9311 59.3791 40.5918 59.8194 40.3572C60.2598 40.1227 60.751 40 61.2499 40C61.7488 40 62.24 40.1227 62.6804 40.3572C63.1207 40.5918 63.4966 40.9311 63.7749 41.3451L72.6499 54.5376C74.1179 56.7097 74.9334 59.2567 74.9999 61.8776C74.9108 65.4391 73.4135 68.8201 70.8362 71.2798C68.2589 73.7395 64.8117 75.0773 61.2499 75.0001ZM61.2499 46.5501L53.9099 57.4676C53.0461 58.7231 52.5578 60.1987 52.5023 61.7216C52.4468 63.2446 52.8264 64.7518 53.5966 66.0668C54.3667 67.3818 55.4956 68.4502 56.8511 69.1468C58.2065 69.8434 59.7323 70.1394 61.2499 70.0001C63.4859 70.0779 65.6617 69.267 67.3014 67.7449C68.9411 66.2227 69.9114 64.1132 69.9999 61.8776C69.942 60.2013 69.3945 58.5787 68.4249 57.2101L61.2499 46.5501Z" fill="white"/>
<path d="M27.5 40V27.5H30C32.6511 27.4967 35.1928 26.4421 37.0674 24.5674C38.9421 22.6928 39.9967 20.1511 40 17.5V10H32.5C29.94 10.0042 27.4801 10.9955 25.6325 12.7675C24.3379 10.4169 22.4367 8.45646 20.127 7.09032C17.8173 5.72418 15.1835 5.00235 12.5 5H5V12.5C5.00463 16.4768 6.58647 20.2894 9.39851 23.1015C12.2106 25.9135 16.0232 27.4954 20 27.5H22.5V40H5V45H40V40H27.5ZM32.5 15H35V17.5C34.9987 18.8257 34.4715 20.0967 33.5341 21.0341C32.5967 21.9715 31.3257 22.4987 30 22.5H27.5V20C27.5013 18.6743 28.0285 17.4033 28.9659 16.4659C29.9033 15.5285 31.1743 15.0013 32.5 15ZM20 22.5C17.3489 22.4967 14.8072 21.4421 12.9326 19.5674C11.0579 17.6928 10.0033 15.1511 10 12.5V10H12.5C15.1511 10.0033 17.6928 11.0579 19.5674 12.9326C21.4421 14.8072 22.4967 17.3489 22.5 20V22.5H20Z" fill="white"/>
<path d="M5 52.5H40V57.5H5V52.5Z" fill="white"/>
<path d="M5 65H40V70H5V65Z" fill="white"/>
</svg>
