<svg width="48" height="48" viewBox="0 0 48 48" fill="none" xmlns="http://www.w3.org/2000/svg">
<path d="M16 41C12.8174 41 9.76515 39.7357 7.51472 37.4853C5.26428 35.2348 4 32.1826 4 29C4 22.372 10 11 16 11C22 11 28 22.372 28 29C28 32.1826 26.7357 35.2348 24.4853 37.4853C22.2348 39.7357 19.1826 41 16 41ZM29.224 36.678C31.0219 34.5239 32.0046 31.8058 32 29C32 23.964 28.536 16.19 24.24 12.746C26.426 9.454 29.214 7 32 7C38 7 44 18.372 44 25C44.0005 26.8122 43.5906 28.601 42.801 30.2322C42.0113 31.8633 40.8625 33.2945 39.4407 34.4182C38.0189 35.5418 36.3611 36.3289 34.5917 36.7203C32.8222 37.1117 30.9871 37.0972 29.224 36.678Z" fill="#3182CE"/>
</svg>
