<svg width="40" height="40" viewBox="0 0 40 40" fill="none" xmlns="http://www.w3.org/2000/svg">
<path d="M39.0173 2.9752L37.0298 0.987696C36.9548 0.912695 36.861 0.879883 36.7626 0.879883C36.6642 0.879883 36.5704 0.917383 36.4954 0.987696L32.9282 4.55488C31.3775 3.5042 29.5467 2.94401 27.6735 2.94707C25.2735 2.94707 22.8735 3.86113 21.0407 5.69395L16.2642 10.4705C16.1944 10.541 16.1552 10.6362 16.1552 10.7354C16.1552 10.8345 16.1944 10.9297 16.2642 11.0002L29.0001 23.7361C29.0751 23.8111 29.1689 23.844 29.2673 23.844C29.361 23.844 29.4595 23.8065 29.5345 23.7361L34.311 18.9596C37.5407 15.7252 37.9204 10.7236 35.4501 7.07676L39.0173 3.50957C39.1626 3.35957 39.1626 3.12051 39.0173 2.9752ZM23.136 21.6268C23.0656 21.557 22.9704 21.5178 22.8712 21.5178C22.772 21.5178 22.6768 21.557 22.6064 21.6268L19.4845 24.7486L15.2517 20.5158L18.3782 17.3893C18.5235 17.244 18.5235 17.0049 18.3782 16.8596L16.672 15.1533C16.6015 15.0835 16.5063 15.0444 16.4071 15.0444C16.3079 15.0444 16.2128 15.0835 16.1423 15.1533L13.0157 18.2799L11.0001 16.2643C10.9651 16.2292 10.9234 16.2016 10.8775 16.1831C10.8316 16.1646 10.7824 16.1555 10.7329 16.1565C10.6392 16.1565 10.5407 16.194 10.4657 16.2643L5.69385 21.0408C2.46416 24.2705 2.08448 29.2768 4.55479 32.9237L0.9876 36.4908C0.917811 36.5613 0.878662 36.6565 0.878662 36.7557C0.878662 36.8549 0.917811 36.95 0.9876 37.0205L2.9751 39.008C3.0501 39.083 3.14385 39.1158 3.24229 39.1158C3.34073 39.1158 3.43448 39.0783 3.50948 39.008L7.07666 35.4408C8.65635 36.5143 10.4939 37.0487 12.3314 37.0487C14.7314 37.0487 17.1314 36.1346 18.9642 34.3018L23.7407 29.5252C23.886 29.3799 23.886 29.1408 23.7407 28.9955L21.7251 26.9799L24.8517 23.8533C24.997 23.708 24.997 23.469 24.8517 23.3236L23.136 21.6268Z" fill="#3182CE"/>
</svg>
