<svg width="42" height="38" viewBox="0 0 42 38" fill="none" xmlns="http://www.w3.org/2000/svg">
<path d="M40.35 13.075C39.2959 10.5799 37.7676 8.313 35.85 6.4C33.937 4.48238 31.6701 2.95415 29.175 1.9C26.5828 0.803125 23.8359 0.25 21 0.25C18.1641 0.25 15.4172 0.803125 12.825 1.9C10.3299 2.95415 8.063 4.48238 6.15 6.4C4.23238 8.313 2.70415 10.5799 1.65 13.075C0.553125 15.6672 0 18.4141 0 21.25C0 27.4703 2.73281 33.3297 7.49531 37.3328L7.575 37.3984C7.84688 37.6234 8.18906 37.75 8.54062 37.75H33.4641C33.8156 37.75 34.1578 37.6234 34.4297 37.3984L34.5094 37.3328C39.2672 33.3297 42 27.4703 42 21.25C42 18.4141 41.4422 15.6672 40.35 13.075ZM32.6906 34.1875H9.30938C7.49811 32.5543 6.05048 30.5586 5.06042 28.3298C4.07037 26.1009 3.56002 23.6888 3.5625 21.25C3.5625 16.5906 5.37656 12.2125 8.67188 8.92188C11.9672 5.62656 16.3453 3.8125 21 3.8125C25.6594 3.8125 30.0375 5.62656 33.3281 8.92188C36.6234 12.2172 38.4375 16.5953 38.4375 21.25C38.4375 26.2 36.3516 30.8828 32.6906 34.1875ZM26.2266 14.7578C26.1561 14.688 26.0609 14.6489 25.9617 14.6489C25.8625 14.6489 25.7674 14.688 25.6969 14.7578L21.7359 18.7188C20.8594 18.4844 19.8891 18.7094 19.2 19.3984C18.9559 19.642 18.7623 19.9314 18.6302 20.2499C18.4981 20.5684 18.4301 20.9099 18.4301 21.2547C18.4301 21.5995 18.4981 21.941 18.6302 22.2595C18.7623 22.578 18.9559 22.8673 19.2 23.1109C19.4436 23.355 19.7329 23.5486 20.0515 23.6807C20.37 23.8128 20.7114 23.8808 21.0563 23.8809C21.4011 23.8808 21.7425 23.8128 22.061 23.6807C22.3796 23.5486 22.6689 23.355 22.9125 23.1109C23.239 22.7855 23.4737 22.3796 23.5931 21.9343C23.7124 21.489 23.7121 21.0201 23.5922 20.575L27.5531 16.6141C27.6984 16.4688 27.6984 16.2297 27.5531 16.0844L26.2266 14.7578ZM19.9688 10H22.0312C22.2375 10 22.4062 9.83125 22.4062 9.625V5.875C22.4062 5.66875 22.2375 5.5 22.0312 5.5H19.9688C19.7625 5.5 19.5938 5.66875 19.5938 5.875V9.625C19.5938 9.83125 19.7625 10 19.9688 10ZM32.1562 20.2188V22.2812C32.1562 22.4875 32.325 22.6562 32.5312 22.6562H36.2812C36.4875 22.6562 36.6562 22.4875 36.6562 22.2812V20.2188C36.6562 20.0125 36.4875 19.8438 36.2812 19.8438H32.5312C32.325 19.8438 32.1562 20.0125 32.1562 20.2188ZM32.7516 10.975L31.2937 9.51719C31.2233 9.4474 31.1281 9.40825 31.0289 9.40825C30.9297 9.40825 30.8345 9.4474 30.7641 9.51719L28.1109 12.1703C28.0411 12.2408 28.002 12.336 28.002 12.4352C28.002 12.5343 28.0411 12.6295 28.1109 12.7L29.5687 14.1578C29.7141 14.3031 29.9531 14.3031 30.0984 14.1578L32.7516 11.5047C32.8969 11.3594 32.8969 11.1203 32.7516 10.975ZM11.2547 9.51719C11.1842 9.4474 11.089 9.40825 10.9898 9.40825C10.8907 9.40825 10.7955 9.4474 10.725 9.51719L9.26719 10.975C9.1974 11.0455 9.15825 11.1407 9.15825 11.2398C9.15825 11.339 9.1974 11.4342 9.26719 11.5047L11.9203 14.1578C12.0656 14.3031 12.3047 14.3031 12.45 14.1578L13.9078 12.7C14.0531 12.5547 14.0531 12.3156 13.9078 12.1703L11.2547 9.51719ZM9.28125 19.8438H5.53125C5.325 19.8438 5.15625 20.0125 5.15625 20.2188V22.2812C5.15625 22.4875 5.325 22.6562 5.53125 22.6562H9.28125C9.4875 22.6562 9.65625 22.4875 9.65625 22.2812V20.2188C9.65625 20.0125 9.4875 19.8438 9.28125 19.8438Z" fill="#38A169"/>
</svg>
