<svg width="49" height="48" viewBox="0 0 49 48" fill="none" xmlns="http://www.w3.org/2000/svg">
<path d="M24.0104 48C36.5289 48 46.6771 37.8518 46.6771 25.3333C46.6771 12.8149 36.5289 2.66667 24.0104 2.66667C11.492 2.66667 1.34375 12.8149 1.34375 25.3333C1.34375 37.8518 11.492 48 24.0104 48Z" fill="#F4900C"/>
<path d="M24.0104 45.3333C36.5289 45.3333 46.6771 35.1851 46.6771 22.6667C46.6771 10.1482 36.5289 0 24.0104 0C11.492 0 1.34375 10.1482 1.34375 22.6667C1.34375 35.1851 11.492 45.3333 24.0104 45.3333Z" fill="#FFCC4D"/>
<path d="M24.0104 42.6667C34.3197 42.6667 42.6771 34.3093 42.6771 24C42.6771 13.6907 34.3197 5.33333 24.0104 5.33333C13.7011 5.33333 5.34375 13.6907 5.34375 24C5.34375 34.3093 13.7011 42.6667 24.0104 42.6667Z" fill="#FFE8B6"/>
<path d="M24.0104 41.3333C34.3197 41.3333 42.6771 32.976 42.6771 22.6667C42.6771 12.3574 34.3197 4 24.0104 4C13.7011 4 5.34375 12.3574 5.34375 22.6667C5.34375 32.976 13.7011 41.3333 24.0104 41.3333Z" fill="#FFAC33"/>
<path d="M12.7344 14.4747C12.7344 13.748 13.4477 13.4573 13.4477 13.4573L23.9517 8.524L34.5557 13.4573C34.5557 13.4573 35.2864 13.62 35.2864 14.48V15.3347H12.7344V14.4747Z" fill="#FFE8B6"/>
<path d="M34.5825 17.1147C34.5825 16.336 33.9092 15.7053 33.0799 15.7053H14.8492C14.0185 15.7053 13.4399 16.336 13.4399 17.1147C13.4399 17.644 13.7119 18.1 14.1452 18.3413V19.2293H16.9639V18.524H19.7825V19.2293H22.6012V18.524H25.4199V19.2293H28.2385V18.524H31.0572V19.2293H33.8772V18.3053C34.2999 18.0547 34.5825 17.616 34.5825 17.1147ZM36.6959 32C36.6959 32.2804 36.5845 32.5494 36.3862 32.7477C36.1879 32.9459 35.919 33.0573 35.6385 33.0573H12.3825C12.1021 33.0573 11.8332 32.9459 11.6349 32.7477C11.4366 32.5494 11.3252 32.2804 11.3252 32C11.3252 31.7196 11.4366 31.4506 11.6349 31.2524C11.8332 31.0541 12.1021 30.9427 12.3825 30.9427H35.6399C36.2225 30.9427 36.6959 31.416 36.6959 32Z" fill="#F4900C"/>
<path d="M35.2867 16.2667C35.2867 16.4537 35.2124 16.6331 35.0801 16.7654C34.9478 16.8977 34.7684 16.972 34.5813 16.972H13.4387C13.2591 16.961 13.0905 16.8818 12.9673 16.7508C12.844 16.6197 12.7754 16.4466 12.7754 16.2667C12.7754 16.0868 12.844 15.9136 12.9673 15.7826C13.0905 15.6515 13.2591 15.5724 13.4387 15.5613L34.5813 15.5653C34.6737 15.565 34.7653 15.5829 34.8507 15.6179C34.9362 15.653 35.0139 15.7046 35.0794 15.7697C35.145 15.8349 35.197 15.9123 35.2325 15.9976C35.2681 16.0828 35.2865 16.1743 35.2867 16.2667ZM16.2587 17.0853H31.764V18.6667H16.2587V17.0853Z" fill="#F4900C"/>
<path d="M16.9626 27.772C16.9626 28.5507 16.5412 29.1813 16.0226 29.1813H15.0826C14.5639 29.1813 14.1426 28.5507 14.1426 27.772V17.0867C14.1426 16.308 14.5639 15.6773 15.0826 15.6773H16.0226C16.5412 15.6773 16.9626 16.308 16.9626 17.0867V27.772ZM33.8772 27.772C33.8772 28.5507 33.4572 29.1813 32.9372 29.1813H31.9972C31.4786 29.1813 31.0572 28.5507 31.0572 27.772V17.0867C31.0572 16.308 31.4772 15.6773 31.9972 15.6773H32.9372C33.4559 15.6773 33.8772 16.308 33.8772 17.0867V27.772ZM22.6012 27.772C22.6012 28.5507 22.1799 29.1813 21.6612 29.1813H20.7212C20.2026 29.1813 19.7812 28.5507 19.7812 27.772V17.0867C19.7812 16.308 20.2026 15.6773 20.7212 15.6773H21.6612C22.1799 15.6773 22.6012 16.308 22.6012 17.0867V27.772ZM28.2386 27.772C28.2386 28.5507 27.8172 29.1813 27.2986 29.1813H26.3599C25.8412 29.1813 25.4199 28.5507 25.4199 27.772V17.0867C25.4199 16.308 25.8412 15.6773 26.3599 15.6773H27.2986C27.8172 15.6773 28.2386 16.308 28.2386 17.0867V27.772Z" fill="#FFD983"/>
<path d="M34.5831 28.476C34.5831 29.2547 33.9524 29.8853 33.1738 29.8853H14.8498C14.476 29.8853 14.1175 29.7369 13.8532 29.4726C13.5889 29.2082 13.4404 28.8498 13.4404 28.476C13.4404 28.1022 13.5889 27.7438 13.8532 27.4795C14.1175 27.2152 14.476 27.0667 14.8498 27.0667H33.1738C33.9511 27.0667 34.5831 27.6973 34.5831 28.476Z" fill="#FFCC4D"/>
<path d="M35.992 29.8853C35.992 30.664 35.3613 31.2947 34.5826 31.2947H13.4386C13.0649 31.2947 12.7064 31.1462 12.4421 30.8819C12.1778 30.6176 12.0293 30.2591 12.0293 29.8853C12.0293 29.5116 12.1778 29.1531 12.4421 28.8888C12.7064 28.6245 13.0649 28.476 13.4386 28.476H34.5813C35.36 28.476 35.992 29.1067 35.992 29.8853Z" fill="#FFD983"/>
<path d="M36.6959 30.9427C36.6959 31.2231 36.5845 31.492 36.3862 31.6903C36.1879 31.8886 35.919 32 35.6385 32H12.3825C12.2437 32 12.1062 31.9726 11.9779 31.9195C11.8496 31.8664 11.7331 31.7885 11.6349 31.6903C11.5367 31.5921 11.4588 31.4756 11.4057 31.3473C11.3525 31.219 11.3252 31.0815 11.3252 30.9427C11.3252 30.8038 11.3525 30.6663 11.4057 30.538C11.4588 30.4098 11.5367 30.2932 11.6349 30.195C11.7331 30.0968 11.8496 30.019 11.9779 29.9658C12.1062 29.9127 12.2437 29.8853 12.3825 29.8853H35.6399C36.2225 29.8853 36.6959 30.3587 36.6959 30.9427Z" fill="#FFD983"/>
<path d="M34.5831 16.3813C34.5831 15.6027 33.9098 14.972 33.0804 14.972H14.8498C14.0191 14.972 13.4404 15.6027 13.4404 16.3813C13.4404 16.9107 13.7124 17.3667 14.1458 17.608V18.496H16.9644V17.7907H19.7831V18.496H22.6018V17.7907H25.4204V18.496H28.2391V17.7907H31.0578V18.496H33.8778V17.572C34.3004 17.3213 34.5831 16.8827 34.5831 16.3813Z" fill="#FFCC4D"/>
<path d="M12.7344 15.284C12.7344 14.5573 13.4477 14.2667 13.4477 14.2667L23.9517 9.33333L34.5557 14.2667C34.5557 14.2667 35.2864 14.4293 35.2864 15.2893V15.6773H12.7344V15.284Z" fill="#FFD983"/>
<path d="M24.0107 11.124C24.0107 11.124 16.7374 14.552 16.0121 14.8613C15.2854 15.1693 15.5281 15.676 16.0134 15.676H31.9734C32.7227 15.676 32.5454 15.104 31.9507 14.7947C31.3561 14.4867 24.0107 11.124 24.0107 11.124Z" fill="#FFAC33"/>
<path d="M35.2867 15.676C35.2867 15.8631 35.2124 16.0425 35.0801 16.1748C34.9478 16.307 34.7684 16.3813 34.5813 16.3813H13.4387C13.2591 16.3703 13.0905 16.2912 12.9673 16.1601C12.844 16.029 12.7754 15.8559 12.7754 15.676C12.7754 15.4961 12.844 15.323 12.9673 15.1919C13.0905 15.0608 13.2591 14.9817 13.4387 14.9707L34.5813 14.9747C34.6737 14.9743 34.7653 14.9922 34.8507 15.0273C34.9362 15.0623 35.0139 15.1139 35.0794 15.1791C35.145 15.2442 35.197 15.3216 35.2325 15.4069C35.2681 15.4922 35.2865 15.5836 35.2867 15.676Z" fill="#FFD983"/>
</svg>
