<svg width="48" height="48" viewBox="0 0 48 48" fill="none" xmlns="http://www.w3.org/2000/svg">
<path d="M48 44.6667C48 45.1971 47.7893 45.7058 47.4142 46.0809C47.0391 46.456 46.5304 46.6667 46 46.6667H2C1.46957 46.6667 0.960859 46.456 0.585786 46.0809C0.210714 45.7058 0 45.1971 0 44.6667C0 44.1362 0.210714 43.6275 0.585786 43.2525C0.960859 42.8774 1.46957 42.6667 2 42.6667H46C46.5304 42.6667 47.0391 42.8774 47.4142 43.2525C47.7893 43.6275 48 44.1362 48 44.6667Z" fill="#5C913B"/>
<path d="M16.4583 19.6027H13.7917C13.6149 19.6027 13.4453 19.5324 13.3203 19.4074C13.1952 19.2824 13.125 19.1128 13.125 18.936V9.60267C13.125 9.42586 13.1952 9.25629 13.3203 9.13127C13.4453 9.00624 13.6149 8.936 13.7917 8.936H16.4583C16.6351 8.936 16.8047 9.00624 16.9297 9.13127C17.0548 9.25629 17.125 9.42586 17.125 9.60267V18.936C17.125 19.1128 17.0548 19.2824 16.9297 19.4074C16.8047 19.5324 16.6351 19.6027 16.4583 19.6027Z" fill="#A0041E"/>
<path d="M7.92278 42.6667C7.74011 36.4573 7.24811 32 6.66678 32C6.08678 32 5.59478 36.4573 5.41211 42.6667H7.92278Z" fill="#FFCC4D"/>
<path d="M13.3333 24.9747C13.3333 32.408 10.3493 34.6667 6.66667 34.6667C2.98533 34.6667 0 32.408 0 24.9747C0 17.5387 5.33333 6.66667 6.66667 6.66667C8 6.66667 13.3333 17.5387 13.3333 24.9747Z" fill="#77B255"/>
<path d="M10.667 21.3333L28.0003 4L45.3337 21.3333V42.6667H10.667V21.3333Z" fill="#FFE8B6"/>
<path d="M28 21.3333H29.3333V42.6667H28V21.3333Z" fill="#FFCC4D"/>
<path d="M45.3338 22.6667C45.1587 22.6668 44.9852 22.6324 44.8235 22.5654C44.6617 22.4983 44.5148 22.4 44.3911 22.276L28.0005 5.88533L11.6098 22.276C11.486 22.3998 11.339 22.498 11.1773 22.565C11.0155 22.632 10.8422 22.6665 10.6671 22.6665C10.492 22.6665 10.3187 22.632 10.1569 22.565C9.99521 22.498 9.84824 22.3998 9.72445 22.276C9.60066 22.1522 9.50246 22.0052 9.43546 21.8435C9.36847 21.6818 9.33398 21.5084 9.33398 21.3333C9.33398 21.1583 9.36847 20.9849 9.43546 20.8232C9.50246 20.6614 9.60066 20.5145 9.72445 20.3907L27.0578 3.05733C27.1815 2.9334 27.3284 2.83509 27.4902 2.76801C27.6519 2.70093 27.8253 2.6664 28.0005 2.6664C28.1756 2.6664 28.349 2.70093 28.5107 2.76801C28.6725 2.83509 28.8194 2.9334 28.9431 3.05733L46.2765 20.3907C46.4635 20.5769 46.591 20.8145 46.6428 21.0733C46.6946 21.3321 46.6684 21.6005 46.5674 21.8444C46.4663 22.0882 46.2952 22.2966 46.0755 22.443C45.8559 22.5894 45.5977 22.6672 45.3338 22.6667Z" fill="#66757F"/>
<path d="M28 22.6667C27.736 22.6672 27.4779 22.5894 27.2582 22.443C27.0386 22.2966 26.8674 22.0882 26.7664 21.8444C26.6654 21.6005 26.6391 21.3321 26.6909 21.0733C26.7427 20.8145 26.8702 20.5769 27.0573 20.3907L35.724 11.724C35.8478 11.6002 35.9947 11.502 36.1565 11.435C36.3182 11.368 36.4916 11.3335 36.6667 11.3335C36.8417 11.3335 37.0151 11.368 37.1768 11.435C37.3386 11.502 37.4855 11.6002 37.6093 11.724C37.7331 11.8478 37.8313 11.9947 37.8983 12.1565C37.9653 12.3182 37.9998 12.4916 37.9998 12.6667C37.9998 12.8417 37.9653 13.0151 37.8983 13.1768C37.8313 13.3386 37.7331 13.4855 37.6093 13.6093L28.9427 22.276C28.819 22.4 28.6721 22.4983 28.5103 22.5654C28.3485 22.6324 28.1751 22.6668 28 22.6667Z" fill="#66757F"/>
<path d="M17.333 34.6667H22.6663V42.6667H17.333V34.6667Z" fill="#C1694F"/>
<path d="M17.333 22.6667H22.6663V28H17.333V22.6667ZM33.9997 22.6667H39.333V28H33.9997V22.6667ZM33.9997 34.6667H39.333V40H33.9997V34.6667Z" fill="#55ACEE"/>
<path d="M14.1667 39.988C14.1667 42.1387 13.0227 42.792 11.6107 42.792C10.2 42.792 9.05469 42.1387 9.05469 39.988C9.05469 37.8373 11.0987 34.6907 11.6107 34.6907C12.1227 34.6907 14.1667 37.836 14.1667 39.988ZM47.8334 39.988C47.8334 42.1387 46.6894 42.792 45.2774 42.792C43.8667 42.792 42.7214 42.1387 42.7214 39.988C42.7214 37.8373 44.7654 34.6907 45.2774 34.6907C45.7894 34.6907 47.8334 37.836 47.8334 39.988Z" fill="#77B255"/>
</svg>
