<svg width="48" height="48" viewBox="0 0 48 48" fill="none" xmlns="http://www.w3.org/2000/svg">
<path d="M39.9996 31.7707C39.8761 31.8949 39.7292 31.9935 39.5674 32.0608C39.4057 32.1281 39.2322 32.1627 39.057 32.1627C38.8817 32.1627 38.7083 32.1281 38.5465 32.0608C38.3847 31.9935 38.2378 31.8949 38.1143 31.7707L36.229 29.8853C36.1047 29.7618 36.0061 29.6149 35.9388 29.4531C35.8716 29.2914 35.8369 29.1179 35.8369 28.9427C35.8369 28.7675 35.8716 28.594 35.9388 28.4322C36.0061 28.2704 36.1047 28.1235 36.229 28L39.9996 24.2293C40.1233 24.1054 40.2703 24.0071 40.432 23.94C40.5938 23.8729 40.7672 23.8384 40.9423 23.8384C41.1174 23.8384 41.2908 23.8729 41.4525 23.94C41.6143 24.0071 41.7612 24.1054 41.885 24.2293L43.7703 26.1147C43.8945 26.2382 43.9931 26.3851 44.0604 26.5469C44.1277 26.7086 44.1623 26.8821 44.1623 27.0573C44.1623 27.2325 44.1277 27.406 44.0604 27.5678C43.9931 27.7296 43.8945 27.8765 43.7703 28L39.9996 31.7707ZM19.9996 11.7707C19.8761 11.8949 19.7292 11.9935 19.5674 12.0608C19.4057 12.1281 19.2322 12.1627 19.057 12.1627C18.8818 12.1627 18.7083 12.1281 18.5465 12.0608C18.3847 11.9935 18.2378 11.8949 18.1143 11.7707L16.229 9.88533C16.1047 9.76179 16.0061 9.61491 15.9388 9.45313C15.8716 9.29136 15.8369 9.11787 15.8369 8.94266C15.8369 8.76745 15.8716 8.59397 15.9388 8.43219C16.0061 8.27041 16.1047 8.12353 16.229 8L19.9996 4.22933C20.1233 4.1054 20.2703 4.00708 20.432 3.94C20.5938 3.87292 20.7672 3.83839 20.9423 3.83839C21.1174 3.83839 21.2908 3.87292 21.4526 3.94C21.6143 4.00708 21.7612 4.1054 21.885 4.22933L23.7703 6.11466C23.8945 6.2382 23.9931 6.38508 24.0604 6.54686C24.1277 6.70864 24.1623 6.88212 24.1623 7.05733C24.1623 7.23254 24.1277 7.40602 24.0604 7.5678C23.9931 7.72958 23.8945 7.87646 23.7703 8L19.9996 11.7707Z" fill="#66757F"/>
<path d="M2.66715 29.3333C5.33381 29.3333 17.3338 30.6667 17.3338 30.6667C17.3338 30.6667 18.6671 42.6667 18.6671 45.3333C18.6671 48 16.0005 48 14.6671 46.6667C13.3338 45.3333 9.33381 38.6667 9.33381 38.6667C9.33381 38.6667 2.66715 34.6667 1.33381 33.3333C0.000480175 32 0.000480175 29.3333 2.66715 29.3333ZM5.33381 8.052C9.33381 8 38.6671 9.33334 38.6671 9.33334C38.6671 9.33334 39.8991 38.6667 39.9498 42.6667C40.0005 46.6667 36.2658 48.0027 34.8005 42.668C33.3351 37.3333 28.0005 20 28.0005 20C28.0005 20 9.39381 14.1107 5.32715 13.1973C0.000479996 12 1.33248 8.10267 5.33381 8.052Z" fill="#55ACEE"/>
<path d="M36 4C38.6666 1.33333 45.3333 -3.27826e-06 46.6666 1.33333C48 2.66666 46.6666 9.33333 44 12C41.3333 14.6667 18.6666 36 18.6666 36C18.6666 36 9.99996 42 7.99996 40C5.99996 38 12 29.3333 12 29.3333C12 29.3333 33.3333 6.66666 36 4Z" fill="#CCD6DD"/>
<path d="M18.6666 29.3333C18.6666 29.3333 19.3332 30 13.3332 36C7.33324 42 6.66657 41.3333 6.66657 41.3333C6.66657 41.3333 5.9999 40.6667 11.9999 34.6667C17.9999 28.6667 18.6666 29.3333 18.6666 29.3333ZM38.6666 5.33333C39.7274 5.33333 40.7449 5.75476 41.495 6.50491C42.2451 7.25505 42.6666 8.27247 42.6666 9.33333H43.7399C43.8919 8.91333 43.9999 8.47333 43.9999 8C43.9999 6.93913 43.5785 5.92172 42.8283 5.17157C42.0782 4.42143 41.0608 4 39.9999 4C39.5266 4 39.0866 4.108 38.6666 4.26V5.33333Z" fill="#66757F"/>
</svg>
