<svg width="49" height="48" viewBox="0 0 49 48" fill="none" xmlns="http://www.w3.org/2000/svg">
<g clip-path="url(#clip0_5_186)">
<path d="M48.0107 24C48.0107 37.2547 37.2654 48 24.0107 48C10.7574 48 0.0107422 37.2547 0.0107422 24C0.0107422 10.7467 10.7574 0 24.0107 0C37.2654 0 48.0107 10.7467 48.0107 24Z" fill="#FFCC4D"/>
<path d="M15.3441 26.6667C17.185 26.6667 18.6774 24.5773 18.6774 22C18.6774 19.4227 17.185 17.3333 15.3441 17.3333C13.5031 17.3333 12.0107 19.4227 12.0107 22C12.0107 24.5773 13.5031 26.6667 15.3441 26.6667Z" fill="#664500"/>
<path d="M32.6774 26.6667C34.5184 26.6667 36.0107 24.5773 36.0107 22C36.0107 19.4227 34.5184 17.3333 32.6774 17.3333C30.8365 17.3333 29.3441 19.4227 29.3441 22C29.3441 24.5773 30.8365 26.6667 32.6774 26.6667Z" fill="#664500"/>
<path d="M16.0107 37.3333C18.6774 30.6667 33.3441 30.6667 33.3441 33.3333C33.3441 34.6667 22.6774 32 16.0107 37.3333Z" fill="#664500"/>
</g>
<defs>
<clipPath id="clip0_5_186">
<rect width="48" height="48" fill="white" transform="translate(0.0107422)"/>
</clipPath>
</defs>
</svg>
