<svg width="48" height="48" viewBox="0 0 48 48" fill="none" xmlns="http://www.w3.org/2000/svg">
<path d="M48 24C48 37.2547 37.2547 48 24 48C10.7467 48 0 37.2547 0 24C0 10.7467 10.7467 0 24 0C37.2547 0 48 10.7467 48 24Z" fill="#FFCC4D"/>
<path d="M9.33331 28.3507C9.33331 33.636 15.4613 40.3507 24 40.3507C32.5386 40.3507 38.6666 33.684 38.6666 28.3507C38.6666 28.3507 24.8893 32.0253 9.33331 28.3507Z" fill="#664500"/>
<path d="M16 30.6707V39.952C16 43.952 18.6667 47.952 24 47.952C29.3333 47.952 32 43.952 32 39.952V30.7253C23.612 32.448 16 30.6707 16 30.6707V30.6707Z" fill="#5D9040"/>
<path d="M16.3787 16.44C15.3707 16.0507 14.4173 15.6827 14.4173 15.1493C14.4173 14.2707 15.596 14.2253 15.832 14.2253C16.6653 14.2253 17.08 14.5373 17.4453 14.8133C17.7253 15.0253 18.016 15.244 18.42 15.244C19.172 15.244 19.5147 14.7147 19.5147 14.2227C19.5147 13.2413 18.312 12.548 17.0373 12.2573V11.7333C17.0225 11.4113 16.8841 11.1073 16.6509 10.8847C16.4177 10.662 16.1077 10.5378 15.7853 10.5378C15.463 10.5378 15.153 10.662 14.9198 10.8847C14.6866 11.1073 14.5482 11.4113 14.5333 11.7333V12.3013C13.008 12.7453 12.0733 13.8667 12.0733 15.2813C12.0733 17.0293 13.7973 17.7467 15.3187 18.3787C16.408 18.832 17.4373 19.26 17.4373 19.928C17.4373 20.416 16.824 20.944 15.8333 20.944C14.8333 20.944 14.26 20.544 13.7533 20.192C13.404 19.948 13.0733 19.7173 12.6787 19.7173C12.1053 19.7173 11.6573 20.2 11.6573 20.816C11.6573 21.7213 12.8987 22.624 14.5333 22.9413V23.568C14.5333 23.9001 14.6653 24.2185 14.9001 24.4533C15.1348 24.6881 15.4533 24.82 15.7853 24.82C16.1174 24.82 16.4359 24.6881 16.6706 24.4533C16.9054 24.2185 17.0373 23.9001 17.0373 23.568L17.0307 22.904C18.7587 22.484 19.78 21.2747 19.78 19.6253C19.7813 17.7533 17.8947 17.0253 16.3787 16.44V16.44ZM35.592 19.648C35.592 17.776 33.7054 17.048 32.1894 16.4627C31.1814 16.0733 30.2294 15.7053 30.2294 15.172C30.2294 14.2933 31.408 14.248 31.644 14.248C32.4774 14.248 32.8907 14.56 33.2574 14.836C33.5387 15.048 33.828 15.2667 34.2307 15.2667C34.984 15.2667 35.3267 14.7373 35.3267 14.2453C35.3267 13.2627 34.124 12.5707 32.8493 12.28V11.7573C32.8387 11.4322 32.7021 11.1239 32.4684 10.8976C32.2346 10.6714 31.922 10.5449 31.5967 10.5449C31.2714 10.5449 30.9588 10.6714 30.725 10.8976C30.4913 11.1239 30.3546 11.4322 30.344 11.7573V12.3253C28.82 12.7693 27.884 13.8907 27.884 15.3053C27.884 17.0533 29.608 17.7707 31.1294 18.4027C32.2187 18.856 33.248 19.284 33.248 19.952C33.248 20.44 32.636 20.968 31.6453 20.968C30.6453 20.968 30.072 20.568 29.5667 20.216C29.216 19.972 28.8853 19.7413 28.492 19.7413C27.9173 19.7413 27.4693 20.224 27.4693 20.84C27.4693 21.7453 28.7107 22.648 30.344 22.9653V23.592C30.344 23.9242 30.476 24.2428 30.7109 24.4778C30.9458 24.7127 31.2645 24.8447 31.5967 24.8447C31.9289 24.8447 32.2475 24.7127 32.4825 24.4778C32.7174 24.2428 32.8493 23.9242 32.8493 23.592L32.8454 22.928C34.572 22.5053 35.592 21.2973 35.592 19.648V19.648Z" fill="#664500"/>
<path d="M27.96 41.4253C27.96 39.6013 26.1213 38.8907 24.644 38.32C23.6613 37.9413 22.732 37.5813 22.732 37.0627C22.732 36.2053 23.88 36.1627 24.1106 36.1627C24.9226 36.1627 25.3266 36.468 25.684 36.736C25.9573 36.9427 26.2413 37.156 26.6346 37.156C27.368 37.156 27.7026 36.6387 27.7026 36.16C27.7026 35.204 26.5306 34.528 25.2866 34.244V33.7333C25.272 33.4193 25.1369 33.123 24.9094 32.9059C24.682 32.6889 24.3797 32.5677 24.0653 32.5677C23.7509 32.5677 23.4486 32.6889 23.2212 32.9059C22.9937 33.123 22.8587 33.4193 22.844 33.7333V34.2867C21.3573 34.7187 20.4453 35.8133 20.4453 37.192C20.4453 38.896 22.1266 39.596 23.6093 40.212C24.672 40.6533 25.6746 41.0707 25.6746 41.7213C25.6746 42.1973 25.0773 42.712 24.1106 42.712C23.136 42.712 22.5773 42.3227 22.084 41.9773C21.744 41.74 21.4213 41.5147 21.0373 41.5147C20.4786 41.5147 20.04 41.9867 20.04 42.5867C20.04 43.4707 21.2493 44.3493 22.8426 44.6587V45.2707C22.8426 45.5946 22.9713 45.9052 23.2004 46.1343C23.4294 46.3633 23.7401 46.492 24.064 46.492C24.3879 46.492 24.6985 46.3633 24.9276 46.1343C25.1566 45.9052 25.2853 45.5946 25.2853 45.2707L25.2813 44.6227C26.9653 44.2107 27.96 43.032 27.96 41.4253V41.4253Z" fill="white"/>
</svg>
