<svg width="49" height="48" viewBox="0 0 49 48" fill="none" xmlns="http://www.w3.org/2000/svg">
<g clip-path="url(#clip0_5_187)">
<path d="M24.0107 48C37.2656 48 48.0107 37.2548 48.0107 24C48.0107 10.7452 37.2656 0 24.0107 0C10.7559 0 0.0107422 10.7452 0.0107422 24C0.0107422 37.2548 10.7559 48 24.0107 48Z" fill="#FFCC4D"/>
<path d="M18.7227 19.332C18.7227 21.9107 17.2307 23.9987 15.3894 23.9987C13.5481 23.9987 12.0561 21.9107 12.0561 19.332C12.0561 16.7547 13.5481 14.6653 15.3894 14.6653C17.2307 14.6653 18.7227 16.7547 18.7227 19.332ZM36.0561 19.332C36.0561 21.9107 34.5641 23.9987 32.7227 23.9987C30.8814 23.9987 29.3894 21.9107 29.3894 19.332C29.3894 16.7547 30.8814 14.6653 32.7227 14.6653C34.5641 14.6653 36.0561 16.7547 36.0561 19.332ZM33.3454 36.0053H13.3441C12.0107 36.0053 12.0107 34.672 12.0107 34.672V33.3387C12.0107 33.3387 12.0107 32.0013 13.3441 32.0013L33.3454 32.0053V36.0053Z" fill="#664500"/>
<path d="M47.0174 34.7787L36.7334 31.9507C35.7734 31.688 35.3347 32.3333 35.1721 32.68L32.9854 31.6347L32.0107 33.6733V30.668H29.3441V33.3347H26.6774V30.668H24.0094V33.3347H21.3441V30.668H18.6774V33.3347H16.0107V30.668H13.3441V34.668H16.0107V37.3347H18.6774V34.668H21.3427V37.3347H24.0094V34.668H26.6774V37.3347H29.3441V34.668H31.5347L30.7614 36.284L32.9587 37.3347L32.8267 37.6107C32.8267 37.6107 32.4961 38.5933 33.3241 39.3107C34.1521 40.0267 40.3707 45.624 40.3707 45.624C40.3707 45.624 41.5694 46.7787 42.7294 45.7293C43.7134 44.836 47.5947 37.7027 47.9481 36.4187C48.3027 35.1333 47.0174 34.7787 47.0174 34.7787ZM41.9881 42.8733L38.4627 39.876L40.6147 35.784L45.0654 37.2933L41.9881 42.8733Z" fill="#99AAB5"/>
</g>
<defs>
<clipPath id="clip0_5_187">
<rect width="48" height="48" fill="white" transform="translate(0.0107422)"/>
</clipPath>
</defs>
</svg>
