<svg width="48" height="48" viewBox="0 0 48 48" fill="none" xmlns="http://www.w3.org/2000/svg">
<path d="M46.6667 48V38.6667C46.6667 34.2467 41.7533 31.3333 37.3333 31.3333H21.3333C16.916 31.3333 12 34.2467 12 38.6667V48H46.6667Z" fill="#9266CC"/>
<path d="M29.259 2.092C34.7337 2.092 43.8564 4.82933 43.8564 16.6893C43.8564 28.5493 43.8564 31.2867 41.119 31.2867C38.3804 31.2867 34.7324 28.5493 29.2577 28.5493C23.7844 28.5493 20.2124 31.2867 17.3977 31.2867C14.3484 31.2867 14.6604 20.3387 14.6604 16.6893C14.663 4.82933 23.7857 2.092 29.259 2.092Z" fill="#292F33"/>
<path d="M24.4375 31.36C24.4375 33.3333 27.3335 34 29.3335 34C31.3335 34 34.2135 33.3333 34.2135 31.36V27.0867H24.4375V31.36Z" fill="#F7DECE"/>
<path d="M24.4277 28.9053C25.7917 30.4453 27.4824 30.8627 29.3197 30.8627C31.1584 30.8627 32.8491 30.4467 34.2131 28.9053V24.9907H24.4277V28.9053Z" fill="#EEC2AD"/>
<path d="M18.3115 16.2893C18.3115 8.51067 23.2129 2.20534 29.2582 2.20534C35.3035 2.20534 40.2062 8.51067 40.2062 16.2893C40.2062 24.0667 35.3035 30.004 29.2582 30.004C23.2129 30.004 18.3115 24.068 18.3115 16.2893Z" fill="#F7DECE"/>
<path d="M29.2583 26.724C27.1183 26.724 25.997 25.6653 25.877 25.544C25.7117 25.3728 25.6199 25.1438 25.6211 24.9058C25.6223 24.6679 25.7165 24.4398 25.8836 24.2703C26.0506 24.1009 26.2773 24.0034 26.5152 23.9987C26.7531 23.994 26.9834 24.0825 27.157 24.2453C27.2037 24.288 27.8943 24.9 29.2583 24.9C30.6437 24.9 31.3343 24.2693 31.361 24.244C31.5359 24.0795 31.7684 23.9902 32.0085 23.9952C32.2485 24.0001 32.4771 24.0991 32.645 24.2707C32.9917 24.6293 32.9917 25.192 32.6397 25.544C32.521 25.6653 31.401 26.724 29.2583 26.724Z" fill="#DF1F32"/>
<path d="M15.6329 20.6667C15.6049 19.3333 15.5742 20.368 15.5742 20.0467C15.5742 15.484 18.3115 20.7053 18.3115 17.456C18.3115 14.204 20.1355 13.8787 21.9595 12.0547C22.8729 11.1413 24.6969 9.35334 24.6969 9.35334C24.6969 9.35334 29.2582 12.1093 32.9075 12.1093C36.5555 12.1093 40.2062 13.9427 40.2062 17.592C40.2062 21.2413 42.9435 15.48 42.9435 20.0413C42.9435 20.3667 42.9142 19.3333 42.8902 20.6667H43.8475C43.8569 18 43.8569 18.1013 43.8569 16.3973C43.8569 4.53734 34.7329 0.121338 29.2595 0.121338C23.7862 0.121338 14.6635 4.464 14.6635 16.324C14.6635 17.3813 14.6369 18 14.6742 20.6667H15.6329Z" fill="#292F33"/>
<path d="M24.8106 19.1813C24.5118 19.1803 24.2255 19.0611 24.0142 18.8498C23.8029 18.6385 23.6837 18.3522 23.6826 18.0533V16.9267C23.6826 16.3067 24.1906 15.7987 24.8106 15.7987C25.4306 15.7987 25.94 16.3067 25.94 16.9267V18.0533C25.9385 18.3523 25.8191 18.6386 25.6075 18.8499C25.396 19.0611 25.1096 19.1803 24.8106 19.1813ZM33.8306 19.1813C33.5318 19.1803 33.2455 19.0611 33.0342 18.8498C32.8229 18.6385 32.7037 18.3522 32.7026 18.0533V16.9267C32.7026 16.3067 33.2106 15.7987 33.8306 15.7987C34.4506 15.7987 34.9586 16.3067 34.9586 16.9267V18.0533C34.9576 18.3522 34.8384 18.6385 34.6271 18.8498C34.4158 19.0611 34.1295 19.1803 33.8306 19.1813Z" fill="#662113"/>
<path d="M30.4495 22.6667H28.1949C28.0454 22.6663 27.9021 22.6068 27.7964 22.5011C27.6907 22.3954 27.6312 22.2521 27.6309 22.1027V21.8987C27.6309 21.588 27.8829 21.3333 28.1949 21.3333H30.4495C30.7589 21.3333 31.0135 21.5867 31.0135 21.8987V22.1027C31.0132 22.2521 30.9536 22.3954 30.8479 22.5011C30.7423 22.6068 30.599 22.6663 30.4495 22.6667Z" fill="#C1694F"/>
<path d="M20.5923 17.9147C20.5923 19.8453 19.6137 21.4107 18.407 21.4107C17.2003 21.4107 16.2217 19.8453 16.2217 17.9147C16.2217 15.984 17.2003 14.4173 18.407 14.4173C19.6137 14.416 20.5923 15.9827 20.5923 17.9147ZM42.4443 17.9147C42.4443 19.8453 41.467 21.4107 40.259 21.4107C39.0523 21.4107 38.0737 19.8453 38.0737 17.9147C38.0737 15.984 39.051 14.4173 40.259 14.4173C41.467 14.416 42.4443 15.9827 42.4443 17.9147Z" fill="#F7DECE"/>
<path d="M44 46.6667C44 47.0203 43.8595 47.3594 43.6095 47.6095C43.3594 47.8595 43.0203 48 42.6667 48H29.3333C28.9797 48 28.6406 47.8595 28.3905 47.6095C28.1405 47.3594 28 47.0203 28 46.6667C28 46.313 28.1405 45.9739 28.3905 45.7239C28.6406 45.4738 28.9797 45.3333 29.3333 45.3333H42.6667C43.0203 45.3333 43.3594 45.4738 43.6095 45.7239C43.8595 45.9739 44 46.313 44 46.6667Z" fill="#E1E8ED"/>
<path d="M26.9868 29.3333H5.01214C2.98014 29.3333 0.374807 30.3613 1.70814 34.0413L5.80414 45.3413C5.80547 45.3413 6.33347 48 9.33347 48H36.0001L30.6668 33.0133C30.0828 31.2507 29.0201 29.3333 26.9868 29.3333Z" fill="#E1E8ED"/>
<path d="M25.6538 29.3333H3.67913C1.64713 29.3333 -0.958201 30.3613 0.375132 34.0413L4.47113 45.3413C4.47247 45.3413 5.00047 48 8.00047 48H34.6671L29.3338 33.0133C28.7498 31.2507 27.6871 29.3333 25.6538 29.3333Z" fill="#99AAB5"/>
<path d="M18.692 39.044C19.3907 41.14 18.8253 43.2173 17.4267 43.6827C16.0307 44.1493 14.3307 42.828 13.632 40.732C12.9333 38.636 13.5 36.5587 14.8973 36.0933C16.2947 35.628 17.9947 36.948 18.692 39.044ZM25.3333 33H4C3.73478 33 3.48043 32.8946 3.29289 32.7071C3.10536 32.5196 3 32.2652 3 32C3 31.7348 3.10536 31.4804 3.29289 31.2929C3.48043 31.1054 3.73478 31 4 31H25.3333C25.5985 31 25.8529 31.1054 26.0404 31.2929C26.228 31.4804 26.3333 31.7348 26.3333 32C26.3333 32.2652 26.228 32.5196 26.0404 32.7071C25.8529 32.8946 25.5985 33 25.3333 33Z" fill="#E1E8ED"/>
</svg>
