<svg width="48" height="48" viewBox="0 0 48 48" fill="none" xmlns="http://www.w3.org/2000/svg">
<path d="M17.3333 33.6667H44C44 33.6667 48 33.6667 48 28.3333C48 25.6667 48 20.3333 46.6667 19C45.3333 17.6667 36 9.66667 32 9.66667H24C20 9.66667 10.6667 19 10.6667 19L5.33333 20.3333C5.33333 20.3333 1.33333 21.6667 1.33333 24.3333V28.3333C1.33333 28.3333 0 28.784 0 30.9427C0 33.6667 2.66667 33.6667 2.66667 33.6667H17.3333Z" fill="#DD2E44"/>
<path d="M26.6663 12.3333H23.9997C21.333 12.3333 13.333 20.3333 13.333 20.3333C13.333 20.3333 19.9957 19.9827 26.6663 19.6413V12.3333ZM39.9997 16.3333C38.6663 15 33.333 12.3333 30.6663 12.3333H29.333V19.5053C34.681 19.2333 39.4423 19 39.9997 19C41.333 19 41.333 17.6667 39.9997 16.3333V16.3333Z" fill="#BBDDF5"/>
<path d="M13.3333 37.6667C16.2789 37.6667 18.6667 35.2789 18.6667 32.3333C18.6667 29.3878 16.2789 27 13.3333 27C10.3878 27 8 29.3878 8 32.3333C8 35.2789 10.3878 37.6667 13.3333 37.6667Z" fill="#292F33"/>
<path d="M13.3337 35C14.8064 35 16.0003 33.8061 16.0003 32.3333C16.0003 30.8606 14.8064 29.6667 13.3337 29.6667C11.8609 29.6667 10.667 30.8606 10.667 32.3333C10.667 33.8061 11.8609 35 13.3337 35Z" fill="#CCD6DD"/>
<path d="M36.0003 37.6667C38.9458 37.6667 41.3337 35.2789 41.3337 32.3333C41.3337 29.3878 38.9458 27 36.0003 27C33.0548 27 30.667 29.3878 30.667 32.3333C30.667 35.2789 33.0548 37.6667 36.0003 37.6667Z" fill="#292F33"/>
<path d="M35.9997 35C37.4724 35 38.6663 33.8061 38.6663 32.3333C38.6663 30.8606 37.4724 29.6667 35.9997 29.6667C34.5269 29.6667 33.333 30.8606 33.333 32.3333C33.333 33.8061 34.5269 35 35.9997 35Z" fill="#CCD6DD"/>
</svg>
