<svg width="24" height="24" viewBox="0 0 24 24" fill="none" xmlns="http://www.w3.org/2000/svg">
<path d="M11.9927 23.3167L12.0273 23.3273C12.0153 23.282 11.9993 23.2007 11.9993 23.072C11.9993 22.87 12.1033 22.4927 12.132 22.4387C12.1607 22.3847 12.192 22.346 12.2613 22.3653C12.314 22.38 12.718 22.5827 12.976 22.5927C13.4553 22.6107 13.6867 22.1807 13.6867 22.1807C13.6867 22.1807 13.9527 22.3327 14.164 22.456C14.376 22.5793 14.622 22.764 14.8033 22.874C14.958 22.968 15.1347 23.0127 15.3173 23.036C15.5 23.0593 15.6487 23.0513 15.6927 23.0553C15.7367 23.0593 16.1067 23.0147 16.12 23.3807L16.118 23.4653L16.154 23.448C16.154 23.448 16.186 23.5613 16.1887 23.5827C16.1913 23.6047 16.2047 23.6173 16.158 23.6467C16.1113 23.676 15.906 23.764 15.6447 23.8293C15.3833 23.8947 14.9593 23.9913 14.632 23.9913C14.3047 23.9913 14.026 23.926 13.8647 23.8873C13.7027 23.8487 13.356 23.7747 13.3227 23.79C13.2893 23.8053 13.2453 23.9173 13.2073 23.952C13.1687 23.9867 12.134 23.898 12.06 23.8827C12.034 23.8781 12.0104 23.865 11.9927 23.8454C11.9751 23.8259 11.9645 23.801 11.9627 23.7747V23.342C11.9613 23.324 11.9767 23.312 11.9927 23.3167ZM4.69467 20.8153L5.03067 20.5293C5.0336 20.5268 5.03708 20.525 5.04083 20.524C5.04458 20.523 5.0485 20.5229 5.0523 20.5237C5.0561 20.5244 5.05968 20.5261 5.06274 20.5284C5.06581 20.5308 5.0683 20.5339 5.07 20.5373L5.08467 20.5713C5.13601 20.5005 5.19629 20.4367 5.264 20.3813C5.42067 20.248 5.782 20.0787 5.84267 20.066C5.90333 20.0527 5.954 20.0513 5.98467 20.1173C6.008 20.168 6.11733 20.6147 6.28067 20.8213C6.58333 21.2047 7.07 21.1 7.07 21.1L7.172 21.652C7.21667 21.8973 7.236 22.2107 7.27067 22.424C7.30551 22.6058 7.37869 22.7781 7.48534 22.9293C7.588 23.0867 7.692 23.196 7.71867 23.2333C7.74467 23.27 8.02333 23.5273 7.74867 23.78L7.68133 23.834L7.718 23.8507C7.718 23.8507 7.65133 23.95 7.63667 23.9667C7.622 23.9833 7.62 24.002 7.56733 23.9853C7.51467 23.9687 7.31 23.8673 7.08667 23.708C6.86267 23.548 6.508 23.2833 6.292 23.0293C6.07533 22.7753 5.94267 22.516 5.86534 22.3653C5.788 22.2147 5.61667 21.8967 5.58267 21.8807C5.54867 21.8647 5.43334 21.9047 5.38067 21.898C5.32867 21.8913 4.71334 21.03 4.676 20.9627C4.63867 20.8953 4.67267 20.834 4.69467 20.8153Z" fill="#292F33"/>
<path d="M11.1333 8.16199C10.5153 8.80199 9.092 10.0887 9.06067 10.2427C8.89333 11.058 8.65133 11.98 8.714 12.5453C8.75933 12.9553 8.46333 13.4107 8.34667 13.6007C8.20133 13.8367 7.826 14.1993 7.586 14.174C7.43667 14.1587 7.208 13.8873 7.33 13.75C7.568 13.4833 7.52867 13.0773 7.678 12.7107C7.97733 11.974 7.708 10.5813 8.11867 9.66866C8.28933 9.29066 8.60733 8.53999 10.0013 7.25133C10.342 7.55933 11.1333 8.16199 11.1333 8.16199Z" fill="#CC9B7A"/>
<path d="M13.292 22.802C14.136 22.8747 14.5273 22.6467 14.4393 22.5247C14.3293 22.3727 14.354 22.26 14.3527 22.1673C14.334 20.54 14.6667 18.1733 14.6667 18.1733C14.6667 17.9413 14.6647 17.6313 14.4587 17.132C13.94 15.8767 11.8247 12.0053 11.8247 12.0053C11.7378 11.8533 11.6218 11.7199 11.4833 11.6127C11.3449 11.5055 11.1867 11.4266 11.0177 11.3805C10.8488 11.3344 10.6724 11.3221 10.4987 11.3442C10.325 11.3663 10.1574 11.4224 10.0053 11.5093C9.366 11.8747 9.25733 12.446 9.50933 13.3287C9.986 15.0007 11.486 17.0633 12.1113 18.3133C11.962 19.7273 12.2273 20.882 12.088 22.218C12.068 22.41 12.448 22.7293 13.292 22.802Z" fill="#2A6797"/>
<path d="M6.13533 21.2873C6.378 21.656 6.782 21.9153 7.20067 21.846C8.04667 20.5633 10.504 18.2987 10.504 18.2987C10.6647 18.132 10.8787 17.9073 11.0773 17.4047C11.576 16.1413 12.7427 11.8867 12.7427 11.8867C12.7858 11.717 12.7951 11.5405 12.7699 11.3672C12.7448 11.194 12.6858 11.0274 12.5963 10.8769C12.5068 10.7265 12.3885 10.5952 12.2482 10.4905C12.1079 10.3857 11.9484 10.3097 11.7787 10.2667C11.0653 10.0853 10.59 10.4213 10.1587 11.2307C9.34067 12.7647 8.98733 15.2907 8.56933 16.624C7.32267 17.6693 6.98067 19.026 5.71933 20.058C5.76267 20.6293 5.89267 20.9187 6.13533 21.2873Z" fill="#4289C1"/>
<path d="M11.5973 0.945331C12.6747 0.624664 14.1927 1.29866 14.3373 2.52666C14.5393 4.24 13.4553 5.58333 12.4033 5.37733C11.3007 5.16133 10.638 4.856 10.2853 3.67133C9.93333 2.48666 10.52 1.266 11.5973 0.945331Z" fill="#D4AB88"/>
<path d="M10.5567 3.992C9.19333 2.08067 12.8307 2.568 12.8307 2.568C13.52 2.65267 12.9453 3.76334 13.2167 4.42C13.4027 4.87467 12.4433 5.02467 12.4433 5.02467C12.4433 5.02467 12.0127 4.98134 11.9447 5.502L11.944 5.50667C11.9273 5.63934 11.928 5.79867 11.972 6.01534C12.1913 7.08867 10.7307 7.61 10.512 6.53467C10.4253 6.10934 10.504 5.748 10.5947 5.41667L10.6033 5.38667C10.74 4.89334 10.8933 4.46467 10.5567 3.992Z" fill="#D4AB88"/>
<path d="M10.256 1.194C10.83 0.54267 12.6073 0.07667 13.6267 1.05067C14.396 0.984003 14.6247 1.73 14.5247 2.13934C14.4447 2.466 13.6233 2.482 13.3653 3.09334C13.2367 2.92334 13.2273 2.59734 13.2727 2.42734C12.992 2.65467 13.0487 3.32 11.9927 3.66067C10.9713 3.99 11.0713 4.87534 11.0713 4.87534C11.0713 4.87534 10.5733 4.58534 10.248 4.136C9.62533 3.27867 9.62333 1.912 10.256 1.194Z" fill="#963B22"/>
<path d="M8.66667 13.3333C8.66667 13.3333 8.66667 14 10 14H13.2653C12.5987 10.948 13.328 10.1067 13.1047 8.27934C12.864 6.31 11.58 5.09867 10.788 5.386C9.57333 5.82667 8.99267 7.14667 8.83333 9.29134C8.674 11.436 8.66667 13.3333 8.66667 13.3333Z" fill="#38B2AC"/>
<path d="M12.1667 7.86133C12.278 8.79399 12.3813 10.8167 12.486 10.9447C13.0413 11.6253 13.634 12.438 14.1387 12.764C14.5047 13 14.6793 13.5467 14.7567 13.7687C14.8527 14.0447 14.8987 14.594 14.7187 14.7733C14.606 14.8853 14.232 14.8913 14.2013 14.7C14.1413 14.3273 13.784 14.0887 13.5833 13.722C13.1807 12.986 11.8613 12.2773 11.3887 11.3327C11.1927 10.9407 10.7913 10.18 10.6667 8.18C11.1467 8.10666 12.1667 7.86133 12.1667 7.86133Z" fill="#D4AB88"/>
</svg>
