<svg width="48" height="48" viewBox="0 0 48 48" fill="none" xmlns="http://www.w3.org/2000/svg">
<path d="M23.9996 27.2147C11.505 27.2147 1.37695 26.9147 1.37695 35.784C1.37695 44.6493 11.505 46.6667 23.9996 46.6667C36.4943 46.6667 46.6223 44.6493 46.6223 35.784C46.6223 26.916 36.4943 27.2147 23.9996 27.2147Z" fill="#D99E82"/>
<path d="M45.9603 27.888C45.9603 27.888 35.0017 26.576 24.0003 26.52C12.999 26.576 2.04034 27.888 2.04034 27.888C0.956342 36.52 9.95634 40.076 24.0003 40.076C38.0443 40.076 47.0443 36.52 45.9603 27.888Z" fill="#662113"/>
<path d="M45.1811 24.4373L2.70773 25.2987C1.24107 25.2987 0.0130655 28.2707 1.56907 29.048C13.1797 32.6587 22.5131 36.312 22.5131 36.312C23.7957 37.0213 24.2291 37.024 25.5131 36.316C25.5131 36.316 38.4011 31.1587 46.6797 28.992C47.8544 28.6853 46.6464 24.4373 45.1811 24.4373Z" fill="#FFCC4D"/>
<path d="M46.2996 24.5493C43.7663 22.2147 43.9129 23.4573 41.9716 22.9093C41.2343 22.7013 35.9583 15.8813 23.9329 15.8813H23.9063C11.8809 15.8813 6.60493 22.7013 5.86759 22.9093C3.92626 23.4573 4.07293 22.2147 1.53959 24.5493C0.376926 25.6213 0.0622596 26.1787 1.28893 26.456C3.13693 26.8733 2.96893 27.992 4.29293 28.3813C5.89559 28.852 6.55426 27.992 9.13826 28.344C11.3423 28.644 11.4863 31.5027 13.7103 31.5027C15.9343 31.5027 15.9343 30.436 18.1569 30.436C20.3796 30.436 21.6943 33.2973 23.9183 33.2973C26.1423 33.2973 27.4556 30.436 29.6796 30.436C31.9036 30.436 31.9036 31.5027 34.1263 31.5027C36.3503 31.5027 36.4943 28.644 38.6983 28.344C41.2823 27.9933 41.9423 28.852 43.5436 28.3813C44.8676 27.992 44.6996 26.8747 46.5476 26.456C47.7769 26.18 47.4636 25.6213 46.2996 24.5493Z" fill="#77B255"/>
<path d="M45.4365 22.0267C45.4365 26.0053 35.8391 27.884 24.0005 27.884C12.1618 27.884 2.56445 26.0053 2.56445 22.0267C2.56445 14.8227 3.85245 14.8227 24.0005 14.8227C44.1485 14.8227 45.4365 14.824 45.4365 22.0267Z" fill="#DD2E44"/>
<path d="M23.9996 0.698669C11.505 0.698669 1.37695 6.55334 1.37695 15.4213C1.37695 23.588 11.505 23.9213 23.9996 23.9213C36.4943 23.9213 46.6223 23.588 46.6223 15.4213C46.6223 6.552 36.4943 0.698669 23.9996 0.698669Z" fill="#D99E82"/>
<path d="M14.3788 4.92667C14.2211 4.82581 14.045 4.75702 13.8606 4.72421C13.6763 4.69141 13.4873 4.69523 13.3044 4.73547C13.1215 4.77571 12.9484 4.85157 12.7948 4.95873C12.6413 5.06589 12.5103 5.20224 12.4095 5.36C12.3086 5.51776 12.2398 5.69384 12.207 5.87819C12.1742 6.06254 12.1781 6.25154 12.2183 6.43441C12.2585 6.61728 12.3344 6.79044 12.4416 6.94399C12.5487 7.09754 12.6851 7.22848 12.8428 7.32933C13.5068 7.75467 15.1895 8.072 15.6148 7.408C16.0388 6.744 15.0428 5.35067 14.3788 4.92667ZM27.3575 3.54667C26.6082 3.78933 25.2922 4.888 25.5362 5.63733C25.7802 6.38667 27.4882 6.50133 28.2375 6.25867C28.4156 6.20088 28.5805 6.1086 28.7229 5.98707C28.8653 5.86554 28.9824 5.71715 29.0675 5.55038C29.1525 5.3836 29.2039 5.20171 29.2187 5.01508C29.2334 4.82845 29.2113 4.64074 29.1535 4.46267C29.0957 4.28459 29.0034 4.11965 28.8819 3.97724C28.7604 3.83484 28.612 3.71776 28.4452 3.6327C28.2784 3.54764 28.0965 3.49627 27.9099 3.4815C27.7233 3.46674 27.5356 3.48888 27.3575 3.54667ZM41.9028 12.9267C41.3002 12.42 39.7895 13.2267 39.2815 13.8293C39.0499 14.1203 38.941 14.4901 38.9781 14.8601C39.0152 15.2302 39.1953 15.5711 39.48 15.8103C39.7648 16.0494 40.1316 16.168 40.5025 16.1407C40.8733 16.1134 41.2189 15.9423 41.4655 15.664C41.9735 15.06 42.5068 13.4333 41.9028 12.9267ZM37.0455 6.26C36.7268 6.06491 36.3444 6.00261 35.9803 6.0865C35.6162 6.17038 35.2995 6.39375 35.0983 6.7086C34.8972 7.02345 34.8275 7.40466 34.9044 7.7703C34.9813 8.13594 35.1986 8.45682 35.5095 8.664C36.1735 9.08933 37.8562 9.40667 38.2802 8.74267C38.7055 8.07733 37.7095 6.684 37.0455 6.26ZM17.0455 15.5933C16.8876 15.4924 16.7113 15.4236 16.5268 15.3909C16.3423 15.3581 16.1531 15.362 15.9701 15.4024C15.7871 15.4428 15.6138 15.5188 15.4602 15.6261C15.3066 15.7335 15.1757 15.87 15.0748 16.028C14.974 16.1857 14.9053 16.3618 14.8725 16.5461C14.8398 16.7304 14.8437 16.9193 14.8841 17.1021C14.9245 17.2849 15.0005 17.4579 15.1078 17.6113C15.2151 17.7647 15.3516 17.8954 15.5095 17.996C16.1735 18.4213 17.8562 18.74 18.2802 18.0747C18.7055 17.4107 17.7095 16.0173 17.0455 15.5933ZM21.1068 9.18267C20.6588 9.83067 20.2802 11.5013 20.9295 11.9493C21.5775 12.3973 23.0055 11.4507 23.4535 10.8027C23.6525 10.4912 23.7229 10.1147 23.6499 9.7524C23.5769 9.39009 23.3661 9.07026 23.0619 8.86028C22.7577 8.65031 22.3839 8.56657 22.0193 8.6267C21.6546 8.68683 21.3275 8.88615 21.1068 9.18267ZM31.7122 15.5933C31.5542 15.4924 31.378 15.4236 31.1935 15.3909C31.0089 15.3581 30.8198 15.362 30.6368 15.4024C30.4538 15.4428 30.2805 15.5188 30.1269 15.6261C29.9733 15.7335 29.8423 15.87 29.7415 16.028C29.6407 16.1857 29.5719 16.3618 29.5392 16.5461C29.5065 16.7304 29.5104 16.9193 29.5508 17.1021C29.5912 17.2849 29.6672 17.4579 29.7745 17.6113C29.8818 17.7647 30.0183 17.8954 30.1762 17.996C30.8402 18.4213 32.5228 18.74 32.9468 18.0747C33.3722 17.4107 32.3762 16.0173 31.7122 15.5933ZM6.59749 10.4107C6.07216 10.9987 5.48682 12.608 6.07482 13.1333C6.66016 13.6587 8.19616 12.9013 8.72149 12.3133C8.85423 12.1752 8.95779 12.0118 9.026 11.8328C9.09421 11.6538 9.12567 11.4629 9.11851 11.2714C9.11135 11.08 9.06571 10.892 8.98432 10.7186C8.90293 10.5452 8.78745 10.3899 8.64476 10.2621C8.50208 10.1343 8.33512 10.0365 8.15383 9.97463C7.97255 9.91273 7.78065 9.88798 7.5896 9.90184C7.39854 9.9157 7.21223 9.9679 7.04178 10.0553C6.87133 10.1427 6.72023 10.2636 6.59749 10.4107Z" fill="#FFE8B6"/>
</svg>
