<svg width="28" height="32" viewBox="0 0 28 32" fill="none" xmlns="http://www.w3.org/2000/svg">
<path d="M27.2782 13.912C27.2146 13.7421 27.1008 13.5957 26.9518 13.4923C26.8028 13.3889 26.6258 13.3334 26.4444 13.3333H15.7111L21.9022 1.296C21.9723 1.16046 22.0063 1.00914 22.0009 0.856634C21.9955 0.704127 21.9509 0.555583 21.8714 0.425331C21.7919 0.295079 21.6802 0.187514 21.547 0.113014C21.4138 0.038514 21.2637 -0.00040789 21.1111 3.22329e-06C20.8979 9.16626e-05 20.692 0.0767479 20.5306 0.216003L14 5.856L0.975068 17.1049C0.837803 17.2234 0.740056 17.381 0.694943 17.5566C0.649829 17.7323 0.659506 17.9175 0.722676 18.0874C0.785846 18.2574 0.899487 18.404 1.04835 18.5075C1.19722 18.6111 1.37418 18.6666 1.55551 18.6667H12.2888L6.09773 30.704C6.02762 30.8395 5.99362 30.9909 5.99901 31.1434C6.0044 31.2959 6.049 31.4444 6.12851 31.5747C6.20802 31.7049 6.31975 31.8125 6.45293 31.887C6.58611 31.9615 6.73624 32.0004 6.88884 32C7.10196 31.9999 7.30796 31.9233 7.46929 31.784L14 26.144L27.0248 14.8951C27.1624 14.7767 27.2604 14.619 27.3057 14.4433C27.351 14.2675 27.3414 14.0821 27.2782 13.912Z" fill="#FFAC33"/>
</svg>
