<svg width="50" height="40" viewBox="0 0 50 40" fill="none" xmlns="http://www.w3.org/2000/svg">
<path d="M47.5 2.5H2.5C1.11953 2.5 0 3.61953 0 5V35C0 36.3805 1.11953 37.5 2.5 37.5H47.5C48.8805 37.5 50 36.3805 50 35V5C50 3.61953 48.8805 2.5 47.5 2.5ZM13.75 25.6156V26.875C13.75 27.2203 13.4703 27.5 13.125 27.5H11.875C11.5297 27.5 11.25 27.2203 11.25 26.875V25.6023C10.368 25.557 9.51016 25.2492 8.79922 24.7156C8.49453 24.4867 8.47891 24.0305 8.75469 23.7672L9.67266 22.8914C9.88906 22.6852 10.2109 22.6758 10.4641 22.8344C10.7664 23.0234 11.1094 23.125 11.4656 23.125H13.6617C14.1695 23.125 14.5836 22.6625 14.5836 22.0945C14.5836 21.6297 14.3016 21.2203 13.8984 21.1L10.3828 20.0453C8.93047 19.6094 7.91563 18.2156 7.91563 16.6555C7.91563 14.7398 9.40391 13.1836 11.2492 13.1344V11.875C11.2492 11.5297 11.5289 11.25 11.8742 11.25H13.1242C13.4695 11.25 13.7492 11.5297 13.7492 11.875V13.1477C14.6313 13.193 15.4891 13.5 16.2 14.0344C16.5047 14.2633 16.5203 14.7195 16.2445 14.9828L15.3266 15.8586C15.1102 16.0648 14.7883 16.0742 14.5352 15.9156C14.2328 15.7258 13.8898 15.625 13.5336 15.625H11.3375C10.8297 15.625 10.4156 16.0875 10.4156 16.6555C10.4156 17.1203 10.6977 17.5297 11.1008 17.65L14.6164 18.7047C16.0688 19.1406 17.0836 20.5344 17.0836 22.0945C17.0836 24.0109 15.5953 25.5664 13.75 25.6156ZM32.5 24.375C32.5 24.7203 32.2203 25 31.875 25H23.125C22.7797 25 22.5 24.7203 22.5 24.375V23.125C22.5 22.7797 22.7797 22.5 23.125 22.5H31.875C32.2203 22.5 32.5 22.7797 32.5 23.125V24.375ZM45 24.375C45 24.7203 44.7203 25 44.375 25H38.125C37.7797 25 37.5 24.7203 37.5 24.375V23.125C37.5 22.7797 37.7797 22.5 38.125 22.5H44.375C44.7203 22.5 45 22.7797 45 23.125V24.375ZM45 16.875C45 17.2203 44.7203 17.5 44.375 17.5H23.125C22.7797 17.5 22.5 17.2203 22.5 16.875V15.625C22.5 15.2797 22.7797 15 23.125 15H44.375C44.7203 15 45 15.2797 45 15.625V16.875Z" fill="#3182CE"/>
</svg>
