<svg width="48" height="48" viewBox="0 0 48 48" fill="none" xmlns="http://www.w3.org/2000/svg">
<path d="M31.4484 24C31.4473 20.4435 32.3879 16.9501 34.1747 13.875L34.8891 12.6319C33.3916 12.2755 31.8657 12.0512 30.3291 11.9616C28.2722 10.3772 25.2066 8.4975 21.6722 7.89938L19.5 7.5L20.7534 13.2994C16.8469 14.625 13.4006 17.3175 11.1197 19.17C10.6784 18.8006 10.2166 18.4397 9.73406 18.0872C6.01125 15.3684 1.99031 15.1059 1.82156 15.0966L0 15L0.250313 16.8103C0.2775 16.9978 0.886875 21.0037 3.2175 23.9841C0.886875 26.9653 0.28125 30.9684 0.250313 31.1587L0 33L1.82156 32.8725C1.99031 32.8631 6.01125 32.6016 9.73406 29.8819C10.2078 29.5362 10.6628 29.1809 11.0991 28.8159C13.3837 30.675 16.8309 33.3722 20.7422 34.6978L19.5 40.5L21.6722 40.1044C25.1869 39.51 28.2422 37.6294 30.2972 36.0431C31.8553 35.953 33.4025 35.7262 34.9209 35.3653L34.1794 34.1297C32.3905 31.0535 31.4483 27.5585 31.4484 24Z" fill="#3182CE"/>
<path d="M46.8363 20.7889C46.2879 19.8627 45.2857 18.4546 43.631 17.0127C41.9085 15.5293 39.9419 14.3556 37.8185 13.5439L36.7714 15.3749C35.2512 17.9926 34.4497 20.9655 34.4482 23.9927C34.4468 27.0198 35.2453 29.9935 36.7629 32.6127L37.8645 34.4474C39.9658 33.6456 41.9135 32.4884 43.6226 31.0264C46.5982 28.4502 47.9998 25.2186 47.9998 23.9999C47.9998 22.8458 47.2498 21.493 46.8363 20.7889ZM38.9998 23.9999C38.7031 23.9999 38.4131 23.9119 38.1664 23.7471C37.9198 23.5823 37.7275 23.348 37.614 23.0739C37.5004 22.7998 37.4707 22.4982 37.5286 22.2072C37.5865 21.9163 37.7294 21.649 37.9391 21.4392C38.1489 21.2294 38.4162 21.0866 38.7072 21.0287C38.9981 20.9708 39.2997 21.0005 39.5738 21.1141C39.8479 21.2276 40.0822 21.4199 40.247 21.6665C40.4118 21.9132 40.4998 22.2032 40.4998 22.4999C40.4998 22.8977 40.3418 23.2792 40.0605 23.5605C39.7792 23.8418 39.3976 23.9999 38.9998 23.9999Z" fill="#3182CE"/>
</svg>
