<svg width="82" height="80" viewBox="0 0 82 80" fill="none" xmlns="http://www.w3.org/2000/svg">
<path d="M76.9648 76.1089C74.8868 78.1841 72.0496 79.4163 68.4531 79.8054C64.8566 80.1945 60.8472 79.6238 56.4248 78.0933C52.0025 76.5628 47.7133 74.1633 43.5574 70.8948C41.4794 69.2347 39.1084 67.9636 36.4443 67.0816C33.7803 66.1996 31.2361 65.6419 28.8118 65.4085C26.3875 65.175 24.0032 64.9675 21.6588 64.7859C19.3144 64.6043 17.1165 64.2152 15.0652 63.6186C13.0139 63.0219 11.3755 62.1011 10.15 60.8559C5.88751 56.6536 2.94371 51.3228 1.31863 44.8637C-0.306447 38.4046 -0.399689 31.9454 1.03891 25.4863C2.4775 19.0271 5.32805 13.6964 9.59056 9.49404C13.8531 5.2917 19.2478 2.47717 25.7748 1.05045C32.3017 -0.376266 38.8287 -0.285474 45.3556 1.32283C51.8826 2.93113 57.2773 5.86239 61.5398 10.1166C64.1506 12.6588 66.7747 16.1607 69.4122 20.6224C72.0496 25.0842 74.3673 29.961 76.3654 35.2528C78.3634 40.5446 79.8952 45.7846 80.9609 50.9727C82.0265 56.1607 82.2529 61.0245 81.6402 65.5641C81.0275 70.1037 79.469 73.6186 76.9648 76.1089ZM58.9024 15.0193C55.9187 12.0621 52.4154 9.70156 48.3927 7.93762C44.3699 6.17367 40.2007 5.21388 35.8849 5.05824C31.7289 4.95448 27.6529 5.62893 23.6568 7.08158C19.6607 8.53424 16.2774 10.6095 13.5067 13.3073C7.59251 19.1698 4.82188 26.3812 5.19485 34.9415C5.30141 38.4694 5.96743 42.114 7.1929 45.8754C8.41837 49.6367 9.83032 52.9182 11.4288 55.7197C12.228 57.0686 13.6399 58.0544 15.6646 58.6769C17.6893 59.2995 20.0204 59.6886 22.6578 59.8443C25.2952 59.9999 27.9993 60.1555 30.7699 60.3112C33.5405 60.4668 36.3378 60.9078 39.1617 61.6341C41.9856 62.3605 44.3033 63.45 46.1149 64.9026C49.8979 67.9117 53.4278 70.1945 56.7046 71.7509C59.9814 73.3073 62.9784 74.1244 65.6958 74.2022C68.4131 74.2801 70.6776 73.4111 72.4892 71.5952C74.6737 69.4162 76.0324 66.3812 76.5652 62.4902C77.098 58.5991 76.8849 54.4357 75.9258 49.9999C74.9667 45.5641 73.6214 41.0894 71.8897 36.5758C70.1581 32.0621 68.1334 27.9117 65.8157 24.1244C63.4979 20.3371 61.1935 17.3021 58.9024 15.0193ZM46.1149 59.9221C44.1968 58.3657 41.5593 57.1983 38.2026 56.4201C34.8459 55.6419 31.689 55.188 28.7319 55.0583C25.7748 54.9286 22.9908 54.6692 20.38 54.2801C17.7692 53.8909 16.1175 53.2554 15.4249 52.3734C12.2813 48.5343 10.5763 43.0349 10.3099 35.8754C9.99017 28.5083 12.3612 22.2826 17.4229 17.1983C19.7673 14.8637 22.6578 13.0608 26.0944 11.7898C29.5311 10.5187 33.0343 9.93502 36.6042 10.0388C40.2806 10.1425 43.8504 10.9726 47.3137 12.5291C50.777 14.0855 53.7874 16.1348 56.3449 18.6769C60.1279 22.4123 63.6311 28.2748 66.8547 36.2645C70.0782 44.2541 71.6899 51.3099 71.6899 57.4318C71.6899 59.974 71.5434 61.9843 71.2504 63.4629C70.9573 64.9415 70.2513 66.2515 69.1324 67.3929C65.083 71.3877 57.4105 68.8974 46.1149 59.9221ZM28.2124 19.9999C26.0811 19.9999 24.2696 20.7392 22.7777 22.2178C21.2858 23.6964 20.5399 25.4603 20.5399 27.5096C20.5399 29.5589 21.2858 31.3099 22.7777 32.7625C24.2696 34.2152 26.0811 34.9415 28.2124 34.9415C30.3436 34.9415 32.1552 34.2152 33.6471 32.7625C35.1389 31.3099 35.8849 29.5589 35.8849 27.5096C35.8849 25.4603 35.1389 23.6964 33.6471 22.2178C32.1552 20.7392 30.3436 19.9999 28.2124 19.9999Z" fill="white"/>
</svg>
