<svg width="40" height="40" viewBox="0 0 40 40" fill="none" xmlns="http://www.w3.org/2000/svg">
<path d="M36 0H4C1.8 0 0 1.8 0 4V36C0 38.2 1.8 40 4 40H36C38.2 40 40 38.2 40 36V4C40 1.8 38.2 0 36 0ZM36 34C36 35.1 35.1 36 34 36H32V34C32 32.9 31.1 32 30 32H27.7C29.12 30.3 30 28.22 30 26C30 22.22 27.82 20.32 26.3 19.28C22.58 16.74 21.84 13.72 21.8 11.84C21.7988 11.6607 21.7501 11.485 21.6588 11.3307C21.5675 11.1763 21.4369 11.049 21.2804 10.9616C21.1239 10.8742 20.947 10.8298 20.7677 10.8331C20.5885 10.8363 20.4133 10.887 20.26 10.98C8.66 17.84 9.96 24.98 10 26C10.06 27.92 10.98 30.14 12.48 32H10C8.9 32 8 32.9 8 34V36H6C4.9 36 4 35.1 4 34V6C4 4.9 4.9 4 6 4H34C35.1 4 36 4.9 36 6V34ZM22.4 23.48C22.24 22.56 22.26 21.78 22.56 20.92C23.64 23.34 26.86 24.2 26.52 27.28C26.14 30.66 22.3 32.02 19.74 29.92C21.26 29.44 22.54 27.84 22.8 26.66C23.04 25.56 22.58 24.58 22.4 23.48Z" fill="#3182CE"/>
</svg>
