<svg width="48" height="48" viewBox="0 0 48 48" fill="none" xmlns="http://www.w3.org/2000/svg">
<path d="M25.5001 7.88012C27.5001 6.44012 29.8201 5.72012 32.4401 5.72012C33.8801 5.72012 35.4601 6.10012 37.1801 6.90012C38.9001 7.68012 40.2601 8.60012 41.2601 9.66012C43.3201 12.2201 44.1801 15.2001 43.8801 18.6001C43.5601 22.0001 42.4401 24.6601 40.5001 26.5401L25.3201 41.7201C24.9401 42.1001 24.4601 42.2801 23.9001 42.2801C23.3401 42.2801 22.8801 42.1001 22.5001 41.7201C22.3154 41.5379 22.1703 41.3195 22.0739 41.0786C21.9776 40.8377 21.932 40.5795 21.9401 40.3201C21.9401 39.7601 22.1201 39.2801 22.5001 38.9001L31.6801 29.7201C32.1801 29.2801 32.1801 28.8201 31.6801 28.3201C31.1801 27.8201 30.7201 27.8201 30.2801 28.3201L21.1001 37.5001C20.915 37.6866 20.6932 37.8326 20.4488 37.929C20.2044 38.0254 19.9426 38.07 19.6801 38.0601C19.1201 38.0601 18.6601 37.8801 18.2801 37.5001C18.0954 37.3179 17.9503 37.0995 17.8539 36.8586C17.7576 36.6177 17.712 36.3595 17.7201 36.1001C17.7201 35.5401 17.9001 35.0601 18.2801 34.6801L27.4601 25.5001C28.0001 25.0001 28.0001 24.5001 27.4601 24.0001C27.0001 23.5001 26.5601 23.5001 26.0601 24.0001L16.8801 33.2801C16.6929 33.4637 16.4708 33.6078 16.2269 33.704C15.9829 33.8002 15.7222 33.8465 15.4601 33.8401C14.9001 33.8401 14.4201 33.6601 14.0001 33.2801C13.6001 32.9001 13.4001 32.4401 13.4001 31.8801C13.4001 31.3201 13.6201 30.8201 14.0601 30.3801L23.2601 21.1801C23.7601 20.6801 23.7601 20.2201 23.2601 19.7801C22.7601 19.3401 22.2801 19.3401 21.8401 19.7801L12.5601 29.0001C12.1201 29.4001 11.6601 29.6201 11.1601 29.6201C10.6001 29.6201 10.1201 29.4201 9.7601 29.0001C9.3801 28.6001 9.1801 28.1201 9.1801 27.5601C9.1801 27.0001 9.3801 26.5401 9.7601 26.1601C15.8801 20.0001 19.6601 16.2801 21.1001 14.9001L28.2201 21.9401C29.0001 22.6801 29.9001 23.0601 31.0001 23.0601C32.4001 23.0601 33.5001 22.5001 34.3201 21.3801C34.8801 20.5601 35.0801 19.6601 34.9201 18.6601C34.7601 17.6601 34.3401 16.8201 33.6601 16.1201L25.5001 7.88012ZM29.6201 20.5401L21.1001 12.0001L6.9401 26.1601C5.2601 24.4601 4.3001 21.8601 4.0801 18.3201C3.8601 14.8001 4.8201 11.7401 6.9401 9.18012C9.3201 6.82012 12.1601 5.62012 15.4601 5.62012C18.7801 5.62012 21.6001 6.82012 23.9001 9.18012L32.4401 17.7201C32.8201 18.1001 33.0001 18.5601 33.0001 19.1201C33.0001 19.6801 32.8201 20.1601 32.4401 20.5401C32.0601 20.9001 31.6001 21.1001 31.0001 21.1001C30.4601 21.1001 30.0001 20.9001 29.6201 20.5401Z" fill="#3182CE"/>
</svg>
