<svg width="48" height="48" viewBox="0 0 48 48" fill="none" xmlns="http://www.w3.org/2000/svg">
<path d="M42 15.9998C43.0609 15.9998 44.0783 16.4212 44.8284 17.1714C45.5786 17.9215 46 18.9389 46 19.9998V27.9998C46 29.0607 45.5786 30.0781 44.8284 30.8282C44.0783 31.5784 43.0609 31.9998 42 31.9998H39.876C39.3884 35.8664 37.5065 39.4222 34.5835 41.9998C31.6605 44.5774 27.8972 45.9997 24 45.9998V41.9998C27.1826 41.9998 30.2348 40.7355 32.4853 38.4851C34.7357 36.2346 36 33.1824 36 29.9998V17.9998C36 14.8172 34.7357 11.765 32.4853 9.51452C30.2348 7.26408 27.1826 5.9998 24 5.9998C20.8174 5.9998 17.7652 7.26408 15.5147 9.51452C13.2643 11.765 12 14.8172 12 17.9998V31.9998H6C4.93913 31.9998 3.92172 31.5784 3.17157 30.8282C2.42143 30.0781 2 29.0607 2 27.9998V19.9998C2 18.9389 2.42143 17.9215 3.17157 17.1714C3.92172 16.4212 4.93913 15.9998 6 15.9998H8.124C8.61206 12.1336 10.4942 8.57835 13.4171 6.00115C16.3401 3.42396 20.1031 2.00195 24 2.00195C27.8969 2.00195 31.6599 3.42396 34.5829 6.00115C37.5058 8.57835 39.3879 12.1336 39.876 15.9998H42Z" fill="#3182CE"/>
</svg>
