<svg width="44" height="42" viewBox="0 0 44 42" fill="none" xmlns="http://www.w3.org/2000/svg">
<path d="M42.3671 20.6716L23.0593 1.37789C22.9202 1.2386 22.7551 1.12809 22.5733 1.05269C22.3916 0.977287 22.1967 0.938477 21.9999 0.938477C21.8031 0.938477 21.6082 0.977287 21.4265 1.05269C21.2447 1.12809 21.0795 1.2386 20.9405 1.37789L1.63271 20.6716C1.07021 21.2341 0.751465 21.9982 0.751465 22.7951C0.751465 24.4498 2.09678 25.7951 3.75146 25.7951H5.78584V39.5623C5.78584 40.392 6.45615 41.0623 7.28584 41.0623H18.9999V30.5623H24.2499V41.0623H36.714C37.5436 41.0623 38.214 40.392 38.214 39.5623V25.7951H40.2483C41.0452 25.7951 41.8093 25.481 42.3718 24.9138C43.539 23.742 43.539 21.8435 42.3671 20.6716Z" fill="#3182CE"/>
</svg>
