<svg width="48" height="48" viewBox="0 0 48 48" fill="none" xmlns="http://www.w3.org/2000/svg">
<g clip-path="url(#clip0_33_557)">
<path d="M24.2054 35.68C24.5667 35.8013 24.8547 35.468 24.9867 35.2773C25.3587 34.7373 25.5494 33.532 24.992 32.308C24.428 31.072 24.056 29.5453 22.7387 27.2133C22.5854 26.9413 22.08 23.552 21.0827 21.408C20.8134 20.828 19.0894 20.496 18.404 20.7027C17.72 20.908 18.4107 22.0093 18.4534 22.2147C18.912 24.416 20.1934 27.6507 20.3867 28.0867C21.4534 30.4947 23.0067 31.272 23.148 33.028C23.2214 33.948 23.4214 34.7427 23.948 34.6653C24.0707 35.1347 24.072 35.636 24.2054 35.68ZM4.44136 35.952C4.09869 36.12 3.76936 35.8267 3.61469 35.656C3.17469 35.1693 2.82669 34 3.22002 32.712C3.61602 31.412 3.78536 29.8507 4.78536 27.3653C4.90136 27.076 4.95736 23.6493 5.66536 21.3933C5.85602 20.784 7.52136 20.2267 8.22802 20.3413C8.93336 20.456 8.39336 21.6373 8.37736 21.8467C8.21202 24.0893 7.36669 27.464 7.23202 27.9213C6.49069 30.448 5.05336 31.424 5.14402 33.1827C5.19202 34.1053 5.09869 34.9187 4.56669 34.9107C4.50269 35.3947 4.56669 35.8907 4.44136 35.952Z" fill="#F3D2A2"/>
<path d="M8.65066 39.3333C7.984 35.688 8.3 30.6933 8.3 30.6933H18.492C18.492 30.6933 18.8093 35.688 18.1427 39.3333C18.0587 39.792 17.892 43.792 18.288 46.6667C18.376 47.3053 14.44 47.916 14.496 46.5C14.6 43.8747 14.144 41.816 14.0587 40.5C14.012 39.7707 13.7253 38 13.6 36.2227C13.5853 36.1987 13.2067 36.1987 13.192 36.2227C13.0667 38 12.7813 39.7707 12.7333 40.5C12.648 41.816 12.192 43.8747 12.296 46.5C12.352 47.916 8.416 47.3053 8.504 46.6667C8.9 43.792 8.73333 39.792 8.65066 39.3333Z" fill="#5C913B"/>
<path d="M7.33735 48C6.67202 47.4587 7.39202 46.452 9.23069 46.1307C10.7814 45.86 12.164 46.088 12.3814 46.5973C12.664 47.2547 12.448 48 12.448 48H7.33735ZM19.4934 48C20.1587 47.4587 19.4387 46.452 17.6 46.1307C16.0494 45.86 14.6667 46.088 14.4494 46.5973C14.1667 47.2547 14.3827 48 14.3827 48H19.4934Z" fill="#292F33"/>
<path d="M6.99468 19.688C8.62002 18.6667 10.724 18.6667 10.724 18.6667H16.0573C16.0573 18.6667 18.1613 18.6667 19.7867 19.688C21.388 20.6933 21.9947 23.688 21.9947 23.688L18.8307 24.6053L18.6907 31.9747H8.09068L7.95068 24.6053L4.78668 23.688C4.78668 23.688 5.39335 20.6933 6.99468 19.688Z" fill="#99AAB5"/>
<path d="M16.2894 0.653333C14.8187 0.177333 11.3587 0.306666 10.4934 1.432C8.24403 1.47467 5.60536 3.508 5.25869 6.19067C4.91603 8.84533 5.68003 10.0773 5.95069 12.0733C6.25869 14.3347 7.52936 15.0587 8.54669 15.3613C10.0094 17.2933 11.564 17.2107 14.1734 17.2107C19.2707 17.2107 21.6987 13.8 21.9134 8.008C22.0427 4.50267 19.9867 1.84933 16.2894 0.653333Z" fill="#FFE51E"/>
<path d="M11.2614 15.4653V18.7427C11.2614 19.9493 12.1787 22.3693 13.4454 22.3693C14.712 22.3693 15.6294 19.9493 15.6294 18.7427V15.4653H11.2614Z" fill="#F3D2A2"/>
<path d="M11.2614 18.288C11.9254 19.0387 12.548 19.2267 13.444 19.2267C14.3387 19.2267 14.9667 19.0373 15.6307 18.288V17.4H11.2614V18.288Z" fill="#E2C196"/>
<path d="M19.204 8.25467C18.7107 7.572 18.08 7.02133 16.6947 6.82667C17.2133 7.064 17.7107 7.88667 17.776 8.34C17.8413 8.79467 17.9053 9.16133 17.4947 8.708C15.848 6.888 14.056 7.60533 12.2787 6.49333C11.0387 5.71733 10.6613 4.85867 10.6613 4.85867C10.6613 4.85867 10.5093 6.00533 8.62799 7.17333C8.08266 7.512 7.43199 8.26533 7.07066 9.38C6.81066 10.18 6.89199 10.8947 6.89199 12.1133C6.89199 15.6733 9.82666 18.6667 13.4453 18.6667C17.064 18.6667 19.9987 15.6467 19.9987 12.1133C19.9987 9.89867 19.7667 9.03333 19.204 8.25467Z" fill="#F3D2A2"/>
<path d="M16 16H10.6667C10.6667 16 10.6667 17.3333 13.3334 17.3333C16 17.3333 16 16 16 16Z" fill="#C1694F"/>
<path d="M9.99998 12C10.3682 12 10.6666 11.7015 10.6666 11.3333C10.6666 10.9651 10.3682 10.6667 9.99998 10.6667C9.63179 10.6667 9.33331 10.9651 9.33331 11.3333C9.33331 11.7015 9.63179 12 9.99998 12Z" fill="#662113"/>
<path d="M16.6667 12C17.0349 12 17.3333 11.7015 17.3333 11.3333C17.3333 10.9651 17.0349 10.6667 16.6667 10.6667C16.2985 10.6667 16 10.9651 16 11.3333C16 11.7015 16.2985 12 16.6667 12Z" fill="#662113"/>
<path d="M12 13.3333H14.6667C14.6667 13.3333 14.6667 14.6667 13.3333 14.6667C12 14.6667 12 13.3333 12 13.3333Z" fill="#C1694F"/>
<path d="M24.0986 35.68C23.7373 35.8013 23.4493 35.468 23.3173 35.2773C22.9453 34.7373 22.7546 33.532 23.312 32.308C23.876 31.072 24.248 29.5453 25.5653 27.2133C25.7186 26.9413 26.224 23.552 27.2213 21.408C27.4906 20.828 29.2146 20.496 29.9 20.7027C30.584 20.908 29.8933 22.0093 29.8506 22.2147C29.392 24.416 28.1106 27.6507 27.9173 28.0867C26.8506 30.4947 25.2973 31.272 25.156 33.028C25.0826 33.948 24.8826 34.7427 24.356 34.6653C24.232 35.1347 24.2306 35.636 24.0986 35.68ZM43.5586 35.952C43.9013 36.12 44.2306 35.8267 44.3853 35.656C44.8253 35.1693 45.1733 34 44.78 32.712C44.384 31.412 44.2146 29.8507 43.2146 27.3653C43.0986 27.076 43.0426 23.6493 42.3346 21.3933C42.144 20.784 40.4786 20.2267 39.772 20.3413C39.0666 20.456 39.6066 21.6373 39.6226 21.8467C39.788 24.0893 40.6333 27.464 40.768 27.9213C41.5093 30.448 42.9466 31.424 42.856 33.1827C42.808 34.1053 42.9013 34.9187 43.4333 34.9107C43.4973 35.3947 43.4333 35.8907 43.5586 35.952Z" fill="#AF7E57"/>
<path d="M39.3493 39.3333C40.016 35.688 39.7 30.6933 39.7 30.6933H29.508C29.508 30.6933 29.1906 35.688 29.8573 39.3333C29.9413 39.792 30.108 43.792 29.712 46.6667C29.624 47.3053 33.56 47.916 33.504 46.5C33.4 43.8747 33.856 41.816 33.9413 40.5C33.988 39.7707 34.2746 38 34.4 36.2227C34.4146 36.1987 34.7933 36.1987 34.808 36.2227C34.9333 38 35.2186 39.7707 35.2666 40.5C35.352 41.816 35.808 43.8747 35.704 46.5C35.648 47.916 39.584 47.3053 39.496 46.6667C39.1 43.792 39.2666 39.792 39.3493 39.3333Z" fill="#4289C1"/>
<path d="M40.6627 48C41.328 47.4587 40.608 46.452 38.7693 46.1307C37.2187 45.86 35.836 46.088 35.6187 46.5973C35.336 47.2547 35.552 48 35.552 48H40.6627ZM28.5067 48C27.8413 47.4587 28.5613 46.452 30.4 46.1307C31.9507 45.86 33.3333 46.088 33.5507 46.5973C33.8333 47.256 33.6173 48.0013 33.6173 48.0013L28.5067 48Z" fill="#292F33"/>
<path d="M41.0053 19.688C39.38 18.6667 37.276 18.6667 37.276 18.6667H31.9426C31.9426 18.6667 29.8386 18.6667 28.2133 19.688C26.612 20.6933 26.0053 23.688 26.0053 23.688L29.1693 24.6053L29.3093 31.9747H39.9093L40.0493 24.6053L43.2133 23.688C43.2133 23.688 42.6066 20.6933 41.0053 19.688Z" fill="#FA743E"/>
<path d="M37.3533 0.653333C35.8827 0.177333 32.4213 0.306666 31.5573 1.432C29.308 1.47467 26.6693 3.508 26.3227 6.19067C25.98 8.84533 26.744 10.0773 27.0147 12.0733C27.3227 14.3347 28.5933 15.0587 29.6107 15.3613C31.0733 17.2933 32.628 17.2107 35.2373 17.2107C40.3347 17.2107 42.7627 13.8 42.9773 8.008C43.1067 4.50267 41.0507 1.84933 37.3533 0.653333Z" fill="#60352A"/>
<path d="M32.3187 15.4653V18.7427C32.3187 19.9493 33.236 22.3693 34.5027 22.3693C35.7693 22.3693 36.6867 19.9493 36.6867 18.7427V15.4653H32.3187Z" fill="#AF7E57"/>
<path d="M32.32 18.288C32.984 19.0387 33.6067 19.2267 34.5027 19.2267C35.3973 19.2267 36.0253 19.0373 36.6893 18.288V17.4H32.32V18.288Z" fill="#9B6A49"/>
<path d="M40.268 8.25467C39.7747 7.572 39.1427 7.02133 37.7587 6.82667C38.2773 7.064 38.7747 7.88667 38.84 8.34C38.9053 8.79467 38.9693 9.16133 38.5587 8.708C36.912 6.888 35.12 7.60533 33.3427 6.49333C32.1013 5.71733 31.724 4.85867 31.724 4.85867C31.724 4.85867 31.572 6.00533 29.6907 7.17333C29.1453 7.512 28.4947 8.26533 28.1333 9.38C27.8733 10.18 27.9547 10.8947 27.9547 12.1133C27.9547 15.6733 30.8893 18.6667 34.508 18.6667C38.1267 18.6667 41.0613 15.6467 41.0613 12.1133C41.0627 9.89867 40.8307 9.03333 40.268 8.25467Z" fill="#AF7E57"/>
<path d="M37.3333 16H32C32 16 32 17.3333 34.6667 17.3333C37.3333 17.3333 37.3333 16 37.3333 16Z" fill="#915A34"/>
<path d="M31.3334 12C31.7015 12 32 11.7015 32 11.3333C32 10.9651 31.7015 10.6667 31.3334 10.6667C30.9652 10.6667 30.6667 10.9651 30.6667 11.3333C30.6667 11.7015 30.9652 12 31.3334 12Z" fill="#662113"/>
<path d="M38 12C38.3682 12 38.6666 11.7015 38.6666 11.3333C38.6666 10.9651 38.3682 10.6667 38 10.6667C37.6318 10.6667 37.3333 10.9651 37.3333 11.3333C37.3333 11.7015 37.6318 12 38 12Z" fill="#662113"/>
<path d="M33.3333 13.3333H36C36 13.3333 36 14.6667 34.6666 14.6667C33.3333 14.6667 33.3333 13.3333 33.3333 13.3333Z" fill="#915A34"/>
</g>
<defs>
<clipPath id="clip0_33_557">
<rect width="48" height="48" fill="white"/>
</clipPath>
</defs>
</svg>
