<svg width="56" height="56" viewBox="0 0 56 56" fill="none" xmlns="http://www.w3.org/2000/svg">
<g clip-path="url(#clip0_315_1082)">
<path d="M16.0347 14.0001H8.85428L8.61472 17.1112H16.2743L16.0347 14.0001ZM15.5556 7.77783H9.33339L9.09383 10.8889H15.7952L15.5556 7.77783ZM16.5123 20.2223H8.37672L8.13717 23.3334H16.7518L16.5123 20.2223ZM7.77783 28.0001H17.1112L16.9914 26.4445H7.89761L7.77783 28.0001ZM32.0678 20.2223H23.9323L23.6927 23.3334H32.3074L32.0678 20.2223ZM23.3334 28.0001H32.6667L32.5469 26.4445H23.4532L23.3334 28.0001ZM31.5903 14.0001H24.4098L24.1703 17.1112H31.8298L31.5903 14.0001ZM31.1112 7.77783H24.8889L24.6494 10.8889H31.3507L31.1112 7.77783ZM47.1458 14.0001H39.9654L39.7258 17.1112H47.3854L47.1458 14.0001ZM39.0087 26.4445L38.8889 28.0001H48.2223L48.1025 26.4445H39.0087ZM47.6234 20.2223H39.4878L39.2483 23.3334H47.8629L47.6234 20.2223ZM46.6667 7.77783H40.4445L40.2049 10.8889H46.9063L46.6667 7.77783Z" fill="#171923"/>
<path d="M16.2741 17.1111H8.61457L8.37657 20.2222H16.5121L16.2741 17.1111ZM15.795 10.8889H9.09368L8.85413 14H16.0346L15.795 10.8889ZM8.13702 23.3334L7.89746 26.4445H16.9912L16.7517 23.3334H8.13702ZM31.8297 17.1111H24.1701L23.9321 20.2222H32.0677L31.8297 17.1111ZM31.3506 10.8889H24.6492L24.4097 14H31.5901L31.3506 10.8889ZM23.6926 23.3334L23.453 26.4445H32.5468L32.3072 23.3334H23.6926ZM47.3852 17.1111H39.7257L39.4877 20.2222H47.6232L47.3852 17.1111ZM47.8628 23.3334H39.2481L39.0086 26.4445H48.1024L47.8628 23.3334ZM46.9061 10.8889H40.2048L39.9652 14H47.1457L46.9061 10.8889Z" fill="#171923"/>
<path d="M54.4445 52.8889C54.4445 53.714 54.1168 54.5053 53.5333 55.0888C52.9499 55.6722 52.1586 56 51.3334 56H4.66677C3.84166 56 3.05033 55.6722 2.46689 55.0888C1.88344 54.5053 1.55566 53.714 1.55566 52.8889V31.1111C1.55566 30.286 1.88344 29.4947 2.46689 28.9112C3.05033 28.3278 3.84166 28 4.66677 28H51.3334C52.1586 28 52.9499 28.3278 53.5333 28.9112C54.1168 29.4947 54.4445 30.286 54.4445 31.1111V52.8889Z" fill="#171923"/>
<path d="M1.55566 31.1111H54.4445V34.2222H1.55566V31.1111Z" fill="#171923"/>
<path d="M9.33325 37.3334H15.5555V43.5556H9.33325V37.3334ZM24.8888 37.3334H31.111V43.5556H24.8888V37.3334ZM40.4444 37.3334H46.6666V43.5556H40.4444V37.3334ZM9.33325 46.6667H15.5555V52.8889H9.33325V46.6667ZM24.8888 46.6667H31.111V52.8889H24.8888V46.6667ZM40.4444 46.6667H46.6666V52.8889H40.4444V46.6667Z" fill="#AAB8C2"/>
<path d="M14 0C13.1749 0 12.3836 0.327777 11.8001 0.911223C11.2167 1.49467 10.8889 2.28599 10.8889 3.11111C10.8889 3.822 11.1362 4.46911 11.5376 4.99178C11.3398 5.13089 11.1778 5.31497 11.0651 5.52888C10.9523 5.7428 10.8919 5.98042 10.8889 6.22222C10.8889 6.63478 11.0528 7.03044 11.3445 7.32217C11.6363 7.61389 12.0319 7.77778 12.4445 7.77778C12.857 7.77778 13.2527 7.61389 13.5444 7.32217C13.8361 7.03044 14 6.63478 14 6.22222C14.8251 6.22222 15.6165 5.89445 16.1999 5.311C16.7834 4.72755 17.1111 3.93623 17.1111 3.11111C17.1111 2.28599 16.7834 1.49467 16.1999 0.911223C15.6165 0.327777 14.8251 0 14 0V0ZM29.5556 0C28.7305 0 27.9391 0.327777 27.3557 0.911223C26.7722 1.49467 26.4445 2.28599 26.4445 3.11111C26.4445 3.822 26.6918 4.46911 27.0931 4.99178C26.8953 5.13089 26.7334 5.31497 26.6206 5.52888C26.5079 5.7428 26.4475 5.98042 26.4445 6.22222C26.4445 6.63478 26.6084 7.03044 26.9001 7.32217C27.1918 7.61389 27.5875 7.77778 28 7.77778C28.4126 7.77778 28.8082 7.61389 29.1 7.32217C29.3917 7.03044 29.5556 6.63478 29.5556 6.22222C30.3807 6.22222 31.172 5.89445 31.7555 5.311C32.3389 4.72755 32.6667 3.93623 32.6667 3.11111C32.6667 2.28599 32.3389 1.49467 31.7555 0.911223C31.172 0.327777 30.3807 0 29.5556 0V0ZM45.1111 0C44.286 0 43.4947 0.327777 42.9112 0.911223C42.3278 1.49467 42 2.28599 42 3.11111C42 3.822 42.2474 4.46911 42.6487 4.99178C42.4509 5.13089 42.289 5.31497 42.1762 5.52888C42.0634 5.7428 42.003 5.98042 42 6.22222C42 6.63478 42.1639 7.03044 42.4556 7.32217C42.7474 7.61389 43.143 7.77778 43.5556 7.77778C43.9681 7.77778 44.3638 7.61389 44.6555 7.32217C44.9473 7.03044 45.1111 6.63478 45.1111 6.22222C45.9363 6.22222 46.7276 5.89445 47.311 5.311C47.8945 4.72755 48.2222 3.93623 48.2222 3.11111C48.2222 2.28599 47.8945 1.49467 47.311 0.911223C46.7276 0.327777 45.9363 0 45.1111 0V0Z" fill="#D1D3D4"/>
</g>
<defs>
<clipPath id="clip0_315_1082">
<rect width="56" height="56" fill="white"/>
</clipPath>
</defs>
</svg>
