<svg width="24" height="24" viewBox="0 0 24 24" fill="none" xmlns="http://www.w3.org/2000/svg">
<path d="M20.625 21.375H3.375C2.96016 21.375 2.625 21.0398 2.625 20.625V3.375C2.625 2.96016 2.96016 2.625 3.375 2.625H11.8125C11.9156 2.625 12 2.70938 12 2.8125V4.125C12 4.22812 11.9156 4.3125 11.8125 4.3125H4.3125V19.6875H19.6875V12.1875C19.6875 12.0844 19.7719 12 19.875 12H21.1875C21.2906 12 21.375 12.0844 21.375 12.1875V20.625C21.375 21.0398 21.0398 21.375 20.625 21.375Z" fill="#2D3748"/>
<path d="M17.989 4.7476L16.7656 3.52417C16.7408 3.49926 16.7235 3.4679 16.7156 3.43365C16.7078 3.3994 16.7097 3.36364 16.7212 3.33043C16.7327 3.29722 16.7532 3.2679 16.7806 3.2458C16.8079 3.2237 16.8408 3.2097 16.8757 3.20542L21.0804 2.71323C21.1999 2.69917 21.3031 2.79995 21.289 2.92182L20.7968 7.12651C20.7781 7.2812 20.5882 7.34682 20.4781 7.23667L19.2499 6.00854L13.2452 12.0132C13.1726 12.0859 13.0531 12.0859 12.9804 12.0132L11.9867 11.0195C11.914 10.9468 11.914 10.8273 11.9867 10.7546L17.989 4.7476Z" fill="#2D3748"/>
</svg>
