<svg width="80" height="80" viewBox="0 0 80 80" fill="none" xmlns="http://www.w3.org/2000/svg">
<path d="M27.1875 52.8203C19.5312 48.3906 14.375 40.1094 14.375 30.625C14.375 16.4766 25.8516 5 40 5C54.1484 5 65.625 16.4766 65.625 30.625C65.625 40.1094 60.4688 48.3906 52.8125 52.8203V61.875C52.8125 63.2578 51.6953 64.375 50.3125 64.375H29.6875C28.3047 64.375 27.1875 63.2578 27.1875 61.875V52.8203ZM30.625 69.375H49.375C49.7188 69.375 50 69.6562 50 70V72.5C50 73.8828 48.8828 75 47.5 75H32.5C31.1172 75 30 73.8828 30 72.5V70C30 69.6562 30.2812 69.375 30.625 69.375Z" fill="white"/>
</svg>
