<svg width="48" height="48" viewBox="0 0 48 48" fill="none" xmlns="http://www.w3.org/2000/svg">
<path d="M44.9651 45.6655C43.7511 46.9106 42.0935 47.6499 39.9923 47.8834C37.8911 48.1169 35.5487 47.7745 32.9651 46.8562C30.3814 45.9379 27.8756 44.4982 25.4476 42.5371C24.2336 41.541 22.8483 40.7783 21.2919 40.2492C19.7355 39.72 18.2491 39.3853 16.8328 39.2453C15.4164 39.1052 14.0234 38.9807 12.6538 38.8717C11.2842 38.7628 10.0001 38.5293 8.80166 38.1713C7.60322 37.8134 6.64602 37.2608 5.93007 36.5138C3.4398 33.9924 1.71996 30.7939 0.770541 26.9184C-0.178874 23.0429 -0.233349 19.1674 0.607117 15.292C1.44758 11.4165 3.11295 8.21802 5.60322 5.69662C8.09349 3.17522 11.2452 1.4865 15.0585 0.630467C18.8717 -0.225564 22.6849 -0.171089 26.4981 0.793892C30.3114 1.75887 33.4631 3.51763 35.9534 6.07016C37.4787 7.59545 39.0118 9.69662 40.5526 12.3737C42.0935 15.0507 43.4476 17.9768 44.6149 21.1519C45.7822 24.327 46.6771 27.4709 47.2997 30.5838C47.9223 33.6966 48.0546 36.6149 47.6966 39.3387C47.3386 42.0624 46.4281 44.1713 44.9651 45.6655ZM34.4125 9.01179C32.6694 7.23747 30.6227 5.82113 28.2725 4.76276C25.9223 3.7044 23.4865 3.12852 20.9651 3.03514C18.5371 2.97288 16.1557 3.37755 13.8211 4.24915C11.4865 5.12074 9.50984 6.36588 7.89116 7.98456C4.43591 11.5021 2.81723 15.8289 3.03513 20.9651C3.09739 23.0818 3.48649 25.2686 4.20245 27.5254C4.9184 29.7822 5.7433 31.7511 6.67715 33.432C7.14408 34.2414 7.96898 34.8328 9.15186 35.2064C10.3347 35.5799 11.6966 35.8134 13.2375 35.9067C14.7783 36.0001 16.3581 36.0935 17.9768 36.1869C19.5954 36.2803 21.2297 36.5449 22.8795 36.9807C24.5293 37.4165 25.8834 38.0702 26.9417 38.9418C29.1518 40.7472 31.2141 42.1169 33.1285 43.0507C35.0429 43.9846 36.7939 44.4748 38.3814 44.5215C39.969 44.5682 41.2919 44.0468 42.3503 42.9573C43.6265 41.6499 44.4203 39.8289 44.7316 37.4943C45.0429 35.1597 44.9184 32.6616 44.3581 30.0001C43.7977 27.3387 43.0118 24.6538 42.0001 21.9457C40.9884 19.2375 39.8055 16.7472 38.4514 14.4748C37.0974 12.2025 35.7511 10.3814 34.4125 9.01179ZM26.9417 35.9534C25.8211 35.0196 24.2803 34.3192 22.3192 33.8523C20.3581 33.3853 18.5137 33.113 16.7861 33.0352C15.0585 32.9573 13.432 32.8017 11.9067 32.5682C10.3814 32.3348 9.41645 31.9534 9.01178 31.4243C7.17521 29.1208 6.1791 25.8211 6.02346 21.5254C5.83669 17.1052 7.2219 13.3698 10.1791 10.3192C11.5487 8.91841 13.2375 7.8367 15.2452 7.07405C17.253 6.3114 19.2997 5.96121 21.3853 6.02347C23.5332 6.08572 25.6188 6.58378 27.6421 7.51763C29.6655 8.45148 31.4242 9.68106 32.9184 11.2063C35.1285 13.4476 37.1752 16.9651 39.0585 21.7589C40.9417 26.5527 41.8834 30.7861 41.8834 34.4593C41.8834 35.9846 41.7977 37.1908 41.6265 38.078C41.4553 38.9651 41.0429 39.7511 40.3892 40.4359C38.0234 42.8328 33.5409 41.3387 26.9417 35.9534ZM16.4826 12.0001C15.2375 12.0001 14.1791 12.4437 13.3075 13.3309C12.4359 14.218 12.0001 15.2764 12.0001 16.506C12.0001 17.7355 12.4359 18.7861 13.3075 19.6577C14.1791 20.5293 15.2375 20.9651 16.4826 20.9651C17.7277 20.9651 18.7861 20.5293 19.6577 19.6577C20.5293 18.7861 20.9651 17.7355 20.9651 16.506C20.9651 15.2764 20.5293 14.218 19.6577 13.3309C18.7861 12.4437 17.7277 12.0001 16.4826 12.0001Z" fill="#3182CE"/>
</svg>
