<svg width="41" height="40" viewBox="0 0 41 40" fill="none" xmlns="http://www.w3.org/2000/svg">
<path d="M36.0015 8H28.0015V4C28.0015 1.8 26.2015 0 24.0015 0H16.0015C13.8015 0 12.0015 1.8 12.0015 4V8H4.00146C1.80146 8 0.00146484 9.8 0.00146484 12V36C0.00146484 38.2 1.80146 40 4.00146 40H36.0015C38.2015 40 40.0015 38.2 40.0015 36V12C40.0015 9.8 38.2015 8 36.0015 8ZM16.0015 4H24.0015V8H16.0015V4ZM26.0015 26H22.0015V30C22.0015 31.1 21.1015 32 20.0015 32C18.9015 32 18.0015 31.1 18.0015 30V26H14.0015C12.9015 26 12.0015 25.1 12.0015 24C12.0015 22.9 12.9015 22 14.0015 22H18.0015V18C18.0015 16.9 18.9015 16 20.0015 16C21.1015 16 22.0015 16.9 22.0015 18V22H26.0015C27.1015 22 28.0015 22.9 28.0015 24C28.0015 25.1 27.1015 26 26.0015 26Z" fill="#3182CE"/>
</svg>
