<svg width="80" height="80" viewBox="0 0 80 80" fill="none" xmlns="http://www.w3.org/2000/svg">
<path d="M52.8334 27.1333C54.1334 27.1333 55.4001 27.2333 56.6334 27.4C54.3667 17.5 43.9667 10 31.4667 10C17.3 10 5.80005 19.6 5.80005 31.4333C5.80005 38.2667 9.63338 44.3 15.6 48.2333L12.2334 55L21.4334 51.0333C23.4 51.7333 25.4667 52.3 27.6667 52.6C27.3667 51.3 27.2001 49.9667 27.2001 48.5667C27.1667 36.7667 38.6667 27.1333 52.8334 27.1333ZM40 19.6333C40.4203 19.6333 40.8364 19.7161 41.2246 19.8769C41.6129 20.0377 41.9656 20.2734 42.2628 20.5706C42.5599 20.8677 42.7957 21.2205 42.9565 21.6087C43.1173 21.997 43.2001 22.4131 43.2001 22.8333C43.2001 23.2536 43.1173 23.6697 42.9565 24.0579C42.7957 24.4462 42.5599 24.7989 42.2628 25.0961C41.9656 25.3932 41.6129 25.6289 41.2246 25.7897C40.8364 25.9506 40.4203 26.0333 40 26.0333C39.1514 26.0333 38.3374 25.6962 37.7373 25.0961C37.1372 24.496 36.8001 23.682 36.8001 22.8333C36.8001 21.9846 37.1372 21.1707 37.7373 20.5706C38.3374 19.9705 39.1514 19.6333 40 19.6333ZM22.9 26.0667C22.0514 26.0667 21.2374 25.7295 20.6373 25.1294C20.0372 24.5293 19.7 23.7154 19.7 22.8667C19.7 22.018 20.0372 21.204 20.6373 20.6039C21.2374 20.0038 22.0514 19.6667 22.9 19.6667C23.7487 19.6667 24.5627 20.0038 25.1628 20.6039C25.7629 21.204 26.1 22.018 26.1 22.8667C26.1 23.7154 25.7629 24.5293 25.1628 25.1294C24.5627 25.7295 23.7487 26.0667 22.9 26.0667Z" fill="white"/>
<path d="M74.1999 48.5669C74.1999 39.1003 64.6332 31.4336 52.8332 31.4336C41.0332 31.4336 31.4666 39.1003 31.4666 48.5669C31.4666 58.0336 41.0332 65.7003 52.8332 65.7003C54.7666 65.7003 56.6332 65.4336 58.3999 65.0336L69.9332 70.0003L65.9332 62.0003C70.9332 58.8669 74.1999 54.0669 74.1999 48.5669ZM46.3999 47.5003C45.767 47.5003 45.1483 47.3126 44.6221 46.961C44.0958 46.6093 43.6857 46.1096 43.4435 45.5248C43.2013 44.9401 43.1379 44.2967 43.2614 43.676C43.3848 43.0552 43.6896 42.485 44.1371 42.0375C44.5847 41.59 45.1549 41.2852 45.7756 41.1617C46.3963 41.0383 47.0397 41.1016 47.6245 41.3438C48.2092 41.586 48.709 41.9962 49.0606 42.5224C49.4122 43.0487 49.5999 43.6674 49.5999 44.3003C49.6332 46.0669 48.1666 47.5003 46.3999 47.5003ZM59.2332 47.5003C58.3845 47.5003 57.5706 47.1631 56.9705 46.563C56.3704 45.9629 56.0332 45.149 56.0332 44.3003C56.0332 43.4516 56.3704 42.6376 56.9705 42.0375C57.5706 41.4374 58.3845 41.1003 59.2332 41.1003C60.0819 41.1003 60.8958 41.4374 61.496 42.0375C62.0961 42.6376 62.4332 43.4516 62.4332 44.3003C62.4332 45.149 62.0961 45.9629 61.496 46.563C60.8958 47.1631 60.0819 47.5003 59.2332 47.5003Z" fill="white"/>
</svg>
