<svg width="48" height="48" viewBox="0 0 48 48" fill="none" xmlns="http://www.w3.org/2000/svg">
<path fill-rule="evenodd" clip-rule="evenodd" d="M30 37.864C28.068 38 25.996 38 23.92 38C21.892 38 19.878 38 18 37.874V42H12V40L13.422 37.154C10.18 36.212 8 34.22 8 30V14C8 6 15.91 6 24 6C32.09 6 40 6 40 14V30C40 34.184 37.81 36.18 34.566 37.132L36 40V42H30V37.864ZM14 32C14.5304 32 15.0391 31.7893 15.4142 31.4142C15.7893 31.0391 16 30.5304 16 30C16 29.4696 15.7893 28.9609 15.4142 28.5858C15.0391 28.2107 14.5304 28 14 28C13.4696 28 12.9609 28.2107 12.5858 28.5858C12.2107 28.9609 12 29.4696 12 30C12 30.5304 12.2107 31.0391 12.5858 31.4142C12.9609 31.7893 13.4696 32 14 32ZM34 32C34.5304 32 35.0391 31.7893 35.4142 31.4142C35.7893 31.0391 36 30.5304 36 30C36 29.4696 35.7893 28.9609 35.4142 28.5858C35.0391 28.2107 34.5304 28 34 28C33.4696 28 32.9609 28.2107 32.5858 28.5858C32.2107 28.9609 32 29.4696 32 30C32 30.5304 32.2107 31.0391 32.5858 31.4142C32.9609 31.7893 33.4696 32 34 32ZM12 12V24H36V12H12Z" fill="#3182CE"/>
</svg>
