<svg width="27" height="48" viewBox="0 0 27 48" fill="none" xmlns="http://www.w3.org/2000/svg">
<path fill-rule="evenodd" clip-rule="evenodd" d="M21.411 47.9522H5.65504C2.61604 47.9522 0.144043 45.7112 0.144043 42.9542V21.0662C0.144043 19.8062 1.47604 16.8752 3.66304 12.1982C4.92904 9.50419 6.65104 5.81719 6.66904 5.07319C6.66904 4.70119 6.04204 4.01719 5.61904 3.56419C4.90504 2.7932 4.16704 1.9922 4.62904 1.0802C5.07304 0.198195 6.29104 0.0751953 7.55104 0.0751953H19.5C21.09 0.0871953 22.23 0.273195 22.659 1.1372C23.103 2.0522 22.338 2.8682 21.663 3.5912C21.246 4.0322 20.619 4.69819 20.619 5.0702C20.625 5.8202 22.305 9.55219 23.544 12.2732C25.647 16.9082 26.922 19.8152 26.922 21.0632V42.9512C26.922 45.7112 24.444 47.9522 21.411 47.9522ZM7.62904 3.1232C8.28604 3.8492 8.98804 4.8782 8.98804 5.9402C8.98804 6.98119 8.01604 9.27919 6.09304 13.4582C4.74604 16.3712 2.91604 20.3552 2.91604 21.2582V42.3872C2.91604 43.9862 4.34104 45.2852 6.08104 45.2852H20.97C22.722 45.2852 24.144 43.9862 24.144 42.3872V21.2582C24.144 20.3552 22.383 16.4012 21.09 13.5182C19.278 9.43519 18.057 6.97519 18.057 5.9252C18.057 4.85119 18.984 3.85819 19.65 3.1352C19.698 3.0782 19.422 2.9312 19.149 2.9312H7.88104C7.72204 2.9312 7.57804 3.0632 7.62904 3.1232Z" fill="#3182CE"/>
<path fill-rule="evenodd" clip-rule="evenodd" d="M20.8888 39.2761C20.8888 41.3791 19.3258 41.9371 17.3968 41.9371H9.70482C7.77582 41.9371 6.21582 41.3791 6.21582 39.2761V19.6141C6.21582 17.5111 8.10582 24.2161 12.1708 21.0361C16.2388 17.8681 20.8888 17.5111 20.8888 19.6141V39.2761Z" fill="#3182CE"/>
</svg>
