<svg width="38" height="38" viewBox="0 0 38 38" fill="none" xmlns="http://www.w3.org/2000/svg">
<path d="M35.6875 2.5H31.375V0.625C31.375 0.41875 31.2062 0.25 31 0.25H7C6.79375 0.25 6.625 0.41875 6.625 0.625V2.5H2.3125C1.76549 2.5 1.24089 2.7173 0.854092 3.10409C0.467298 3.49089 0.25 4.01549 0.25 4.5625V11.5C0.25 15.3297 3.0625 18.5125 6.72812 19.0938C7.45469 24.5406 11.8281 28.8297 17.3125 29.4297V34.3609H8.125C7.29531 34.3609 6.625 35.0312 6.625 35.8609V37.375C6.625 37.5812 6.79375 37.75 7 37.75H31C31.2062 37.75 31.375 37.5812 31.375 37.375V35.8609C31.375 35.0312 30.7047 34.3609 29.875 34.3609H20.6875V29.4297C26.1719 28.8297 30.5453 24.5406 31.2719 19.0938C34.9375 18.5125 37.75 15.3297 37.75 11.5V4.5625C37.75 4.01549 37.5327 3.49089 37.1459 3.10409C36.7591 2.7173 36.2345 2.5 35.6875 2.5ZM3.625 11.5V5.875H6.625V15.6063C5.75428 15.3281 4.99447 14.7805 4.45524 14.0424C3.91602 13.3044 3.62528 12.4141 3.625 11.5ZM28 17.5C28 19.8016 27.1047 21.9719 25.4734 23.5984C23.8422 25.2297 21.6766 26.125 19.375 26.125H18.625C16.3234 26.125 14.1531 25.2297 12.5266 23.5984C10.8953 21.9672 10 19.8016 10 17.5V3.625H28V17.5ZM34.375 11.5C34.375 13.4219 33.1141 15.0531 31.375 15.6063V5.875H34.375V11.5Z" fill="#38A169"/>
</svg>
