<svg width="32" height="32" viewBox="0 0 32 32" fill="none" xmlns="http://www.w3.org/2000/svg">
<path d="M16 32C24.8366 32 32 24.8366 32 16C32 7.16344 24.8366 0 16 0C7.16344 0 0 7.16344 0 16C0 24.8366 7.16344 32 16 32Z" fill="#88C9F9"/>
<path d="M26.7822 21.1093C25.8782 20.7627 26.0391 20.8889 25.4817 19.704C24.9244 18.52 24.5866 18.1387 23.3333 18C22.0791 17.8622 22.1262 17.96 21.7777 17.3333C21.4293 16.7058 20.0159 17.5031 19.1111 17.8524C18.2035 18.2009 18.4275 18.96 18.1484 18.8889C17.5352 18.7467 16.9607 18.4715 16.4657 18.0827C15.7688 17.5244 16.9839 17.0889 17.3333 16.7413C17.6826 16.392 16.6755 16.5822 16.3262 16.3716C15.9768 16.1636 15.3519 16.7902 14.7946 16.2311C14.2364 15.6738 14.5857 14.8373 14.5164 14.1404C14.4462 13.4427 15.4213 13.304 16.0488 13.1644C16.6755 13.0258 17.1626 13.1653 17.1626 14.0009C17.1626 14.8373 17.9297 15.1164 17.7208 14.1396C17.5119 13.1627 17.9297 12.8853 18.2097 12.3973C18.4879 11.9093 18.9759 11.2116 19.6026 10.1662C20.2302 9.12089 20.6488 9.608 21.4151 9.68267C22.1822 9.75822 22.3911 9.60889 22.9484 9.67911C23.5039 9.74933 22.9484 8.98222 23.1582 8.216C23.3662 7.44978 24.1333 7.58844 24.9013 7.79822C25.6675 8.00711 24.1333 6.82133 23.8551 6.19467C23.5751 5.56711 22.8088 6.19467 22.3226 5.14933C21.8311 4.104 21.1457 3.42755 20.5182 3.33422C19.8906 3.24 20.7182 4.66222 20.2302 5.42844C19.7404 6.19467 18.9902 6.07467 18.2213 6.07467C17.4559 6.07467 16.7448 5.42844 17.3031 4.45244C17.8595 3.47733 18.9235 3.57778 19.4808 2.74133C20.0391 1.90578 17.4986 1.98222 16.5919 1.704C15.6853 1.42489 14.5973 1.42755 13.6915 2.12444C12.7848 2.82044 10.8462 3.03822 10.0791 3.31644C9.31284 3.59467 9.17506 2.85422 9.03639 2.296C8.97417 2.048 8.6915 1.96978 8.29328 1.97867C6.327 3.06843 4.61123 4.55861 3.25684 6.35289C3.4675 7.07022 4.48795 6.18489 4.68795 5.98489C4.89684 5.776 5.94217 6.05511 6.08084 6.82133C6.22039 7.58755 6.15106 8.42578 5.87284 9.12267C5.59372 9.81867 6.56972 10.7947 7.12706 11.7707C7.68528 12.7476 8.31195 12.7467 8.59106 12.7467C8.86928 12.7467 10.4728 13.3742 10.4026 14.1404C10.3333 14.9076 11.8666 15.6036 12.4942 16.0916C13.1217 16.5813 13.5182 17.0622 14.3324 17.2027C15.1475 17.3431 16.1004 18.6756 16.5182 18.816C16.8391 18.9227 17.3822 19.4356 17.7102 19.5947C17.2791 20.1404 16.4444 21.2613 16.4444 21.7778C16.4444 22.4764 17.3555 23.5742 17.7039 23.8524C18.0515 24.1298 19.0524 24.3413 19.2595 25.0373C19.4693 25.7342 19.1137 28.08 18.4879 28.7067C17.8586 29.3333 17.6302 30.8151 17.6302 30.8151C17.6302 30.8151 17.8515 31.296 18.5928 30.8151C19.4124 30.2844 20.7848 28.7733 21.3333 28.4444C22.4222 27.7858 23.44 27.0164 24.3706 26.1484C25.3466 25.2427 24.9928 24.608 25.4817 23.704C25.9697 22.7982 26.6008 22.8391 27.4364 22.0747C28.2737 21.3067 27.6888 21.4587 26.7822 21.1093V21.1093Z" fill="#5C913B"/>
</svg>