<svg width="16" height="16" viewBox="0 0 16 16" fill="none" xmlns="http://www.w3.org/2000/svg">
<path d="M10.1827 6.39911C9.71855 6.71087 9.2894 7.07177 8.90267 7.47556C8.84623 5.58889 8.3929 3.14889 5.8929 1.95423C5.39823 -0.736885 -0.370217 0.630226 0.145784 0.89156C1.17423 1.41156 1.72134 2.73511 2.38312 3.43156C3.56223 4.67245 4.87334 4.74889 5.52578 3.77734C7.06712 4.77911 7.16845 6.67911 7.12134 8.71023C7.11601 8.93467 7.11112 9.14356 7.11112 9.33334V15.5556C7.11112 16.0462 8.8889 16.0462 8.8889 15.5556V10.4489C9.12979 10.0249 9.83201 8.89111 10.8578 8.096C11.5627 8.71511 12.6987 8.51734 13.7302 7.43156C14.392 6.73512 14.7493 5.412 15.7778 4.89156C16.3205 4.61689 10.0885 3.11645 10.1827 6.39911Z" fill="#77B255"/>
</svg>
