<svg width="36" height="42" viewBox="0 0 36 42" fill="none" xmlns="http://www.w3.org/2000/svg">
<path d="M26.25 11.625V9.375C26.25 9.16875 26.0812 9 25.875 9H7.875C7.66875 9 7.5 9.16875 7.5 9.375V11.625C7.5 11.8313 7.66875 12 7.875 12H25.875C26.0812 12 26.25 11.8313 26.25 11.625ZM7.875 15.75C7.66875 15.75 7.5 15.9187 7.5 16.125V18.375C7.5 18.5812 7.66875 18.75 7.875 18.75H16.5C16.7062 18.75 16.875 18.5812 16.875 18.375V16.125C16.875 15.9187 16.7062 15.75 16.5 15.75H7.875ZM25.5 21.1875C19.9078 21.1875 15.375 25.7203 15.375 31.3125C15.375 36.9047 19.9078 41.4375 25.5 41.4375C31.0922 41.4375 35.625 36.9047 35.625 31.3125C35.625 25.7203 31.0922 21.1875 25.5 21.1875ZM30.5391 36.3516C29.1938 37.6969 27.4031 38.4375 25.5 38.4375C23.5969 38.4375 21.8062 37.6969 20.4609 36.3516C19.1156 35.0062 18.375 33.2156 18.375 31.3125C18.375 29.4094 19.1156 27.6187 20.4609 26.2734C21.8062 24.9281 23.5969 24.1875 25.5 24.1875C27.4031 24.1875 29.1938 24.9281 30.5391 26.2734C31.8844 27.6187 32.625 29.4094 32.625 31.3125C32.625 33.2156 31.8844 35.0062 30.5391 36.3516ZM29.6719 27.75H27.5953C27.4734 27.75 27.3609 27.8062 27.2906 27.9047L24.3141 32.0203L23.2312 30.525C23.1966 30.4767 23.1508 30.4374 23.0978 30.4105C23.0447 30.3836 22.986 30.3698 22.9266 30.3703H20.8594C20.5547 30.3703 20.3766 30.7172 20.5547 30.9656L24.0141 35.7516C24.1641 35.9578 24.4688 35.9578 24.6188 35.7516L29.9719 28.3453C30.1547 28.0969 29.9766 27.75 29.6719 27.75ZM14.625 36.9375H3.75V3.9375H30V20.0625C30 20.2687 30.1688 20.4375 30.375 20.4375H33C33.2062 20.4375 33.375 20.2687 33.375 20.0625V2.0625C33.375 1.23281 32.7047 0.5625 31.875 0.5625H1.875C1.04531 0.5625 0.375 1.23281 0.375 2.0625V38.8125C0.375 39.6422 1.04531 40.3125 1.875 40.3125H14.625C14.8313 40.3125 15 40.1437 15 39.9375V37.3125C15 37.1063 14.8313 36.9375 14.625 36.9375Z" fill="#38A169"/>
</svg>
