<svg width="38" height="30" viewBox="0 0 38 30" fill="none" xmlns="http://www.w3.org/2000/svg">
<path d="M37.375 26.0156H0.625C0.41875 26.0156 0.25 26.1844 0.25 26.3906V29.0156C0.25 29.2219 0.41875 29.3906 0.625 29.3906H37.375C37.5812 29.3906 37.75 29.2219 37.75 29.0156V26.3906C37.75 26.1844 37.5812 26.0156 37.375 26.0156ZM2.76719 20.1469L4.62812 21.9984C4.77344 22.1438 5.0125 22.1438 5.15781 21.9984L16.1594 11.0344L20.7344 15.5953C21.0162 15.8746 21.397 16.0313 21.7937 16.0313C22.1905 16.0313 22.5713 15.8746 22.8531 15.5953L35.2375 3.25781C35.3828 3.1125 35.3828 2.87344 35.2375 2.72813L33.3766 0.871877C33.3061 0.802089 33.2109 0.762939 33.1117 0.762939C33.0125 0.762939 32.9174 0.802089 32.8469 0.871877L21.7984 11.8875L17.2188 7.32656C16.9369 7.0473 16.5562 6.89062 16.1594 6.89062C15.7626 6.89062 15.3819 7.0473 15.1 7.32656L2.76719 19.6172C2.73212 19.6518 2.70428 19.693 2.68528 19.7385C2.66628 19.784 2.6565 19.8328 2.6565 19.882C2.6565 19.9313 2.66628 19.9801 2.68528 20.0256C2.70428 20.071 2.73212 20.1123 2.76719 20.1469Z" fill="#38A169"/>
</svg>
