<svg width="32" height="32" viewBox="0 0 32 32" fill="none" xmlns="http://www.w3.org/2000/svg">
<path d="M26.6677 25.7778C26.5108 25.7781 26.3567 25.7368 26.221 25.6581C26.0853 25.5794 25.9729 25.4661 25.8952 25.3298L22.1308 19.1289C21.8872 18.7031 21.9823 18.1698 22.4081 17.9253L26.8152 15.2587C26.9539 15.1796 27.2561 15.1111 27.4054 15.1111C27.7148 15.1111 28.0028 15.2871 28.1663 15.5742L30.9281 20.1271L31.0739 22.1111C31.3174 22.5369 30.2223 23.1636 29.7957 23.4071L27.1068 25.6604C26.9733 25.7376 26.8218 25.7781 26.6677 25.7778Z" fill="#3E721D"/>
<path d="M20.4446 28.4444C20.2088 28.4444 19.9827 28.3508 19.816 28.1841C19.6493 28.0174 19.5557 27.7913 19.5557 27.5556V22.2222C19.5557 21.9865 19.6493 21.7604 19.816 21.5937C19.9827 21.427 20.2088 21.3333 20.4446 21.3333H29.3334C30.9779 21.3333 30.7112 19.7502 30.7112 19.7502C30.7112 19.7502 31.0019 20.2498 31.0446 20.3289C31.3352 20.8747 31.5281 21.7084 31.0748 22.5556L28.329 27.9973C28.2001 28.2542 27.8926 28.4444 27.5557 28.4444H20.4446Z" fill="#77B255"/>
<path d="M19.5554 31.1111C19.3197 31.1111 19.0936 31.0174 18.927 30.8507L13.5936 25.5173C13.511 25.4349 13.4455 25.3369 13.4007 25.2291C13.356 25.1212 13.333 25.0056 13.333 24.8889C13.333 24.7721 13.356 24.6566 13.4007 24.5487C13.4455 24.4409 13.511 24.3429 13.5936 24.2604L18.927 18.9271C19.0513 18.8028 19.2096 18.7182 19.382 18.6839C19.5544 18.6496 19.7331 18.6672 19.8955 18.7345C20.0579 18.8018 20.1968 18.9157 20.2944 19.0618C20.3921 19.208 20.4443 19.3798 20.4443 19.5556V30.2222C20.4444 30.339 20.4215 30.4546 20.3769 30.5625C20.3322 30.6704 20.2668 30.7685 20.1842 30.851C20.1016 30.9336 20.0036 30.9991 19.8957 31.0437C19.7878 31.0883 19.6722 31.1112 19.5554 31.1111Z" fill="#77B255"/>
<path d="M18.3048 2.93244C18.3763 3.07219 18.4095 3.22838 18.4011 3.38514C18.3926 3.54189 18.3428 3.69362 18.2568 3.82489L14.4408 9.99378C14.1714 10.4053 13.6532 10.5618 13.2425 10.2924L8.86564 7.57778C8.70388 7.45221 8.56804 7.29644 8.46564 7.11911C8.39715 6.97829 8.36723 6.82182 8.37894 6.66566C8.39066 6.50951 8.44358 6.35925 8.53231 6.23022L11.3341 1.70222L13.0354 0.671999C13.3048 0.260443 14.3599 0.951999 14.7714 1.22222L17.999 2.59467C18.1286 2.67872 18.234 2.79515 18.3048 2.93244Z" fill="#3E721D"/>
<path d="M23.5056 7.26666C23.5587 7.37071 23.5908 7.48422 23.6 7.60068C23.6093 7.71715 23.5955 7.83429 23.5594 7.94541C23.5233 8.05653 23.4657 8.15945 23.3898 8.24828C23.3139 8.33712 23.2212 8.41012 23.1171 8.46311L18.3642 10.8844C18.1543 10.9912 17.9105 11.0102 17.6865 10.9374C17.4625 10.8646 17.2766 10.7058 17.1696 10.496L13.1322 2.576C12.3865 1.11022 11.0967 2.06667 11.0967 2.06667C11.0967 2.06667 11.4096 1.58133 11.4611 1.50666C11.8158 0.999998 12.47 0.450665 13.4309 0.469332L19.5278 0.444443C19.8158 0.444443 20.1242 0.630221 20.278 0.930665L23.5056 7.26666Z" fill="#77B255"/>
<path d="M26.2854 6.84889C26.3922 7.0587 26.4113 7.30229 26.3387 7.52622L24.0089 14.7004C23.9361 14.9246 23.7772 15.1107 23.5671 15.2177C23.3571 15.3247 23.1131 15.3439 22.8889 15.2711L15.7156 12.9396C15.5482 12.8855 15.4006 12.783 15.2914 12.645C15.1823 12.507 15.1164 12.3398 15.1023 12.1644C15.0887 11.9891 15.1273 11.8137 15.2134 11.6604C15.2995 11.5071 15.4291 11.3828 15.5858 11.3031L25.0898 6.46044C25.1937 6.40697 25.3072 6.3746 25.4237 6.36519C25.5402 6.35579 25.6574 6.36954 25.7685 6.40565C25.8797 6.44176 25.9826 6.49952 26.0713 6.57559C26.16 6.65167 26.2328 6.74455 26.2854 6.84889Z" fill="#77B255"/>
<path d="M2.99998 21.8151C3.08127 21.6811 3.19669 21.5711 3.33443 21.4963C3.47217 21.4214 3.62731 21.3846 3.78398 21.3893L11.0382 21.3938C11.5298 21.4089 11.9351 21.7671 11.9226 22.2578L11.9102 27.4089C11.9058 27.5689 11.8071 27.864 11.7298 27.9902C11.6458 28.1225 11.5283 28.2301 11.3891 28.3021C11.25 28.3741 11.0942 28.4079 10.9378 28.4L5.61332 28.3929L3.84176 27.4871C3.35198 27.472 3.38576 26.2116 3.3982 25.7218L2.87109 22.2516C2.87505 22.0973 2.9195 21.9468 2.99998 21.8151Z" fill="#3E721D"/>
<path d="M3.95642 15.1129C4.01706 15.0131 4.09675 14.9263 4.19095 14.8574C4.28515 14.7884 4.392 14.7387 4.50541 14.711C4.61883 14.6834 4.73657 14.6783 4.85193 14.6962C4.9673 14.7141 5.07801 14.7545 5.17775 14.8151L9.7342 17.5876C9.83404 17.6481 9.92095 17.7278 9.98996 17.822C10.059 17.9161 10.1087 18.023 10.1364 18.1365C10.1641 18.2499 10.1691 18.3677 10.1512 18.4831C10.1332 18.5985 10.0927 18.7092 10.032 18.8089L5.41242 26.4027C4.55909 27.8071 6.04975 28.4027 6.04975 28.4027C6.04975 28.4027 5.47198 28.3902 5.3822 28.3849C4.76353 28.3511 3.95198 28.0818 3.46309 27.2551L0.239977 22.0818C0.0879765 21.8373 0.0853098 21.4756 0.260421 21.1876L3.95642 15.1129Z" fill="#77B255"/>
<path d="M2.13954 12.968C2.26043 12.7689 2.45509 12.6231 2.68887 12.5644L10.0178 10.7813C10.1311 10.7535 10.2488 10.7483 10.3642 10.766C10.4796 10.7838 10.5903 10.8241 10.6901 10.8847C10.7898 10.9453 10.8766 11.025 10.9455 11.1192C11.0144 11.2134 11.064 11.3203 11.0915 11.4338L12.8755 18.7618C12.9163 18.9325 12.9058 19.1115 12.8452 19.2763C12.7846 19.441 12.6767 19.5842 12.535 19.6878C12.3933 19.7914 12.2241 19.8509 12.0488 19.8586C11.8734 19.8664 11.6996 19.8222 11.5493 19.7316L2.4382 14.1893C2.23679 14.0668 2.09221 13.8694 2.03621 13.6405C1.98022 13.4115 2.01738 13.1696 2.13954 12.968Z" fill="#77B255"/>
</svg>
