<svg width="48" height="48" viewBox="0 0 48 48" fill="none" xmlns="http://www.w3.org/2000/svg">
<path d="M39.375 9H36.75V5.625C36.75 5.00156 36.2484 4.5 35.625 4.5H7.875C7.25156 4.5 6.75 5.00156 6.75 5.625V18.375C6.75 18.9984 7.25156 19.5 7.875 19.5H35.625C36.2484 19.5 36.75 18.9984 36.75 18.375V12H38.25V21.375H21.7969C20.7609 21.375 19.9219 22.2141 19.9219 23.25V29.625H17.8594C17.6531 29.625 17.4844 29.7938 17.4844 30V40.6875C17.4844 40.7391 17.4938 40.7906 17.5125 40.8328C17.4938 40.9078 17.4844 40.9828 17.4844 41.0625C17.4844 43.2375 19.2469 45 21.4219 45C23.5969 45 25.3594 43.2375 25.3594 41.0625C25.3594 40.9828 25.35 40.9078 25.3313 40.8328C25.35 40.7859 25.3594 40.7391 25.3594 40.6875V30C25.3594 29.7938 25.1906 29.625 24.9844 29.625H22.9219V24.375H39.375C40.4109 24.375 41.25 23.5359 41.25 22.5V10.875C41.25 9.83906 40.4109 9 39.375 9Z" fill="#3182CE"/>
</svg>
