<svg width="48" height="48" viewBox="0 0 48 48" fill="none" xmlns="http://www.w3.org/2000/svg">
<path d="M2.78092 21.3481C3.08013 21.1733 3.42003 21.0811 3.76652 21.0811C4.11275 21.0811 4.45294 21.1733 4.75182 21.3481L7.69452 22.977C8.57684 19.0803 11.6994 16.2002 15.4161 16.2002H32.686C29.6125 18.1497 27.7774 21.5607 27.8443 25.2C27.7774 28.8391 29.6125 32.2501 32.686 34.1998H15.4161C11.6544 34.1998 8.48658 31.23 7.65826 27.2612L4.43648 28.3683V28.368C4.22766 28.4388 4.0089 28.4753 3.78863 28.4759C3.37521 28.4768 2.97235 28.3478 2.63664 28.1071C2.11293 27.7334 1.80137 27.1305 1.79952 26.4872V23.0674C1.79681 22.7197 1.8863 22.3777 2.05866 22.0758C2.23102 21.7739 2.47991 21.5229 2.78034 21.3484L2.78092 21.3481Z" fill="#3182CE"/>
<path d="M29.0513 25.1995C29.0513 20.2406 32.6512 16.1997 37.0252 16.1997C41.3989 16.1997 44.999 20.2405 44.999 25.1995C44.999 30.1586 41.3991 34.1994 37.0252 34.1994C32.6515 34.1994 29.0513 30.1586 29.0513 25.1995ZM40.9215 26.2074C41.3291 26.2074 41.6968 25.9619 41.8528 25.5852C42.0089 25.2085 41.9224 24.7749 41.6344 24.4869C41.346 24.1985 40.9124 24.1123 40.5358 24.2684C40.1591 24.4242 39.9135 24.7918 39.9135 25.1995C39.9135 25.4668 40.0199 25.7232 40.2088 25.9121C40.3977 26.1014 40.6542 26.2074 40.9215 26.2074ZM37.0247 30.8873C37.4306 30.8801 37.7928 30.63 37.9431 30.2527C38.0935 29.8755 38.0028 29.4448 37.7132 29.1604C37.4233 28.876 36.9915 28.7928 36.617 28.9498C36.2424 29.1068 35.999 29.4732 35.9987 29.8794C36.0011 30.1491 36.1105 30.4067 36.303 30.5957C36.4952 30.7849 36.755 30.8897 37.0247 30.8873L37.0247 30.8873ZM37.0247 21.9777C37.4306 21.9705 37.7928 21.7204 37.9431 21.3431C38.0935 20.9659 38.0028 20.5353 37.7132 20.2509C37.4233 19.9664 36.9915 19.8832 36.617 20.0402C36.2424 20.1972 35.999 20.5636 35.9987 20.9698C36.0011 21.2395 36.1105 21.4971 36.303 21.6861C36.4952 21.8753 36.755 21.9802 37.0247 21.9778L37.0247 21.9777ZM33.9919 24.0026C34.4047 24.0063 34.779 23.7598 34.9386 23.3789C35.0983 22.998 35.0118 22.5587 34.7199 22.2664C34.4279 21.9744 33.9883 21.8882 33.6077 22.0479C33.2268 22.2076 32.9803 22.5816 32.9839 22.9947C32.9888 23.5491 33.4371 23.9978 33.9918 24.0026L33.9919 24.0026Z" fill="#3182CE"/>
</svg>
