<svg width="48" height="48" viewBox="0 0 48 48" fill="none" xmlns="http://www.w3.org/2000/svg">
<path d="M18.0001 42.6667C19.841 42.6667 21.3334 41.1743 21.3334 39.3333C21.3334 37.4924 19.841 36 18.0001 36C16.1591 36 14.6667 37.4924 14.6667 39.3333C14.6667 41.1743 16.1591 42.6667 18.0001 42.6667Z" fill="#3182CE"/>
<path d="M35.3333 42.6667C37.1743 42.6667 38.6667 41.1743 38.6667 39.3333C38.6667 37.4924 37.1743 36 35.3333 36C33.4924 36 32 37.4924 32 39.3333C32 41.1743 33.4924 42.6667 35.3333 42.6667Z" fill="#3182CE"/>
<path d="M44.1332 8.5202C44.009 8.35884 43.8495 8.22808 43.6669 8.13795C43.4843 8.04781 43.2835 8.00069 43.0799 8.0002H12.2799L11.6799 6.09353C11.614 5.88881 11.4995 5.70307 11.3463 5.55216C11.1931 5.40124 11.0056 5.28964 10.7999 5.22686L5.33324 3.54686C5.16514 3.49521 4.98852 3.47717 4.81346 3.49378C4.6384 3.51038 4.46832 3.5613 4.31294 3.64364C3.99912 3.80992 3.76422 4.09405 3.6599 4.43353C3.55558 4.77301 3.5904 5.14002 3.75668 5.45383C3.92296 5.76764 4.20709 6.00255 4.54657 6.10686L9.33324 7.57353L15.4399 26.8669L13.2666 28.6535L13.0932 28.8269C12.5558 29.4492 12.2513 30.239 12.2318 31.0611C12.2123 31.8832 12.4791 32.6865 12.9866 33.3335C13.35 33.7755 13.8118 34.1262 14.335 34.3578C14.8583 34.5893 15.4284 34.6951 15.9999 34.6669H38.2532C38.6069 34.6669 38.946 34.5264 39.196 34.2763C39.4461 34.0263 39.5866 33.6872 39.5866 33.3335C39.5866 32.9799 39.4461 32.6408 39.196 32.3907C38.946 32.1407 38.6069 32.0002 38.2532 32.0002H15.7866C15.633 31.995 15.4834 31.9502 15.3522 31.8703C15.2211 31.7903 15.1127 31.6779 15.0376 31.5439C14.9626 31.4098 14.9233 31.2587 14.9237 31.1051C14.9241 30.9514 14.9641 30.8005 15.0399 30.6669L18.2532 28.0002H38.8266C39.1312 28.0091 39.4296 27.9134 39.6722 27.729C39.9148 27.5446 40.0869 27.2827 40.1599 26.9869L44.4266 9.65353C44.4671 9.45476 44.4618 9.24935 44.4109 9.05295C44.3601 8.85655 44.2651 8.67434 44.1332 8.5202Z" fill="#3182CE"/>
</svg>
