<svg width="12" height="40" viewBox="0 0 12 40" fill="none" xmlns="http://www.w3.org/2000/svg">
<path d="M12 23.54C11.3748 24.1026 10.8748 24.7905 10.5326 25.5588C10.1904 26.3272 10.0135 27.1589 10.0135 28C10.0135 28.8411 10.1904 29.6728 10.5326 30.4412C10.8748 31.2095 11.3748 31.8974 12 32.46V36C12 37.0609 11.5786 38.0783 10.8284 38.8284C10.0783 39.5786 9.06087 40 8 40H4C2.93913 40 1.92172 39.5786 1.17157 38.8284C0.421428 38.0783 0 37.0609 0 36V32.46C0.625232 31.8974 1.12518 31.2095 1.4674 30.4412C1.80962 29.6728 1.98647 28.8411 1.98647 28C1.98647 27.1589 1.80962 26.3272 1.4674 25.5588C1.12518 24.7905 0.625232 24.1026 0 23.54V14C1.99312 10.9881 3.29743 7.57366 3.82 4H2V0H10V4H8.18C8.70257 7.57366 10.0069 10.9881 12 14V23.54Z" fill="#3182CE"/>
</svg>
