<svg width="36" height="48" viewBox="0 0 36 48" fill="none" xmlns="http://www.w3.org/2000/svg">
<path d="M22.0916 15H7.91094C6.41357 14.9999 4.97029 15.5598 3.86461 16.5695C2.75893 17.5793 2.07077 18.966 1.93531 20.4572L0.0265579 41.4572C-0.0488599 42.2874 0.0495537 43.1242 0.315523 43.9143C0.581492 44.7044 1.00918 45.4303 1.57132 46.0459C2.13345 46.6615 2.8177 47.1532 3.58042 47.4896C4.34315 47.8261 5.16761 47.9999 6.00125 48H24.0013C24.835 48 25.6595 47.8263 26.4224 47.4899C27.1852 47.1535 27.8696 46.6619 28.4318 46.0463C28.994 45.4307 29.4218 44.7046 29.6878 43.9145C29.9539 43.1244 30.0523 42.2875 29.9769 41.4572L28.0681 20.4572C27.9326 18.9658 27.2444 17.579 26.1385 16.5692C25.0326 15.5594 23.5891 14.9997 22.0916 15ZM15.0012 39C11.8962 39 9.37625 36.5316 9.37625 33.4922C9.37625 31.1484 12.7231 26.4169 14.2512 24.3731C14.3387 24.2568 14.4521 24.1624 14.5823 24.0975C14.7126 24.0326 14.8562 23.9989 15.0017 23.9991C15.1473 23.9992 15.2908 24.0333 15.4209 24.0986C15.551 24.1638 15.6641 24.2585 15.7512 24.375C17.2822 26.4188 20.6262 31.1503 20.6262 33.4941C20.6262 36.5316 18.1062 39 15.0012 39ZM35.5616 8.81812L31.5013 4.75688C30.3761 3.63195 28.8501 2.99999 27.2591 3H21.0012C21.0012 2.20435 20.6852 1.44129 20.1226 0.87868C19.56 0.316071 18.7969 0 18.0012 0L12.0012 0C11.2056 0 10.4425 0.316071 9.87993 0.87868C9.31732 1.44129 9.00125 2.20435 9.00125 3V12H21.0012V9H27.2591L31.3194 13.0603C31.4587 13.1996 31.624 13.3102 31.8061 13.3856C31.9881 13.461 32.1831 13.4998 32.3802 13.4998C32.5772 13.4998 32.7723 13.461 32.9543 13.3856C33.1363 13.3102 33.3017 13.1996 33.4409 13.0603L35.5616 10.9397C35.7009 10.8004 35.8114 10.635 35.8868 10.453C35.9622 10.271 36.001 10.0759 36.001 9.87891C36.001 9.68189 35.9622 9.48681 35.8868 9.3048C35.8114 9.12279 35.7009 8.95742 35.5616 8.81812Z" fill="#3182CE"/>
</svg>
