<svg width="48" height="48" viewBox="0 0 48 48" fill="none" xmlns="http://www.w3.org/2000/svg">
<path d="M12 9.24751C12 9.24751 12.9112 6.51001 15.06 4.79251C17.2087 3.07501 37.1287 10.4325 37.1287 10.4325C37.1287 10.4325 40.6087 11.6738 42.6675 14.9625C44.0512 17.175 44.8237 20.445 43.3575 24.3938C39.8625 33.7988 30.795 32.7113 28.4325 32.175C27.3225 31.9238 24.6187 31.2075 24.6187 31.2075C24.6187 31.2075 18.4425 36.3075 11.01 32.3963C5.35124 29.4188 6.05248 24.9675 6.05248 24.9675C6.05248 24.9675 2.24248 21.1575 3.89249 15.8513C5.87999 9.46126 12 9.24751 12 9.24751Z" fill="#5B9821"/>
<path d="M24.8888 20.6288C30.045 19.77 31.6538 17.5688 33.0525 15.5288C34.5938 13.2788 34.1813 11.3925 35.2538 11.34C36.3263 11.2875 37.1813 13.2225 36.0038 16.6013C34.3388 21.3788 30.915 22.08 30.8475 23.3663C30.795 24.3863 34.4925 24.4575 37.83 22.83C42.6638 20.4675 42.6638 14.9363 42.6638 14.9363C42.6638 14.9363 41.805 13.1625 40.14 11.9288C38.475 10.695 37.2375 10.05 37.2375 10.05C37.2375 10.05 35.25 2.5875 26.2313 1.35C17.2125 0.112502 13.5038 6.40125 13.5038 6.40125C13.5038 6.40125 13.8263 8.44125 15.3825 10.8038C16.6238 12.69 17.9063 12.63 17.7975 13.7025C17.7263 14.4 15.4875 14.6138 13.125 13.5938C10.9725 12.6638 10.44 11.3925 9.85127 11.3925C9.26252 11.3925 4.38002 14.1113 6.41627 19.875C8.02877 24.4388 13.3575 25.2938 14.31 25.4588C17.1038 25.9425 18.7125 24.1163 16.725 22.665C14.7375 21.2138 12.5363 20.355 13.02 18.9075C13.5413 17.34 15.4013 18.975 17.6363 19.9425C19.845 20.8988 22.5188 21.0263 24.8888 20.6288V20.6288Z" fill="#8BC02B"/>
<path d="M14.6362 26.6137C14.6362 26.6137 15.8737 26.5425 16.3837 26.3962C16.8937 26.25 17.5837 25.815 17.5837 25.815C17.5837 25.815 22.365 30.8175 22.86 31.2375C23.3437 31.6463 23.9137 25.4137 23.9137 25.4137C23.9137 25.4137 25.005 25.5825 26.025 25.4212C27.3675 25.2075 28.2825 24.78 28.2825 24.78C28.2825 24.78 27.63 28.6162 27.375 30.0712C27.2137 31.005 27.1575 33.6 27.1575 33.6L23.6625 36.51L21.0037 34.725C21.0037 34.725 20.9962 34.0237 20.6025 33.5475C19.38 32.07 14.6362 26.6137 14.6362 26.6137Z" fill="#6D4B41"/>
<path d="M26.8275 35.1675L29.4863 31.965C29.4863 31.965 30.4313 32.0362 31.125 32.0362C31.815 32.0362 33.0188 31.89 33.0188 31.89C33.0188 31.89 30.8363 34.8375 29.67 36.2925C28.5038 37.7475 26.9775 39.57 26.9775 39.57L25.5225 35.3475L26.8275 35.1675V35.1675Z" fill="#6D4B41"/>
<path d="M24.9375 32.6175C23.85 32.715 21.0075 34.7287 21.0075 34.7287C21.0075 34.7287 21.1537 38.1487 21.045 40.08C20.9362 42.0112 20.175 45.165 20.8762 45.9637C21.4837 46.6537 26.5912 46.785 27.3525 45.9825C28.1175 45.18 27.375 41.865 27.375 39.7162C27.375 37.5675 27.1575 33.6 27.1575 33.6C27.1575 33.6 26.175 32.5087 24.9375 32.6175V32.6175Z" fill="#865B50"/>
</svg>
