<svg width="40" height="39" viewBox="0 0 40 39" fill="none" xmlns="http://www.w3.org/2000/svg">
<path d="M38.5672 13.5516L26.6656 11.8219L21.3453 1.03593C21.2 0.740618 20.9609 0.501555 20.6656 0.356243C19.925 -0.0093821 19.025 0.295305 18.6547 1.03593L13.3343 11.8219L1.43278 13.5516C1.10465 13.5984 0.804654 13.7531 0.574966 13.9875C0.297286 14.2729 0.144272 14.6569 0.149546 15.055C0.15482 15.4532 0.31795 15.833 0.603091 16.1109L9.21403 24.5062L7.17966 36.3609C7.13195 36.6367 7.16247 36.9203 7.26774 37.1796C7.37302 37.4389 7.54885 37.6635 7.77529 37.828C8.00173 37.9925 8.26972 38.0902 8.54887 38.1101C8.82803 38.13 9.10717 38.0713 9.35466 37.9406L20 32.3438L30.6453 37.9406C30.9359 38.0953 31.2734 38.1469 31.5969 38.0906C32.4125 37.95 32.9609 37.1766 32.8203 36.3609L30.7859 24.5062L39.3969 16.1109C39.6312 15.8812 39.7859 15.5812 39.8328 15.2531C39.9594 14.4328 39.3875 13.6734 38.5672 13.5516Z" fill="#ECC94B"/>
</svg>
