<svg width="32" height="39" viewBox="0 0 32 39" fill="none" xmlns="http://www.w3.org/2000/svg">
<path d="M24 22.9998H23C21.6 20.3998 20.6 16.9998 19.6 13.5998L21.4 15.3998C26.8 19.5998 31.6 18.7998 31.6 18.7998C31.6 18.7998 33 11.1998 27.6 7.1998C23 3.5998 18.8 3.5998 17.6 3.7998C17.4 2.5998 17.4 1.5998 17.2 0.799805L14.4 0.999805C14.4 7.39981 9 19.1998 7.2 22.9998C3.2 23.3998 0 26.7998 0 30.9998C0 35.3998 3.6 38.9998 8 38.9998C10.2 38.9998 12 38.1998 13.4 36.7998C12.6 34.9998 12 32.9998 12 30.9998C12 28.9998 12.6 26.9998 13.4 25.1998C12.6 24.3998 11.4 23.7998 10.4 23.3998C11.8 20.3998 14.2 14.9998 15.8 9.7998C16.6 14.3998 18.2 19.7998 20.2 23.9998C17.8 25.3998 16 27.9998 16 30.9998C16 35.3998 19.6 38.9998 24 38.9998C28.4 38.9998 32 35.3998 32 30.9998C32 26.5998 28.4 22.9998 24 22.9998ZM8 27.9998C6.4 27.9998 5 29.3998 5 30.9998H3C3 28.1998 5.2 25.9998 8 25.9998V27.9998ZM24 27.9998C22.4 27.9998 21 29.3998 21 30.9998H19C19 28.1998 21.2 25.9998 24 25.9998V27.9998Z" fill="#3182CE"/>
</svg>
