<svg width="36" height="40" viewBox="0 0 36 40" fill="none" xmlns="http://www.w3.org/2000/svg">
<path d="M34 36C34.5304 36 35.0391 36.2107 35.4142 36.5858C35.7893 36.9609 36 37.4696 36 38C36 38.5304 35.7893 39.0391 35.4142 39.4142C35.0391 39.7893 34.5304 40 34 40C33.4696 40 32.9609 39.7893 32.5858 39.4142C32.2107 39.0391 32 38.5304 32 38C32 37.4696 32.2107 36.9609 32.5858 36.5858C32.9609 36.2107 33.4696 36 34 36ZM26 36C26.5304 36 27.0391 36.2107 27.4142 36.5858C27.7893 36.9609 28 37.4696 28 38C28 38.5304 27.7893 39.0391 27.4142 39.4142C27.0391 39.7893 26.5304 40 26 40C25.4696 40 24.9609 39.7893 24.5858 39.4142C24.2107 39.0391 24 38.5304 24 38C24 37.4696 24.2107 36.9609 24.5858 36.5858C24.9609 36.2107 25.4696 36 26 36ZM18 36C18.5304 36 19.0391 36.2107 19.4142 36.5858C19.7893 36.9609 20 37.4696 20 38C20 38.5304 19.7893 39.0391 19.4142 39.4142C19.0391 39.7893 18.5304 40 18 40C17.4696 40 16.9609 39.7893 16.5858 39.4142C16.2107 39.0391 16 38.5304 16 38C16 37.4696 16.2107 36.9609 16.5858 36.5858C16.9609 36.2107 17.4696 36 18 36ZM10 36C10.5304 36 11.0391 36.2107 11.4142 36.5858C11.7893 36.9609 12 37.4696 12 38C12 38.5304 11.7893 39.0391 11.4142 39.4142C11.0391 39.7893 10.5304 40 10 40C9.46957 40 8.96086 39.7893 8.58579 39.4142C8.21071 39.0391 8 38.5304 8 38C8 37.4696 8.21071 36.9609 8.58579 36.5858C8.96086 36.2107 9.46957 36 10 36ZM2 36C2.53043 36 3.03914 36.2107 3.41421 36.5858C3.78929 36.9609 4 37.4696 4 38C4 38.5304 3.78929 39.0391 3.41421 39.4142C3.03914 39.7893 2.53043 40 2 40C1.46957 40 0.960859 39.7893 0.585786 39.4142C0.210714 39.0391 0 38.5304 0 38C0 37.4696 0.210714 36.9609 0.585786 36.5858C0.960859 36.2107 1.46957 36 2 36ZM6 30C6.53043 30 7.03914 30.2107 7.41421 30.5858C7.78929 30.9609 8 31.4696 8 32C8 32.5304 7.78929 33.0391 7.41421 33.4142C7.03914 33.7893 6.53043 34 6 34C5.46957 34 4.96086 33.7893 4.58579 33.4142C4.21071 33.0391 4 32.5304 4 32C4 31.4696 4.21071 30.9609 4.58579 30.5858C4.96086 30.2107 5.46957 30 6 30ZM14 30C14.5304 30 15.0391 30.2107 15.4142 30.5858C15.7893 30.9609 16 31.4696 16 32C16 32.5304 15.7893 33.0391 15.4142 33.4142C15.0391 33.7893 14.5304 34 14 34C13.4696 34 12.9609 33.7893 12.5858 33.4142C12.2107 33.0391 12 32.5304 12 32C12 31.4696 12.2107 30.9609 12.5858 30.5858C12.9609 30.2107 13.4696 30 14 30ZM22 30C22.5304 30 23.0391 30.2107 23.4142 30.5858C23.7893 30.9609 24 31.4696 24 32C24 32.5304 23.7893 33.0391 23.4142 33.4142C23.0391 33.7893 22.5304 34 22 34C21.4696 34 20.9609 33.7893 20.5858 33.4142C20.2107 33.0391 20 32.5304 20 32C20 31.4696 20.2107 30.9609 20.5858 30.5858C20.9609 30.2107 21.4696 30 22 30ZM30 30C30.5304 30 31.0391 30.2107 31.4142 30.5858C31.7893 30.9609 32 31.4696 32 32C32 32.5304 31.7893 33.0391 31.4142 33.4142C31.0391 33.7893 30.5304 34 30 34C29.4696 34 28.9609 33.7893 28.5858 33.4142C28.2107 33.0391 28 32.5304 28 32C28 31.4696 28.2107 30.9609 28.5858 30.5858C28.9609 30.2107 29.4696 30 30 30ZM10 24C10.5304 24 11.0391 24.2107 11.4142 24.5858C11.7893 24.9609 12 25.4696 12 26C12 26.5304 11.7893 27.0391 11.4142 27.4142C11.0391 27.7893 10.5304 28 10 28C9.46957 28 8.96086 27.7893 8.58579 27.4142C8.21071 27.0391 8 26.5304 8 26C8 25.4696 8.21071 24.9609 8.58579 24.5858C8.96086 24.2107 9.46957 24 10 24ZM18 24C18.5304 24 19.0391 24.2107 19.4142 24.5858C19.7893 24.9609 20 25.4696 20 26C20 26.5304 19.7893 27.0391 19.4142 27.4142C19.0391 27.7893 18.5304 28 18 28C17.4696 28 16.9609 27.7893 16.5858 27.4142C16.2107 27.0391 16 26.5304 16 26C16 25.4696 16.2107 24.9609 16.5858 24.5858C16.9609 24.2107 17.4696 24 18 24ZM26 24C26.5304 24 27.0391 24.2107 27.4142 24.5858C27.7893 24.9609 28 25.4696 28 26C28 26.5304 27.7893 27.0391 27.4142 27.4142C27.0391 27.7893 26.5304 28 26 28C25.4696 28 24.9609 27.7893 24.5858 27.4142C24.2107 27.0391 24 26.5304 24 26C24 25.4696 24.2107 24.9609 24.5858 24.5858C24.9609 24.2107 25.4696 24 26 24ZM32 20H4V16H32V20ZM29.84 14H6.16C7 9 11 5 16 4.16V0H20V4.16C25 5 29 9 29.84 14Z" fill="#3182CE"/>
</svg>
