<svg width="48" height="48" viewBox="0 0 48 48" fill="none" xmlns="http://www.w3.org/2000/svg">
<path d="M24 48C37.2548 48 48 37.2548 48 24C48 10.7452 37.2548 0 24 0C10.7452 0 0 10.7452 0 24C0 37.2548 10.7452 48 24 48Z" fill="#88C9F9"/>
<path d="M40.1737 31.664C38.8177 31.144 39.0591 31.3333 38.2231 29.556C37.3871 27.78 36.8804 27.208 35.0004 27C33.1191 26.7933 33.1897 26.94 32.6671 26C32.1444 25.0587 30.0244 26.2547 28.6671 26.7787C27.3057 27.3013 27.6417 28.44 27.2231 28.3333C26.3033 28.1201 25.4416 27.7072 24.6991 27.124C23.6537 26.2867 25.4764 25.6333 26.0004 25.112C26.5244 24.588 25.0137 24.8733 24.4897 24.5573C23.9657 24.2453 23.0284 25.1853 22.1924 24.3467C21.3551 23.5107 21.8791 22.256 21.7751 21.2107C21.6697 20.164 23.1324 19.956 24.0737 19.7467C25.0137 19.5387 25.7444 19.748 25.7444 21.0013C25.7444 22.256 26.8951 22.6747 26.5817 21.2093C26.2684 19.744 26.8951 19.328 27.3151 18.596C27.7324 17.864 28.4644 16.8173 29.4044 15.2493C30.3457 13.6813 30.9737 14.412 32.1231 14.524C33.2737 14.6373 33.5871 14.4133 34.4231 14.5187C35.2564 14.624 34.4231 13.4733 34.7377 12.324C35.0497 11.1747 36.2004 11.3827 37.3524 11.6973C38.5017 12.0107 36.2004 10.232 35.7831 9.29199C35.3631 8.35066 34.2137 9.29199 33.4844 7.72399C32.7471 6.15599 31.7191 5.14133 30.7777 5.00133C29.8364 4.85999 31.0777 6.99333 30.3457 8.14266C29.6111 9.29199 28.4857 9.11199 27.3324 9.11199C26.1844 9.11199 25.1177 8.14266 25.9551 6.67866C26.7897 5.21599 28.3857 5.36666 29.2217 4.11199C30.0591 2.85866 26.2484 2.97333 24.8884 2.55599C23.5284 2.13733 21.8964 2.14133 20.5377 3.18666C19.1777 4.23066 16.2697 4.55733 15.1191 4.97466C13.9697 5.39199 13.7631 4.28133 13.5551 3.44399C13.4617 3.07199 13.0377 2.95466 12.4404 2.96799C9.49099 4.60265 6.91734 6.8379 4.88574 9.52933C5.20174 10.6053 6.73241 9.27733 7.03241 8.97733C7.34574 8.66399 8.91374 9.08266 9.12174 10.232C9.33108 11.3813 9.22708 12.6387 8.80974 13.684C8.39108 14.728 9.85508 16.192 10.6911 17.656C11.5284 19.1213 12.4684 19.12 12.8871 19.12C13.3044 19.12 15.7097 20.0613 15.6044 21.2107C15.5004 22.3613 17.8004 23.4053 18.7417 24.1373C19.6831 24.872 20.2777 25.5933 21.4991 25.804C22.7217 26.0147 24.1511 28.0133 24.7777 28.224C25.2591 28.384 26.0737 29.1533 26.5657 29.392C25.9191 30.2107 24.6671 31.892 24.6671 32.6667C24.6671 33.7147 26.0337 35.3613 26.5564 35.7787C27.0777 36.1947 28.5791 36.512 28.8897 37.556C29.2044 38.6013 28.6711 42.12 27.7324 43.06C26.7884 44 26.4457 46.2227 26.4457 46.2227C26.4457 46.2227 26.7777 46.944 27.8897 46.2227C29.1191 45.4267 31.1777 43.16 32.0004 42.6667C33.6337 41.6788 35.1605 40.5246 36.5564 39.2227C38.0204 37.864 37.4897 36.912 38.2231 35.556C38.9551 34.1973 39.9017 34.2587 41.1551 33.112C42.4111 31.96 41.5337 32.188 40.1737 31.664Z" fill="#5C913B"/>
</svg>
