<svg width="32" height="32" viewBox="0 0 32 32" fill="none" xmlns="http://www.w3.org/2000/svg">
<path d="M27.5553 28.4444C27.5553 29.3874 27.1807 30.2918 26.5139 30.9586C25.8471 31.6254 24.9428 32 23.9998 32H4.44423C3.50124 32 2.59687 31.6254 1.93007 30.9586C1.26327 30.2918 0.888672 29.3874 0.888672 28.4444V3.55556C0.888672 2.61256 1.26327 1.70819 1.93007 1.0414C2.59687 0.374602 3.50124 0 4.44423 0L23.9998 0C24.9428 0 25.8471 0.374602 26.5139 1.0414C27.1807 1.70819 27.5553 2.61256 27.5553 3.55556V28.4444Z" fill="#CCD6DD"/>
<path d="M23.9999 21.3333C23.9999 21.5691 23.9062 21.7952 23.7395 21.9619C23.5728 22.1286 23.3468 22.2222 23.111 22.2222H5.33322C5.09748 22.2222 4.87138 22.1286 4.70469 21.9619C4.53799 21.7952 4.44434 21.5691 4.44434 21.3333C4.44434 21.0976 4.53799 20.8715 4.70469 20.7048C4.87138 20.5381 5.09748 20.4445 5.33322 20.4445H23.111C23.3468 20.4445 23.5728 20.5381 23.7395 20.7048C23.9062 20.8715 23.9999 21.0976 23.9999 21.3333ZM9.77767 24.8889C9.77767 25.1246 9.68402 25.3507 9.51732 25.5174C9.35062 25.6841 9.12453 25.7778 8.88878 25.7778H5.33322C5.09748 25.7778 4.87138 25.6841 4.70469 25.5174C4.53799 25.3507 4.44434 25.1246 4.44434 24.8889C4.44434 24.6531 4.53799 24.4271 4.70469 24.2604C4.87138 24.0937 5.09748 24 5.33322 24H8.88878C9.12453 24 9.35062 24.0937 9.51732 24.2604C9.68402 24.4271 9.77767 24.6531 9.77767 24.8889ZM23.9999 7.11112C23.9999 7.34687 23.9062 7.57296 23.7395 7.73966C23.5728 7.90636 23.3468 8.00001 23.111 8.00001H5.33322C5.09748 8.00001 4.87138 7.90636 4.70469 7.73966C4.53799 7.57296 4.44434 7.34687 4.44434 7.11112C4.44434 6.87537 4.53799 6.64928 4.70469 6.48258C4.87138 6.31588 5.09748 6.22223 5.33322 6.22223H23.111C23.3468 6.22223 23.5728 6.31588 23.7395 6.48258C23.9062 6.64928 23.9999 6.87537 23.9999 7.11112ZM23.9999 10.6667C23.9999 10.9024 23.9062 11.1285 23.7395 11.2952C23.5728 11.4619 23.3468 11.5556 23.111 11.5556H5.33322C5.09748 11.5556 4.87138 11.4619 4.70469 11.2952C4.53799 11.1285 4.44434 10.9024 4.44434 10.6667C4.44434 10.4309 4.53799 10.2048 4.70469 10.0381C4.87138 9.87144 5.09748 9.77778 5.33322 9.77778H23.111C23.3468 9.77778 23.5728 9.87144 23.7395 10.0381C23.9062 10.2048 23.9999 10.4309 23.9999 10.6667ZM23.9999 14.2222C23.9999 14.458 23.9062 14.6841 23.7395 14.8508C23.5728 15.0175 23.3468 15.1111 23.111 15.1111H5.33322C5.09748 15.1111 4.87138 15.0175 4.70469 14.8508C4.53799 14.6841 4.44434 14.458 4.44434 14.2222C4.44434 13.9865 4.53799 13.7604 4.70469 13.5937C4.87138 13.427 5.09748 13.3333 5.33322 13.3333H23.111C23.3468 13.3333 23.5728 13.427 23.7395 13.5937C23.9062 13.7604 23.9999 13.9865 23.9999 14.2222ZM23.9999 17.7778C23.9999 18.0135 23.9062 18.2396 23.7395 18.4063C23.5728 18.573 23.3468 18.6667 23.111 18.6667H5.33322C5.09748 18.6667 4.87138 18.573 4.70469 18.4063C4.53799 18.2396 4.44434 18.0135 4.44434 17.7778C4.44434 17.542 4.53799 17.3159 4.70469 17.1492C4.87138 16.9825 5.09748 16.8889 5.33322 16.8889H23.111C23.3468 16.8889 23.5728 16.9825 23.7395 17.1492C23.9062 17.3159 23.9999 17.542 23.9999 17.7778Z" fill="#99AAB5"/>
<path d="M27.5555 5.5751C26.8204 5.09954 25.9227 5.06043 25.3147 5.55465L24.6107 6.12888L23.2915 7.20532L23.2027 7.27643L21.0907 8.9991L10.5324 17.6089C10.144 17.9262 9.82755 18.6924 9.48977 19.4524C9.15377 20.208 8.62843 21.9875 8.2071 23.3555C8.07555 23.5778 7.26043 24.9964 7.71732 25.536C8.17955 26.0827 9.78488 25.5449 9.99999 25.4684C11.4453 25.3138 13.3164 25.1369 14.1315 24.9529C14.9529 24.7653 15.7795 24.6018 16.168 24.2844C16.1751 24.2791 16.1769 24.2684 16.1831 24.264L26.7235 15.672L27.4275 15.0978L27.5555 14.9929V5.5751Z" fill="#66757F"/>
<path d="M16.1289 20.0231C16.1289 20.0231 14.9965 18.3511 14.2471 17.7538C13.6498 17.0045 11.9813 15.8729 11.9813 15.8729C11.5831 15.4765 10.9227 15.4462 10.5333 15.8347C10.1449 16.224 9.82845 17.0489 9.49067 17.8711C9.07112 18.8898 8.35645 21.5636 7.91912 22.984C7.84534 23.2258 8.37867 22.584 8.36623 22.7973C8.35734 22.9636 8.39023 23.1476 8.43201 23.3138L8.30223 23.4551L8.48712 23.5147C8.50934 23.5876 8.53156 23.6516 8.54756 23.7013L8.68889 23.5716C8.85512 23.6133 9.03912 23.6462 9.20445 23.6373C9.41778 23.6249 8.77512 24.1591 9.01778 24.0845C10.4382 23.6462 13.1129 22.9325 14.1307 22.5129C14.952 22.1742 15.7787 21.8587 16.1671 21.4693C16.5573 21.0827 16.528 20.4222 16.1289 20.0231Z" fill="#D99E82"/>
<path d="M22.4995 3.86755C22.3144 4.05232 22.1675 4.27179 22.0673 4.51339C21.9671 4.755 21.9155 5.01399 21.9155 5.27555C21.9155 5.53711 21.9671 5.7961 22.0673 6.0377C22.1675 6.2793 22.3144 6.49877 22.4995 6.68355L25.3146 9.49955C25.6883 9.87256 26.1947 10.0821 26.7226 10.0821C27.2506 10.0821 27.757 9.87256 28.1306 9.49955L30.9475 6.68355C31.3205 6.3099 31.53 5.80351 31.53 5.27555C31.53 4.74758 31.3205 4.24119 30.9475 3.86755L28.1306 1.05155C27.9457 0.866634 27.7262 0.719951 27.4846 0.619876C27.2431 0.519801 26.9841 0.468292 26.7226 0.468292C26.4611 0.468292 26.2022 0.519801 25.9606 0.619876C25.719 0.719951 25.4995 0.866634 25.3146 1.05155L22.4995 3.86755Z" fill="#EA596E"/>
<path d="M10.5322 15.8356L13.35 18.6533L16.1633 21.4676L26.7242 10.9085L21.0913 5.27646L10.5322 15.8356Z" fill="#FFCC4D"/>
<path d="M10.0428 23.7707C10.0428 23.7707 8.21172 24.7778 7.7175 24.2827C7.22239 23.7867 8.23395 21.9618 8.23395 21.9618C8.23395 21.9618 9.96817 21.9938 10.0428 23.7707Z" fill="#292F33"/>
<path d="M21.0918 5.27555L24.6118 1.75555L30.2438 7.38844L26.7238 10.9084L21.0918 5.27555Z" fill="#CCD6DD"/>
<path d="M23.2025 3.16268L23.9065 2.45868L29.5385 8.08979L28.8345 8.79379L23.2025 3.16268ZM21.7954 4.57068L22.4985 3.86757L28.1305 9.49868L27.4265 10.2027L21.7954 4.57068Z" fill="#99AAB5"/>
</svg>
