<svg width="32" height="32" viewBox="0 0 32 32" fill="none" xmlns="http://www.w3.org/2000/svg">
<path d="M5.514 19.2365C5.44467 20.056 5.79933 20.3013 6.35489 20.6907C6.90422 21.0756 10.2509 18.1422 11.3451 17.696C12.4393 17.2498 22.7113 15.0747 22.266 13.0889C21.8207 11.1031 18.7167 10.8098 16.3256 11.2151C13.9344 11.6205 9.35845 13.7236 8.02156 14.8587C6.68467 15.9929 5.514 19.2365 5.514 19.2365ZM13.178 20.5671C13.178 20.5671 10.0162 21.5938 10.0162 24.2605C10.0162 26.9271 10.786 28.4311 11.1504 29.1609C11.5158 29.8898 12.6509 30.5973 14.2216 29.9173C16.0456 29.1271 13.7851 24.5805 19.5549 26.6676C22.1984 27.6231 24.9407 28.9147 27.6073 28.0258C30.1371 27.1822 31.1113 24 31.1113 22.2222C31.1113 18.5831 28.4447 19.5556 27.5558 20.4445C26.6669 21.3333 19.5558 23.1111 18.6669 23.1111C17.778 23.1111 13.178 20.5671 13.178 20.5671Z" fill="#D2A077"/>
<path d="M17.1663 25.056C17.1663 25.056 17.0596 23.8862 15.9441 23.7502C15.0276 23.6391 13.5832 23.9449 12.833 25.4445C12.0828 26.9449 10.7494 26.6942 10.8054 27.944C10.8605 29.1938 11.2499 30.1662 12.0552 30.416C12.8614 30.6667 14.0001 30.2222 14.1388 28.8889C14.2774 27.5556 14.4445 26.3333 15.305 25.8053C16.1672 25.2782 17.1663 25.056 17.1663 25.056Z" fill="#E2C196"/>
<path d="M15.9998 23.1111C15.9998 23.1111 15.1109 22.2222 13.3332 22.2222C11.5554 22.2222 7.40961 24.1182 8.6665 27.8889C9.55538 30.5556 12.0834 29.3058 12.4443 26.6667C12.8061 24.024 15.9998 23.1111 15.9998 23.1111Z" fill="#D2A077"/>
<path d="M15.1111 23.1111C15.1111 23.1111 14.2222 22.2222 12.4444 22.2222C10.6666 22.2222 8.10216 23.5822 7.99994 27.5556C7.91639 30.8053 11.5831 29.3333 11.5555 26.6667C11.5279 24 15.1111 23.1111 15.1111 23.1111Z" fill="#E2C196"/>
<path d="M4.44434 24C4.44434 26.9307 4.85056 28.6987 6.60256 28.3973C9.50834 27.8978 8.40523 24.296 10.9483 23.2827C12.7946 22.5476 15.4826 22.7227 18.0772 24.2631C19.7866 25.2782 18.6666 21.3333 16.8888 20.4444C15.111 19.5556 9.77767 20.4444 8.88878 20.4444C7.99989 20.4444 4.44434 24 4.44434 24Z" fill="#D2A077"/>
<path d="M4.3039 24.1547C2.88968 26.5236 3.75013 28.9724 6.22213 28.4444C8.61413 27.9342 7.4159 24.8267 9.77768 23.1111C11.1012 22.1493 13.9537 21.8267 15.7315 22.7156C17.5092 23.6044 17.7777 21.3333 15.9999 20.4444C14.2221 19.5556 8.40879 20.4222 7.52168 20.4773C5.82479 20.5831 4.3039 24.1547 4.3039 24.1547Z" fill="#E2C196"/>
<path d="M8.37149 25.8791C8.22799 26.0437 8.05348 26.1784 7.85792 26.2755C7.66236 26.3726 7.44958 26.4302 7.23174 26.4451C7.01391 26.4599 6.79527 26.4317 6.58834 26.3621C6.3814 26.2924 6.19022 26.1827 6.02571 26.0391L5.85149 25.8871C5.68694 25.7437 5.55227 25.5693 5.45518 25.3738C5.35808 25.1783 5.30045 24.9656 5.28559 24.7478C5.27073 24.5301 5.29893 24.3115 5.36858 24.1046C5.43822 23.8978 5.54795 23.7067 5.69149 23.5422L25.7119 0.593779C25.8554 0.429208 26.0299 0.29452 26.2255 0.197409C26.4211 0.100298 26.6338 0.0426678 26.8517 0.0278095C27.0695 0.0129513 27.2881 0.0411565 27.4951 0.110814C27.702 0.180472 27.8932 0.290217 28.0577 0.43378L28.231 0.585779C28.5633 0.875431 28.7669 1.28518 28.797 1.72491C28.8272 2.16464 28.6815 2.59835 28.3919 2.93067L8.37149 25.8791Z" fill="#3B88C3"/>
<path d="M9.32438 24.7876C7.22661 27.192 1.93505 31.9067 1.26483 31.3227C0.595495 30.7387 4.5475 24.856 6.64527 22.4507C8.74305 20.0453 8.12172 21.9689 8.86127 22.6151C9.60083 23.2605 11.4222 22.384 9.32438 24.7876Z" fill="#3B88C3"/>
<path d="M5.93066 22.2453C5.93066 23.1342 8.08266 23.9476 8.97155 23.0587C9.86044 22.1698 11.9413 21.0782 14.6773 22.2222C21.0809 24.8978 18.6667 21.3333 16 20.4444C13.3333 19.5556 8.88889 20.4444 8 20.4444C7.11111 20.4444 5.93066 22.2453 5.93066 22.2453Z" fill="#D2A077"/>
<path d="M5.50643 19.5938C5.18821 18.6044 7.45132 13.1236 8.47621 12.2747C9.76688 11.2062 14.7598 9.552 16.5375 9.552C18.3153 9.552 31.1109 16 31.1109 20.4444C31.1109 24.8889 29.3331 25.4444 26.7775 26.1387C24.734 26.6942 20.4531 26.3538 18.5829 24.6107C16.9438 23.0836 15.8051 22.0276 14.222 21.3333C11.2869 20.0462 9.33043 21.7102 8.44154 22.5991C6.66377 24.3769 3.31443 22.4578 6.10821 19.4169C8.10732 17.24 9.86821 16.5618 11.5553 16C16.8887 14.2222 20.4442 14.2222 18.6664 12.4444C18.038 11.816 17.6958 12.752 16.8211 12.9111C15.0611 13.2311 13.6602 13.4462 11.3411 14.2196C10.5393 14.4862 6.74377 16.9067 5.50643 19.5938Z" fill="#F3D2A2"/>
<path d="M11.7296 14.4667C12.6754 14.1218 16.798 13.3716 18.9429 12.6284C20.6754 12.0276 22.1954 13.1938 18.9074 14.4311C15.734 15.6249 12.4372 15.5271 10.0327 16.4818C9.12338 16.8427 8.33494 15.704 11.7296 14.4667Z" fill="#D2A077"/>
<path d="M19.9885 7.13156C19.9885 7.13156 14.7192 13.1716 12.481 15.7191C14.4845 14.896 16.2774 15.0525 17.9903 14.0445C19.7032 13.0373 20.4845 11.9627 23.0836 8.98223C24.049 7.87645 19.9885 7.13156 19.9885 7.13156Z" fill="#3B88C3"/>
</svg>
